<?xml version="1.0" standalone="no"?>
<!DOCTYPE svg PUBLIC "-//W3C//DTD SVG 1.1//EN" "http://www.w3.org/Graphics/SVG/1.1/DTD/svg11.dtd" >
<svg xmlns="http://www.w3.org/2000/svg" xmlns:xlink="http://www.w3.org/1999/xlink" version="1.1">
<metadata>
Created by FontForge 20200427 at Mon Apr 16 20:10:56 2007
 By www
Copyright (c) 1996-2006 Parachute :, www.parachute.gr.  All rights reserved.
</metadata>
<defs>
<font id="PFFusionSansPro-Black" horiz-adv-x="520" >
  <font-face 
    font-family="PF Fusion Sans Pro Black"
    font-weight="900"
    font-stretch="normal"
    units-per-em="1000"
    panose-1="2 0 10 6 3 0 0 2 0 4"
    ascent="850"
    descent="-150"
    x-height="617"
    cap-height="752"
    bbox="-249 -307 1391 1031"
    underline-thickness="90"
    underline-position="-270"
    unicode-range="U+0020-FB05"
  />
<missing-glyph 
d="M41 747h438v-747h-438v747zM366 82l-106 212l-108 -212h214zM366 665h-214l108 -212zM116 175l101 198l-101 197v-395zM403 177v394l-99 -198z" />
    <glyph glyph-name="ff" unicode="ff" horiz-adv-x="581" 
d="M514 519v-519h-183v519h-90v-519h-183v519h-49v97h48v48q0 60 27.5 90t96.5 30h113v-107h-26q-22 0 -28.5 -8.5t-6.5 -25.5v-27h97v78q0 60 27.5 90t96.5 30h113v-112h-26q-22 0 -28.5 -8.5t-6.5 -25.5v-52h69v-97h-61z" />
    <glyph glyph-name="fi" unicode="fi" horiz-adv-x="556" 
d="M9 616h49v55q0 66 38 109t116 43h207v-125h-129q-33 0 -44.5 -12t-11.5 -29v-41h287v-616h-189v519h-90v-519h-183v519h-50v97z" />
    <glyph glyph-name="fl" unicode="fl" horiz-adv-x="555" 
d="M334 0v698h-44q-33 0 -44.5 -12t-11.5 -29v-41h68v-97h-60v-519h-183v519h-50v97h49v55q0 33 7.5 61t25.5 48t47.5 31.5t73.5 11.5h122l188 13v-836h-188z" />
    <glyph glyph-name="ffi" unicode="ffi" horiz-adv-x="829" 
d="M605 0v519h-90v-519h-183v519h-91v-519h-183v519h-49v97h48v48q0 60 27.5 90t96.5 30h113v-107h-26q-22 0 -28.5 -8.5t-6.5 -25.5v-27h98v55q0 66 38 109t116 43h207v-125h-129q-33 0 -44.5 -12t-11.5 -29v-41h287v-616h-189z" />
    <glyph glyph-name="ffl" unicode="ffl" horiz-adv-x="828" 
d="M605 0v698h-44q-33 0 -44.5 -12t-11.5 -29v-41h68v-97h-60v-519h-183v519h-89v-519h-183v519h-49v97h48v48q0 60 27.5 90t96.5 30h113v-107h-26q-22 0 -28.5 -8.5t-6.5 -25.5v-27h96v55q0 33 7.5 61t25.5 48t47.5 31.5t73.5 11.5h122l188 12v-835h-188z" />
    <glyph glyph-name="ft" unicode="ft" horiz-adv-x="600" 
d="M525 518v-356q0 -45 9 -88t24 -74h-182q-5 9 -11.5 22t-11.5 32t-8.5 45.5t-3.5 62.5v357h-100v-519h-183v519h-49v97h48v48q0 60 27.5 90t96.5 30h113v-107h-26q-22 0 -28.5 -8.5t-6.5 -25.5v-26h108v107l184 40v-147h68v-99h-68z" />
    <glyph glyph-name="fj" unicode="fj" horiz-adv-x="556" 
d="M9 616h49v55q0 66 38 109t116 43h207v-125h-129q-33 0 -44.5 -12t-11.5 -29v-41h287v-616q0 -62 -38 -99.5t-121 -37.5h-87v127h25q17 0 24.5 9t7.5 32v488h-90v-519h-183v519h-50v97z" />
    <glyph glyph-name="ffj" unicode="ffj" horiz-adv-x="829" 
d="M794 616v-616q0 -62 -38 -99.5t-121 -37.5h-87v127h25q17 0 24.5 9t7.5 32v488h-90v-519h-183v519h-91v-519h-183v519h-49v97h48v48q0 60 27.5 90t96.5 30h113v-107h-26q-22 0 -28.5 -8.5t-6.5 -25.5v-27h98v55q0 66 38 109t116 43h207v-125h-129q-33 0 -44.5 -12
t-11.5 -29v-41h287z" />
    <glyph glyph-name=".notdef" 
d="M41 747h438v-747h-438v747zM366 82l-106 212l-108 -212h214zM366 665h-214l108 -212zM116 175l101 198l-101 197v-395zM403 177v394l-99 -198z" />
    <glyph glyph-name="exclam" unicode="!" horiz-adv-x="269" 
d="M207 195h-142l-29 557h201zM51 0v151h171v-151h-171z" />
    <glyph glyph-name="quotedbl" unicode="&#x22;" horiz-adv-x="348" 
d="M43 499v252h115v-252h-115zM194 499v252h115v-252h-115z" />
    <glyph glyph-name="numbersign" unicode="#" 
d="M287 217h-104l-26 -196h-111l26 196h-53l14 111h53l15 106h-54l14 111h54l23 176h113l-24 -176h103l23 176h111l-22 -176h58l-14 -111h-58l-15 -106h58l-12 -111h-62l-25 -196h-111zM198 328h103l15 106h-103z" />
    <glyph glyph-name="dollar" unicode="$" 
d="M217 0q-53 7 -84.5 29t-48 52.5t-22 67.5t-5.5 75v39h171v-82q0 -10 1 -21t4.5 -20t10 -15t17.5 -6q23 0 29.5 19t6.5 38q0 25 -4.5 44t-16.5 35.5t-32 32t-50 34.5q-37 23 -64 43t-44.5 44t-26 55.5t-8.5 77.5q0 93 43 139.5t118 55.5v82h86v-82q51 -6 82.5 -26
t48.5 -47.5t22.5 -60.5t5.5 -66v-31h-171v54q0 9 -0.5 19t-3.5 19t-9 14.5t-18 5.5q-19 0 -25 -16.5t-6 -33.5q0 -29 7 -46.5t21 -31t36.5 -27t52.5 -33.5q37 -24 62.5 -46.5t40.5 -49t21.5 -60.5t6.5 -82q0 -95 -43 -140.5t-124 -52.5v-89h-88v90z" />
    <glyph glyph-name="percent" unicode="%" horiz-adv-x="800" 
d="M771 126q0 -40 -12.5 -65.5t-33 -40.5t-46.5 -20.5t-52 -5.5q-42 0 -70.5 10.5t-45 29.5t-23.5 45.5t-7 59.5v178q0 17 4 41t18.5 45.5t43.5 37t80 15.5q67 0 105 -33.5t38 -105.5zM643 349q0 9 -2.5 18t-13.5 9t-13.5 -9t-2.5 -18v-246q0 -10 3 -19.5t14 -9.5
q10 0 12.5 9.5t2.5 19.5v246zM318 429q0 -40 -12.5 -65.5t-33 -40.5t-46.5 -20.5t-52 -5.5q-42 0 -70.5 10.5t-45 29.5t-23.5 45.5t-7 59.5v178q0 17 4 41t18.5 45.5t43.5 37t80 15.5q67 0 105 -33.5t38 -105.5zM190 652q0 9 -2.5 18t-13.5 9t-13.5 -9t-2.5 -18v-246
q0 -10 3 -19.5t14 -9.5q10 0 12.5 9.5t2.5 19.5v246zM273 -29h-108l361 811h106z" />
    <glyph glyph-name="ampersand" unicode="&#x26;" horiz-adv-x="591" 
d="M385 0l-19 39q-58 -50 -134 -50q-42 0 -76 16t-59 44.5t-38.5 67.5t-13.5 86q0 70 29 126.5t87 106.5q-23 43 -37 81.5t-14 77.5q0 36 12.5 66.5t35.5 52.5t54.5 34t70.5 12q75 0 118.5 -41.5t43.5 -113.5q0 -108 -99 -192l48 -90q8 19 13 45t9 64h141q-5 -86 -25 -150.5
t-56 -114.5l87 -167h-178zM309 600q0 30 -27 30q-14 0 -19.5 -8.5t-5.5 -19.5t4.5 -27t18.5 -41q16 16 22.5 34t6.5 32zM233 299q-31 -34 -31 -80q0 -37 16 -57t39 -20q21 0 44 22z" />
    <glyph glyph-name="quotesingle" unicode="'" horiz-adv-x="214" 
d="M51 499v252h115v-252h-115z" />
    <glyph glyph-name="parenleft" unicode="(" horiz-adv-x="296" 
d="M36 336q0 63 11 122t30 113.5t44.5 104t54.5 93.5l106 -41q-24 -44 -41.5 -93t-29 -99t-17.5 -100t-6 -96q0 -51 6.5 -104t18.5 -104.5t29.5 -100t40.5 -89.5l-97 -46q-67 97 -108.5 205.5t-41.5 234.5z" />
    <glyph glyph-name="parenright" unicode=")" horiz-adv-x="296" 
d="M267 336q0 -126 -41.5 -234.5t-108.5 -205.5l-97 46q22 41 40 89.5t30 100t18.5 104.5t6.5 104q0 46 -6 96t-17.5 100t-29 99t-41.5 93l106 41q29 -44 54.5 -93.5t44.5 -104t30 -113.5t11 -122z" />
    <glyph glyph-name="asterisk" unicode="*" horiz-adv-x="377" 
d="M306 474l-71 49v-86h-84v83l-72 -47l-48 65l90 59l-89 61l46 61l73 -47v84h84v-83l71 47l46 -65l-87 -59l87 -58z" />
    <glyph glyph-name="plus" unicode="+" 
d="M320 258v-167h-110v167h-163v113h163v167h110v-167h164v-113h-164z" />
    <glyph glyph-name="comma" unicode="," horiz-adv-x="207" 
d="M104 -123h-79l38 132h-35v164h151v-163z" />
    <glyph glyph-name="hyphen" unicode="-" horiz-adv-x="278" 
d="M19 243v130h241v-130h-241z" />
    <glyph glyph-name="period" unicode="." horiz-adv-x="214" 
d="M31 0v171h154v-171h-154z" />
    <glyph glyph-name="slash" unicode="/" horiz-adv-x="372" 
d="M139 -66h-139l227 868h138z" />
    <glyph glyph-name="zero" unicode="0" 
d="M480 207q0 -65 -19 -107.5t-50 -67t-69.5 -34t-77.5 -9.5q-63 0 -105.5 17.5t-68 49t-36 75.5t-10.5 98v305q0 19 2 43.5t9.5 50t22 50t39 43.5t60.5 30.5t87 11.5q99 0 157 -56t58 -173zM296 590q0 9 -1 19t-4 18t-9.5 13.5t-17.5 5.5t-17.5 -5t-10.5 -13.5t-5 -18
t-1 -18.5v-424q0 -9 1 -19.5t5 -19t11 -14t18 -5.5q20 0 25.5 19.5t5.5 38.5v423z" />
    <glyph glyph-name="one" unicode="1" 
d="M207 0v576h-101v111h13q74 0 109 64h163v-751h-184z" />
    <glyph glyph-name="two" unicode="2" 
d="M51 0v173q0 29 1.5 53.5t7.5 45.5t18 40t33 37l151 126q14 11 22 31.5t8 52.5v45q0 29 -12 37.5t-25 8.5q-4 0 -10.5 -1.5t-12.5 -6.5t-10 -14t-4 -24v-112h-165v73q0 44 13.5 80.5t39.5 62.5t64 40.5t88 14.5q55 0 95 -13t65 -37.5t37 -60t12 -79.5v-58q0 -21 -5 -41.5
t-13.5 -37.5t-18.5 -30.5t-20 -22.5l-146 -124q-14 -11 -22 -21.5t-12 -22.5t-5.5 -27t-1.5 -34v-22h104v143h142v-275h-418z" />
    <glyph glyph-name="three" unicode="3" 
d="M255 763q113 0 163.5 -48.5t50.5 -145.5q0 -26 -2.5 -46.5t-10 -37.5t-21 -30.5t-35.5 -26.5v-3q28 -11 43.5 -30.5t22.5 -44t8.5 -52t1.5 -54.5v-19q0 -60 -11 -104t-37 -73.5t-68.5 -44t-104.5 -14.5q-66 0 -107.5 15t-64.5 44t-31.5 72.5t-8.5 100.5v93h183v-146
q0 -10 1 -20.5t4.5 -19.5t10.5 -14.5t19 -5.5q18 0 24.5 17t6.5 35v130q0 16 -1 29t-5.5 22t-15.5 13.5t-30 4.5h-58v129h58q30 0 41 11t11 41v58q0 6 -1 14t-5 16t-10.5 13.5t-16.5 5.5q-12 0 -18.5 -7t-9.5 -16t-4 -18.5t-1 -14.5v-67h-181v35q0 94 54.5 149t155.5 55z
" />
    <glyph glyph-name="four" unicode="4" 
d="M435 132v-132h-184v132h-229v129l200 491h213v-491h52v-129h-52zM246 462l-75 -201h80v201h-5z" />
    <glyph glyph-name="five" unicode="5" 
d="M221 511q43 45 104 45q49 0 79 -16t46.5 -44t22 -67t5.5 -84v-131q0 -56 -11.5 -98t-38 -70t-69 -42.5t-104.5 -14.5q-66 0 -108 16.5t-65.5 46.5t-32.5 73t-9 96v93h183v-152q0 -10 1 -20t4.5 -18t11 -13t20.5 -5q20 0 27.5 14t7.5 37v216q0 12 -1 24t-4 21.5t-9.5 16
t-18.5 6.5t-19.5 -6.5t-12 -16t-6 -21.5t-1.5 -24l-181 30v349h401v-120h-228v-117z" />
    <glyph glyph-name="six" unicode="6" 
d="M295 340q0 20 -8.5 33.5t-26.5 13.5q-17 0 -26.5 -13t-9.5 -34v-181q0 -21 7.5 -35.5t27.5 -14.5t28 15t8 35v181zM230 455q17 27 43 38t58 11q42 0 70.5 -15.5t46 -40.5t25 -57t7.5 -65v-134q0 -65 -19.5 -105t-51 -62t-70.5 -29t-78 -7q-63 0 -105.5 15t-68 43.5
t-36 70t-10.5 95.5v331q0 52 11.5 92.5t37.5 68.5t68 43t103 15q104 0 161 -45.5t57 -148.5v-27h-183v55q0 23 -10 36.5t-28 13.5q-11 0 -18 -6t-11 -15t-5 -20.5t-1 -22.5v-125z" />
    <glyph glyph-name="seven" unicode="7" 
d="M98 0l180 618h-76v-114h-138v247h391v-121l-176 -630h-181z" />
    <glyph glyph-name="eight" unicode="8" 
d="M478 218q0 -30 -3 -64t-14 -62q-12 -30 -34.5 -50t-50 -32.5t-58 -18t-58.5 -5.5q-50 0 -90.5 13t-69 40t-44.5 70t-16 103q0 40 3 71.5t11 56t23 42.5t39 32q-21 10 -34 27.5t-20.5 39t-10.5 44.5t-3 44q0 46 15.5 82.5t43.5 61.5t66.5 38t84.5 13t85.5 -12t68 -36
t44.5 -61t16 -86q0 -23 -3 -44.5t-11.5 -41.5t-23.5 -37.5t-40 -31.5q31 -14 48.5 -34.5t25 -45.5t9 -54.5t1.5 -61.5zM294 589q0 9 -0.5 19.5t-4 19.5t-10.5 14.5t-19 5.5q-10 0 -16 -6t-9.5 -14.5t-4.5 -19t-1 -19.5v-74q0 -9 1 -18.5t4.5 -18t10.5 -14t18 -5.5
q20 0 25.5 18.5t5.5 37.5v74zM295 277q0 10 -0.5 20.5t-4 18.5t-10.5 13.5t-20 5.5q-11 0 -17.5 -5.5t-9.5 -14t-4 -18.5t-1 -20v-108q0 -11 0.5 -22t3.5 -19.5t10 -14t20 -5.5q11 0 17.5 5.5t10 13.5t4.5 18.5t1 20.5v111z" />
    <glyph glyph-name="nine" unicode="9" 
d="M225 412q0 -20 8.5 -33.5t26.5 -13.5q17 0 26.5 13t9.5 34v181q0 21 -7.5 35.5t-27.5 14.5t-28 -15t-8 -35v-181zM290 297q-17 -27 -43 -38t-58 -11q-42 0 -70.5 15.5t-46 40.5t-25 57t-7.5 65v134q0 65 19.5 105t51 61.5t70.5 29t78 7.5q63 0 105.5 -15t68 -43.5t36 -70
t10.5 -95.5v-331q0 -52 -11.5 -92.5t-37.5 -68.5t-68 -43t-103 -15q-104 0 -161 45t-57 149v27h183v-55q0 -23 10 -36.5t28 -13.5q22 0 28.5 21t6.5 43v125z" />
    <glyph glyph-name="colon" unicode=":" horiz-adv-x="218" 
d="M31 0v171h154v-171h-154zM31 372v171h154v-171h-154z" />
    <glyph glyph-name="semicolon" unicode=";" horiz-adv-x="218" 
d="M31 372v171h154v-171h-154zM109 -123h-79l38 132h-35v164h151v-163z" />
    <glyph glyph-name="less" unicode="&#x3c;" 
d="M47 269v94l437 206v-128l-290 -125l290 -124v-129z" />
    <glyph glyph-name="equal" unicode="=" 
d="M41 354v114h437v-114h-437zM41 157v113h437v-113h-437z" />
    <glyph glyph-name="greater" unicode="&#x3e;" 
d="M48 63v129l290 124l-290 125v128l437 -206v-94z" />
    <glyph glyph-name="question" unicode="?" horiz-adv-x="485" 
d="M457 567q0 -30 -6.5 -54.5t-17 -46t-25 -41t-30.5 -39.5l-57 -70q-26 -32 -31 -58t-5 -45v-18h-171v44q0 33 8.5 71.5t44.5 81.5l48 57q32 38 48 68t16 66q0 9 -0.5 18.5t-4 17t-10.5 12.5t-20 5q-12 0 -18.5 -6t-10 -15.5t-4 -20t-0.5 -19.5v-61h-171v35q0 47 12 86
t37.5 67.5t65.5 44.5t95 16q59 0 98.5 -14.5t63.5 -40t34.5 -62t10.5 -79.5zM115 0v151h171v-151h-171z" />
    <glyph glyph-name="at" unicode="@" horiz-adv-x="827" 
d="M372 153q-20 0 -40 5t-36 16t-26 29t-10 45v52q0 24 5.5 41.5t16.5 30.5t28 23t40 21l56 25q11 5 15 14.5t4 17.5v24q0 31 -22 31q-13 0 -16.5 -9t-3.5 -21v-50h-123v19q0 63 37.5 101.5t110.5 38.5q82 0 114 -38t32 -106v-169q0 -17 11 -25t20 -8q16 0 30.5 6t25 23.5
t17 48t6.5 79.5q0 55 -13 101.5t-41.5 80.5t-73.5 52.5t-108 18.5q-76 0 -127 -25t-82 -67t-44 -96.5t-13 -112.5q0 -149 63.5 -230t193.5 -81q45 0 87 10t96 41l47 -99q-57 -28 -112.5 -44t-111.5 -16q-84 0 -154 24.5t-119.5 75.5t-77 130t-27.5 189q0 87 25 162t73 130.5
t118.5 87t161.5 31.5q94 0 161 -28.5t110.5 -78t64 -115.5t20.5 -141q0 -73 -16 -124t-43.5 -83.5t-65.5 -47.5t-81 -15q-8 0 -20.5 2t-26.5 7t-27.5 14.5t-23.5 24.5q-16 -19 -41.5 -31t-63.5 -12zM424 374q-19 -10 -30 -22t-11 -28v-55q0 -13 2.5 -26t19.5 -13
q14 0 16.5 10t2.5 22v112z" />
    <glyph glyph-name="A" unicode="A" horiz-adv-x="511" 
d="M308 0l-10 135h-78l-11 -135h-193l100 752h278l104 -752h-190zM255 614l-10 -150l-14 -195h55l-14 196l-10 149h-7z" />
    <glyph glyph-name="B" unicode="B" horiz-adv-x="518" 
d="M485 202q-2 -96 -59.5 -149t-165.5 -53h-219v752h217q55 0 95.5 -9t66.5 -31t39 -58.5t13 -91.5q0 -65 -26.5 -100.5t-70.5 -48.5v-3q36 -9 57.5 -27t33.5 -40.5t16 -46.5t4 -45zM232 461q37 1 50 19.5t13 61.5q0 19 -1.5 33t-8 24t-19 15t-34.5 5v-158zM295 264
q0 38 -15.5 53t-47.5 17v-201q35 2 49 17.5t14 57.5v56z" />
    <glyph glyph-name="C" unicode="C" horiz-adv-x="519" 
d="M487 313v-111q0 -65 -20 -106.5t-52.5 -65t-74 -32.5t-83.5 -9q-63 0 -105.5 16.5t-68 47.5t-36.5 74t-11 97v321q0 19 2 43t10 48t22 47t39 40.5t61 28.5t87 11q53 0 95.5 -12t72.5 -38.5t46 -68t16 -99.5v-78h-191v113q0 9 -1 19t-5 18t-10.5 13.5t-17.5 5.5
q-22 0 -28.5 -18.5t-6.5 -36.5v-404q0 -9 1 -19.5t5 -19t11 -14t18 -5.5q20 0 27 19.5t7 38.5v136h191z" />
    <glyph glyph-name="D" unicode="D" horiz-adv-x="518" 
d="M483 224q0 -54 -8 -96t-31 -70.5t-64.5 -43t-107.5 -14.5h-231v752h206q77 0 123.5 -15.5t71.5 -46.5t33 -76.5t8 -105.5v-284zM292 533q0 22 -1 38t-7 27t-18 16.5t-34 5.5v-487q22 0 34 10t18 25.5t7 33.5t1 34v297z" />
    <glyph glyph-name="E" unicode="E" horiz-adv-x="391" 
d="M41 0v752h318v-140h-128v-146h120v-141h-120v-184h141v-141h-331z" />
    <glyph glyph-name="F" unicode="F" horiz-adv-x="374" 
d="M232 612v-146h118v-141h-118v-325h-191v752h323v-140h-132z" />
    <glyph glyph-name="G" unicode="G" horiz-adv-x="517" 
d="M347 54q-20 -33 -51.5 -48.5t-66.5 -15.5q-57 0 -94 14.5t-59 42t-31 68.5t-9 95v335q0 29 6.5 66.5t29.5 71.5t67.5 57t121.5 23q106 0 166 -50.5t60 -167.5v-78h-191v113q0 9 -1 19t-5 18t-10.5 13.5t-17.5 5.5q-22 0 -28.5 -18.5t-6.5 -36.5v-404q0 -9 1 -19.5t5 -19
t11 -14t18 -5.5q22 0 28 16.5t6 37.5v116h-33v115h224v-404h-116l-21 54h-3z" />
    <glyph glyph-name="H" unicode="H" horiz-adv-x="531" 
d="M299 0v325h-67v-325h-191v752h191v-286h67v286h191v-752h-191z" />
    <glyph glyph-name="I" unicode="I" horiz-adv-x="272" 
d="M41 0v752h190v-752h-190z" />
    <glyph glyph-name="J" unicode="J" horiz-adv-x="485" 
d="M204 169q0 -19 6 -34.5t25 -15.5q17 0 22.5 17t5.5 36v580h191v-519q0 -40 -6.5 -83t-29 -79t-67.5 -59t-121 -23q-68 0 -110.5 18.5t-65.5 51.5t-31 77.5t-8 96.5v69h189v-133z" />
    <glyph glyph-name="K" unicode="K" horiz-adv-x="513" 
d="M238 478l73 274h188l-114 -339l121 -413h-197l-73 304h-4v-304h-191v752h191v-274h6z" />
    <glyph glyph-name="L" unicode="L" horiz-adv-x="358" 
d="M41 0v752h191v-601h116v-151h-307z" />
    <glyph glyph-name="M" unicode="M" horiz-adv-x="695" 
d="M354 355l34 217l30 180h231v-752h-174v378h-5l-30 -138l-34 -131h-113l-37 134l-31 129h-5v-372h-179v752h220l39 -176l46 -221h8z" />
    <glyph glyph-name="N" unicode="N" horiz-adv-x="538" 
d="M323 400v352h174v-752h-182l-54 198l-39 158h-6v-356h-175v752h175l56 -189l45 -163h6z" />
    <glyph glyph-name="O" unicode="O" horiz-adv-x="512" 
d="M477 202q0 -65 -20 -106.5t-51.5 -65t-70.5 -32.5t-78 -9q-63 0 -105.5 16.5t-68 47.5t-36.5 74t-11 97v321q0 19 2 43t10 48t22 47t39 40.5t61 28.5t87 11q49 0 90 -12t69.5 -38.5t44.5 -68t16 -99.5v-343zM286 580q0 9 -0.5 19t-3 18t-8.5 13.5t-17 5.5t-17 -5
t-9 -13.5t-3.5 -18t-0.5 -18.5v-404q0 -9 0.5 -19.5t3.5 -19t9.5 -14t17.5 -5.5q10 0 15.5 5.5t8.5 14t3.5 19t0.5 19.5v403z" />
    <glyph glyph-name="P" unicode="P" horiz-adv-x="486" 
d="M471 542q0 -62 -13.5 -105t-40.5 -69.5t-67 -38.5t-92 -12h-27v-317h-190v752h213q117 0 167 -51.5t50 -158.5zM231 446h11q30 0 42.5 22.5t12.5 69.5q0 50 -14.5 67.5t-42.5 17.5h-9v-177z" />
    <glyph glyph-name="Q" unicode="Q" horiz-adv-x="512" 
d="M477 202q0 -54 -13.5 -91t-36 -61.5t-52 -37.5t-61.5 -18v-5q0 -15 9.5 -19t26.5 -4h31v-102h-91q-51 0 -72.5 23.5t-21.5 65.5v41q-45 7 -76 26.5t-49.5 49.5t-26.5 68.5t-8 85.5v321q0 19 2 43t10 48t22 47t39 40.5t61 28.5t87 11q49 0 90 -12t69.5 -38.5t44.5 -68
t16 -99.5v-343zM286 580q0 9 -0.5 19t-3 18t-8.5 13.5t-17 5.5t-17 -5t-9 -13.5t-3.5 -18t-0.5 -18.5v-404q0 -9 0.5 -19.5t3.5 -19t9.5 -14t17.5 -5.5q10 0 15.5 5.5t8.5 14t3.5 19t0.5 19.5v403z" />
    <glyph glyph-name="R" unicode="R" horiz-adv-x="505" 
d="M402 397q41 -16 55 -42t14 -73v-210q0 -21 1 -38t12 -34h-176q-8 14 -10.5 33.5t-2.5 44.5v172q0 47 -13.5 67.5t-50.5 22.5v-340h-190v753h259q84 0 127.5 -46.5t43.5 -149.5q0 -67 -14.5 -103t-54.5 -53v-4zM231 624v-168q21 1 33.5 4t19 12.5t9 26.5t2.5 45
q0 24 -2 39.5t-8.5 24.5t-18.5 12.5t-33 3.5h-2z" />
    <glyph glyph-name="S" unicode="S" horiz-adv-x="485" 
d="M461 192q0 -55 -15 -93.5t-43 -63t-68 -35.5t-91 -11q-72 0 -114.5 20.5t-64.5 54t-28 75.5t-6 86v52h177v-96q0 -11 1 -22t4.5 -21t10.5 -16t18 -6q12 0 19.5 5.5t11.5 14t5.5 19t1.5 20.5q0 31 -4.5 51t-16.5 36t-32.5 30.5t-53.5 35.5q-39 25 -67 46.5t-46 46
t-26.5 57t-8.5 79.5q0 54 15.5 93t44 64t67.5 37t87 12q69 0 110 -19t62.5 -49t28 -67.5t6.5 -75.5v-43h-178v67q0 23 -6 41.5t-26 18.5t-26 -17t-6 -35q0 -29 7 -47.5t21.5 -33t37 -28.5t54.5 -34q46 -29 73 -54.5t41.5 -53t18.5 -61.5t4 -80z" />
    <glyph glyph-name="T" unicode="T" horiz-adv-x="443" 
d="M316 612v-612h-191v612h-113v140h417v-140h-113z" />
    <glyph glyph-name="U" unicode="U" horiz-adv-x="517" 
d="M479 753v-551q0 -65 -20 -106.5t-51.5 -65t-70.5 -32.5t-78 -9q-63 0 -105.5 16.5t-68 47.5t-36.5 74t-11 97v529h191v-576q0 -9 0.5 -19.5t3.5 -19t9.5 -14t17.5 -5.5q10 0 15.5 5.5t8.5 14t3.5 19t0.5 19.5v576h191z" />
    <glyph glyph-name="V" unicode="V" horiz-adv-x="510" 
d="M407 0h-290l-110 752h201l25 -296l23 -289h7l19 290l21 295h201z" />
    <glyph glyph-name="W" unicode="W" horiz-adv-x="776" 
d="M684 0h-238l-26 190l-30 229h-5l-27 -233l-23 -186h-237l-85 752h185l20 -281l17 -247h4l24 248l29 280h195l21 -277l21 -256h4l24 252l27 281h185z" />
    <glyph glyph-name="X" unicode="X" horiz-adv-x="482" 
d="M235 254l-32 -254h-197l97 393l-86 359h200l23 -219h6l24 219h194l-89 -359l98 -393h-199l-33 254h-6z" />
    <glyph glyph-name="Y" unicode="Y" horiz-adv-x="469" 
d="M319 272v-272h-177v272l-135 480h179l23 -152l22 -168h4l25 170l25 150h173z" />
    <glyph glyph-name="Z" unicode="Z" horiz-adv-x="385" 
d="M15 0v121l152 491h-134v140h334v-129l-147 -481h147v-142h-352z" />
    <glyph glyph-name="bracketleft" unicode="[" horiz-adv-x="267" 
d="M41 -83v835h207v-116h-51v-603h51v-116h-207z" />
    <glyph glyph-name="backslash" unicode="\" horiz-adv-x="372" 
d="M1 802h138l227 -868h-139z" />
    <glyph glyph-name="bracketright" unicode="]" horiz-adv-x="267" 
d="M22 -83v116h51v603h-51v116h207v-835h-207z" />
    <glyph glyph-name="asciicircum" unicode="^" 
d="M363 377l-98 229l-98 -229h-126l177 376h94l176 -376h-125z" />
    <glyph glyph-name="underscore" unicode="_" horiz-adv-x="500" 
d="M0 -136v89h500v-89h-500z" />
    <glyph glyph-name="grave" unicode="`" horiz-adv-x="480" 
d="M261 650l-171 151l120 97l135 -186z" />
    <glyph glyph-name="a" unicode="a" horiz-adv-x="484" 
d="M261 47q-18 -26 -43 -42t-59 -16q-60 0 -94.5 31t-34.5 89v92q0 34 7 57.5t22 41t39 31.5t59 30l77 35q15 7 21 20t6 25v33q0 23 -6.5 33.5t-23.5 10.5q-18 0 -23.5 -12.5t-5.5 -29.5v-70h-172v27q0 100 54.5 147.5t154.5 47.5q67 0 107 -16t62 -45t29 -69t7 -87v-411
h-166l-10 47h-7zM260 281q-28 -13 -43 -30t-15 -39v-59q0 -19 4 -37t27 -18q10 0 15.5 5.5t8 14.5t3 19t0.5 19v125z" />
    <glyph glyph-name="b" unicode="b" horiz-adv-x="487" 
d="M216 40l-10 -40h-170v772h183v-196l5 -3q21 24 43.5 39.5t57.5 15.5q43 0 69 -16t40 -43t18.5 -61t4.5 -70v-291q0 -33 -6.5 -61.5t-21.5 -50t-40 -34t-62 -12.5q-36 0 -60.5 14.5t-46.5 39.5zM274 451q0 9 -0.5 19t-3 18t-7.5 13.5t-15 5.5t-15.5 -5t-8.5 -13t-4 -17.5
t-1 -18.5v-295q0 -17 5.5 -33.5t23.5 -16.5t22 17t4 33v293z" />
    <glyph glyph-name="c" unicode="c" horiz-adv-x="464" 
d="M441 254v-45q0 -107 -47.5 -163t-154.5 -56q-65 0 -105.5 17.5t-63.5 47t-31.5 68t-8.5 81.5v204q0 219 209 219q48 0 86 -11t63.5 -36.5t39 -67t13.5 -102.5v-26h-173v80q0 17 -4.5 34.5t-23.5 17.5q-10 0 -16 -5t-9 -12.5t-3.5 -17t-0.5 -17.5v-316q0 -18 4.5 -33.5
t24.5 -15.5q19 0 23.5 15.5t4.5 33.5v106h173z" />
    <glyph glyph-name="d" unicode="d" horiz-adv-x="487" 
d="M268 43q-22 -25 -46.5 -39.5t-60.5 -14.5q-38 0 -63 12.5t-40 34t-21 50t-6 61.5v291q0 36 4.5 70t18.5 61t40 43t69 16q35 0 57.5 -12.5t43.5 -36.5l5 3v190h183v-772h-170l-10 40zM214 158q0 -16 4 -33t22 -17t23.5 16.5t5.5 33.5v295q0 9 -1 18.5t-4 17.5t-8.5 13
t-15.5 5t-15 -5.5t-7.5 -13.5t-3 -18t-0.5 -19v-293z" />
    <glyph glyph-name="e" unicode="e" horiz-adv-x="480" 
d="M268 409v55q0 17 -4.5 34.5t-23.5 17.5q-10 0 -16 -5t-9 -12.5t-3.5 -17t-0.5 -17.5v-55h57zM211 301v-153q0 -18 4.5 -33.5t24.5 -15.5q19 0 23.5 15.5t4.5 33.5v109h181v-48q0 -107 -53 -163t-157 -56q-65 0 -105.5 17.5t-63.5 47t-31.5 68t-8.5 81.5v204
q0 219 209 219q45 0 83.5 -11t66.5 -36.5t44 -67t16 -102.5v-109h-238z" />
    <glyph glyph-name="f" unicode="f" horiz-adv-x="308" 
d="M241 514v-514h-183v514h-49v102h48v48q0 60 27.5 90t96.5 30h113v-107h-26q-22 0 -28.5 -8.5t-6.5 -25.5v-27h69v-102h-61z" />
    <glyph glyph-name="g" unicode="g" horiz-adv-x="544" 
d="M97 114q-40 17 -57.5 35.5t-17.5 56.5q0 30 22.5 58t67.5 44q-32 21 -48 52t-16 76q0 91 58.5 141.5t159.5 50.5q118 0 174 -51q19 21 50 39t64 23v-109q-47 0 -77 -12q5 -14 6.5 -32t1.5 -42q0 -34 -13.5 -65t-40.5 -55t-68 -38t-97 -14q-12 0 -21.5 0.5t-20.5 1.5
q-14 -8 -21.5 -12.5t-7.5 -11.5q0 -14 22 -17t50 -3q124 0 189.5 -42t65.5 -144q0 -40 -17 -75t-50 -61.5t-82 -41.5t-113 -15q-72 0 -118 13.5t-72.5 35.5t-37 50t-10.5 57q0 36 21.5 63t53.5 41v3zM299 474q0 21 -7.5 32.5t-25.5 11.5q-30 0 -30 -44v-54q0 -20 6 -30.5
t24 -10.5t25.5 10t7.5 31v54zM232 102q-14 -7 -25.5 -21t-11.5 -41q0 -11 2.5 -22t10 -19.5t21 -14t36.5 -5.5q38 0 55 19.5t17 39.5q0 29 -13 42.5t-45 18.5q-20 3 -47 3z" />
    <glyph glyph-name="h" unicode="h" horiz-adv-x="491" 
d="M224 579q22 23 48.5 36t56.5 13q45 0 71 -15t39 -39.5t16.5 -57t3.5 -68.5v-448h-183v453q0 9 -0.5 18.5t-3 17.5t-8 13t-15.5 5q-9 0 -15 -5t-9 -13t-4 -17.5t-1 -17.5v-454h-184v772h183v-192z" />
    <glyph glyph-name="i" unicode="i" horiz-adv-x="259" 
d="M36 652v120h188v-120h-188zM36 0v617h188v-617h-188z" />
    <glyph glyph-name="j" unicode="j" horiz-adv-x="265" 
d="M41 652v120h189v-120h-189zM230 92q0 -48 -4 -89.5t-20 -72t-48 -48.5t-87 -18h-87v127h25q17 0 24.5 9t7.5 32v585h189v-525z" />
    <glyph glyph-name="k" unicode="k" horiz-adv-x="473" 
d="M226 444l54 173h188l-103 -249l102 -368h-185l-57 251h-6v-251h-183v752h183v-308h7z" />
    <glyph glyph-name="l" unicode="l" horiz-adv-x="259" 
d="M36 0v752h188v-752h-188z" />
    <glyph glyph-name="m" unicode="m" horiz-adv-x="721" 
d="M217 565q20 28 49 45.5t65 17.5q38 0 67 -18.5t49 -51.5q21 32 50 51t67 19q43 0 68 -15.5t38 -41t16 -59t3 -68.5v-444h-179v461q0 9 -0.5 18.5t-3.5 17.5t-8.5 13.5t-15.5 5.5t-16 -5.5t-9 -13.5t-4 -17.5t-1 -17.5v-462h-181v461q0 9 -0.5 18.5t-3 17.5t-8 13.5
t-15.5 5.5q-9 0 -15 -5.5t-9 -13.5t-4 -17.5t-1 -17.5v-462h-179v617h164l11 -52h6z" />
    <glyph glyph-name="n" unicode="n" horiz-adv-x="491" 
d="M222 566q39 62 112 62q45 0 70 -17t37 -44.5t14.5 -62t2.5 -69.5v-435h-183v456q0 9 -1 18.5t-3.5 17.5t-8 13t-14.5 5t-15 -5t-9 -13t-4.5 -17.5t-1.5 -17.5v-457h-182v617h170l12 -50z" />
    <glyph glyph-name="o" unicode="o" horiz-adv-x="480" 
d="M449 209q0 -107 -53 -163t-157 -56q-65 0 -105.5 17.5t-63.5 47t-31.5 68t-8.5 81.5v204q0 219 209 219q45 0 83.5 -11t66.5 -36.5t44 -67t16 -102.5v-201zM268 464q0 17 -4.5 34.5t-23.5 17.5q-10 0 -16 -5t-9 -12.5t-3.5 -17t-0.5 -17.5v-316q0 -18 4.5 -33.5
t24.5 -15.5q19 0 23.5 15.5t4.5 33.5v316z" />
    <glyph glyph-name="p" unicode="p" horiz-adv-x="487" 
d="M220 574q22 25 46.5 39.5t60.5 14.5q37 0 62 -12.5t40 -34t21.5 -50t6.5 -61.5v-291q0 -36 -4.5 -70t-18.5 -61t-40 -43t-69 -16q-35 0 -57.5 12.5t-43.5 36.5l-5 -3v-171h-183v753h170l10 -40zM274 459q0 16 -4 33t-22 17t-23.5 -16.5t-5.5 -33.5v-295q0 -9 1 -18.5
t4 -17.5t8.5 -13t15.5 -5t15 5.5t7.5 13.5t3 18t0.5 19v293z" />
    <glyph glyph-name="q" unicode="q" horiz-adv-x="486" 
d="M275 577l10 40h170v-753h-183v177l-5 3q-21 -24 -43.5 -39.5t-57.5 -15.5q-43 0 -69 16t-40 43t-18.5 61t-4.5 70v291q0 33 6 61.5t21 50t40 34t63 12.5q36 0 60.5 -14.5t46.5 -39.5zM217 166q0 -9 0.5 -19t3 -18t7.5 -13.5t15 -5.5t15.5 5t8.5 13t4 17.5t1 18.5v295
q0 17 -5.5 33.5t-23.5 16.5t-22 -17t-4 -33v-293z" />
    <glyph glyph-name="r" unicode="r" horiz-adv-x="461" 
d="M223 562q21 29 43.5 47.5t58.5 18.5q45 0 69.5 -15t36.5 -40.5t14.5 -58t2.5 -68.5v-103h-182v125q0 17 -4 29.5t-19 12.5q-14 0 -19 -12.5t-5 -29.5v-468h-183v617h169l12 -54z" />
    <glyph glyph-name="s" unicode="s" horiz-adv-x="442" 
d="M424 182q0 -102 -53 -147.5t-149 -45.5q-107 0 -153.5 45.5t-46.5 143.5v38l167 1v-42q0 -14 0.5 -27.5t4 -24.5t10.5 -18t19 -7q23 0 28 16.5t5 37.5q0 18 -5 32t-18 27.5t-35 28t-56 34.5q-28 16 -50 31t-37.5 34t-24 44.5t-8.5 62.5q0 94 51.5 138t147.5 44
q99 0 148.5 -38.5t49.5 -131.5v-38h-172v52q0 15 -5 30t-25 15q-19 0 -24 -14t-5 -30q0 -20 5 -34t16 -25.5t28 -21.5t41 -22q37 -20 64.5 -36.5t45.5 -37t27 -47.5t9 -67z" />
    <glyph glyph-name="t" unicode="t" horiz-adv-x="314" 
d="M239 513v-351q0 -45 9 -88t24 -74h-182q-5 9 -11.5 22t-11.5 32t-8.5 45.5t-3.5 62.5v351h-49v104h49v107l184 40v-147h68v-104h-68z" />
    <glyph glyph-name="u" unicode="u" horiz-adv-x="490" 
d="M270 51q-39 -62 -112 -62q-45 0 -70 17t-37 44.5t-14.5 62t-2.5 69.5v435h183v-456q0 -9 1 -18.5t3.5 -17.5t8 -13t14.5 -5t15 5t9 13t4.5 17.5t1.5 17.5v457h182v-617h-170l-12 50z" />
    <glyph glyph-name="v" unicode="v" horiz-adv-x="430" 
d="M337 0h-239l-93 617h164l28 -237l22 -210h5l15 209l20 238h163z" />
    <glyph glyph-name="w" unicode="w" horiz-adv-x="662" 
d="M579 0h-209l-17 142l-19 179h-4l-19 -176l-19 -145h-209l-78 617h158l20 -189l17 -213h4l18 212l21 190h172l18 -188l15 -216h5l20 216l22 188h157z" />
    <glyph glyph-name="x" unicode="x" horiz-adv-x="449" 
d="M220 200l-21 -119l-17 -81h-176l84 322l-81 295h175l19 -94l18 -102h5l23 104l24 92h167l-88 -295l87 -322h-181l-15 80l-19 120h-4z" />
    <glyph glyph-name="y" unicode="y" horiz-adv-x="458" 
d="M359 75q-6 -35 -14.5 -72.5t-28.5 -68.5t-55 -50.5t-93 -19.5h-108v127h26q38 0 38 34q0 10 -3 24l-116 568h178l26 -203l25 -217h5l19 217l19 203h172z" />
    <glyph glyph-name="z" unicode="z" horiz-adv-x="361" 
d="M16 0v122l152 378h-143v117h313v-127l-149 -373h149v-117h-322z" />
    <glyph glyph-name="braceleft" unicode="{" horiz-adv-x="348" 
d="M189 325q32 -13 42.5 -37.5t10.5 -68.5v-114q0 -39 10.5 -62.5t47.5 -23.5h21v-113h-70q-53 0 -84.5 14t-48 38t-22 55t-5.5 66v110q0 51 -12.5 70.5t-46.5 19.5h-8v102h8q37 0 48 20t11 70v122q0 78 35.5 120t106.5 42h22t25.5 -0.5t23.5 -0.5h17v-113h-20
q-37 0 -48 -23.5t-11 -62.5v-114q0 -44 -11 -68.5t-42 -37.5v-10z" />
    <glyph glyph-name="bar" unicode="|" horiz-adv-x="405" 
d="M137 -121v910h142v-910h-142z" />
    <glyph glyph-name="braceright" unicode="}" horiz-adv-x="348" 
d="M152 335q-31 13 -42 37.5t-11 68.5v114q0 39 -11 62.5t-48 23.5h-20v113h16.5t23.5 0.5t26 0.5h22q71 0 106.5 -42t35.5 -120v-122q0 -25 2 -42.5t8.5 -28t18 -15t30.5 -4.5h8v-102h-8q-34 0 -46.5 -19.5t-12.5 -70.5v-110q0 -35 -5.5 -66t-22 -55t-48.5 -38t-84 -14h-70
v113h21q37 0 47.5 23.5t10.5 62.5v114q0 44 10.5 68.5t42.5 37.5v10z" />
    <glyph glyph-name="asciitilde" unicode="~" 
d="M494 355q-2 -32 -11 -62.5t-25.5 -53.5t-40.5 -37t-54 -14q-33 0 -61 10t-53 22.5t-47.5 22.5t-44.5 10q-23 0 -37.5 -10.5t-31.5 -36.5l-55 19q5 31 16 57.5t27.5 46.5t39 31.5t51.5 11.5q33 0 62.5 -9.5t55.5 -20.5t48.5 -20.5t43.5 -9.5q23 0 38 14t25 39z" />
    <glyph glyph-name="Adieresis" unicode="&#xc4;" horiz-adv-x="511" 
d="M308 0l-10 135h-78l-11 -135h-193l100 752h278l104 -752h-190zM255 614l-10 -150l-14 -195h55l-14 196l-10 149h-7zM285 783v139h136v-139h-136zM95 783v139h136v-139h-136z" />
    <glyph glyph-name="Eacute" unicode="&#xc9;" horiz-adv-x="391" 
d="M41 0v752h318v-140h-128v-146h120v-141h-120v-184h141v-141h-331zM70 854l171 135l84 -116l-198 -97z" />
    <glyph glyph-name="Odieresis" unicode="&#xd6;" horiz-adv-x="512" 
d="M477 202q0 -65 -20 -106.5t-51.5 -65t-70.5 -32.5t-78 -9q-63 0 -105.5 16.5t-68 47.5t-36.5 74t-11 97v321q0 19 2 43t10 48t22 47t39 40.5t61 28.5t87 11q49 0 90 -12t69.5 -38.5t44.5 -68t16 -99.5v-343zM286 580q0 9 -0.5 19t-3 18t-8.5 13.5t-17 5.5t-17 -5
t-9 -13.5t-3.5 -18t-0.5 -18.5v-404q0 -9 0.5 -19.5t3.5 -19t9.5 -14t17.5 -5.5q10 0 15.5 5.5t8.5 14t3.5 19t0.5 19.5v403zM283 783v139h136v-139h-136zM93 783v139h136v-139h-136z" />
    <glyph glyph-name="Udieresis" unicode="&#xdc;" horiz-adv-x="517" 
d="M479 753v-551q0 -65 -20 -106.5t-51.5 -65t-70.5 -32.5t-78 -9q-63 0 -105.5 16.5t-68 47.5t-36.5 74t-11 97v529h191v-576q0 -9 0.5 -19.5t3.5 -19t9.5 -14t17.5 -5.5q10 0 15.5 5.5t8.5 14t3.5 19t0.5 19.5v576h191zM284 783v139h136v-139h-136zM94 783v139h136v-139
h-136z" />
    <glyph glyph-name="agrave" unicode="&#xe0;" horiz-adv-x="484" 
d="M261 47q-18 -26 -43 -42t-59 -16q-60 0 -94.5 31t-34.5 89v92q0 34 7 57.5t22 41t39 31.5t59 30l77 35q15 7 21 20t6 25v33q0 23 -6.5 33.5t-23.5 10.5q-18 0 -23.5 -12.5t-5.5 -29.5v-70h-172v27q0 100 54.5 147.5t154.5 47.5q67 0 107 -16t62 -45t29 -69t7 -87v-411
h-166l-10 47h-7zM260 281q-28 -13 -43 -30t-15 -39v-59q0 -19 4 -37t27 -18q10 0 15.5 5.5t8 14.5t3 19t0.5 19v125zM261 650l-171 151l120 97l135 -186z" />
    <glyph glyph-name="acircumflex" unicode="&#xe2;" horiz-adv-x="484" 
d="M261 47q-18 -26 -43 -42t-59 -16q-60 0 -94.5 31t-34.5 89v92q0 34 7 57.5t22 41t39 31.5t59 30l77 35q15 7 21 20t6 25v33q0 23 -6.5 33.5t-23.5 10.5q-18 0 -23.5 -12.5t-5.5 -29.5v-70h-172v27q0 100 54.5 147.5t154.5 47.5q67 0 107 -16t62 -45t29 -69t7 -87v-411
h-166l-10 47h-7zM260 281q-28 -13 -43 -30t-15 -39v-59q0 -19 4 -37t27 -18q10 0 15.5 5.5t8 14.5t3 19t0.5 19v125zM241 744l-141 -107l-67 58l141 160h138l136 -160l-67 -58z" />
    <glyph glyph-name="adieresis" unicode="&#xe4;" horiz-adv-x="484" 
d="M261 47q-18 -26 -43 -42t-59 -16q-60 0 -94.5 31t-34.5 89v92q0 34 7 57.5t22 41t39 31.5t59 30l77 35q15 7 21 20t6 25v33q0 23 -6.5 33.5t-23.5 10.5q-18 0 -23.5 -12.5t-5.5 -29.5v-70h-172v27q0 100 54.5 147.5t154.5 47.5q67 0 107 -16t62 -45t29 -69t7 -87v-411
h-166l-10 47h-7zM260 281q-28 -13 -43 -30t-15 -39v-59q0 -19 4 -37t27 -18q10 0 15.5 5.5t8 14.5t3 19t0.5 19v125zM262 676v139h136v-139h-136zM72 676v139h136v-139h-136z" />
    <glyph glyph-name="dieresis" unicode="&#xa8;" horiz-adv-x="473" 
d="M268 676v139h136v-139h-136zM78 676v139h136v-139h-136z" />
    <glyph glyph-name="ccedilla" unicode="&#xe7;" horiz-adv-x="464" 
d="M441 254v-45q0 -103 -44 -159t-144 -60l-15 -33h8q36 0 61 -19.5t25 -54.5q0 -23 -9.5 -39t-25.5 -27t-36 -16t-42 -5q-28 0 -53.5 7t-50.5 18l20 55q23 -8 40.5 -11t34.5 -3q12 0 18.5 6t6.5 15q0 12 -9 17.5t-21 5.5q-5 0 -10.5 -1t-15.5 -6l-23 23l33 72
q-49 6 -80 25.5t-48.5 47.5t-24 63.5t-6.5 73.5v204q0 219 209 219q48 0 86 -11t63.5 -36.5t39 -67t13.5 -102.5v-26h-173v80q0 17 -4.5 34.5t-23.5 17.5q-10 0 -16 -5t-9 -12.5t-3.5 -17t-0.5 -17.5v-316q0 -18 4.5 -33.5t24.5 -15.5q19 0 23.5 15.5t4.5 33.5v106h173z" />
    <glyph glyph-name="eacute" unicode="&#xe9;" horiz-adv-x="480" 
d="M268 409v55q0 17 -4.5 34.5t-23.5 17.5q-10 0 -16 -5t-9 -12.5t-3.5 -17t-0.5 -17.5v-55h57zM211 301v-153q0 -18 4.5 -33.5t24.5 -15.5q19 0 23.5 15.5t4.5 33.5v109h181v-48q0 -107 -53 -163t-157 -56q-65 0 -105.5 17.5t-63.5 47t-31.5 68t-8.5 81.5v204
q0 219 209 219q45 0 83.5 -11t66.5 -36.5t44 -67t16 -102.5v-109h-238zM147 709l132 184l126 -94l-174 -152z" />
    <glyph glyph-name="egrave" unicode="&#xe8;" horiz-adv-x="480" 
d="M268 409v55q0 17 -4.5 34.5t-23.5 17.5q-10 0 -16 -5t-9 -12.5t-3.5 -17t-0.5 -17.5v-55h57zM211 301v-153q0 -18 4.5 -33.5t24.5 -15.5q19 0 23.5 15.5t4.5 33.5v109h181v-48q0 -107 -53 -163t-157 -56q-65 0 -105.5 17.5t-63.5 47t-31.5 68t-8.5 81.5v204
q0 219 209 219q45 0 83.5 -11t66.5 -36.5t44 -67t16 -102.5v-109h-238zM251 650l-171 151l120 97l135 -186z" />
    <glyph glyph-name="ecircumflex" unicode="&#xea;" horiz-adv-x="480" 
d="M268 409v55q0 17 -4.5 34.5t-23.5 17.5q-10 0 -16 -5t-9 -12.5t-3.5 -17t-0.5 -17.5v-55h57zM211 301v-153q0 -18 4.5 -33.5t24.5 -15.5q19 0 23.5 15.5t4.5 33.5v109h181v-48q0 -107 -53 -163t-157 -56q-65 0 -105.5 17.5t-63.5 47t-31.5 68t-8.5 81.5v204
q0 219 209 219q45 0 83.5 -11t66.5 -36.5t44 -67t16 -102.5v-109h-238zM239 744l-141 -107l-67 58l141 160h138l136 -160l-67 -58z" />
    <glyph glyph-name="edieresis" unicode="&#xeb;" horiz-adv-x="480" 
d="M268 409v55q0 17 -4.5 34.5t-23.5 17.5q-10 0 -16 -5t-9 -12.5t-3.5 -17t-0.5 -17.5v-55h57zM211 301v-153q0 -18 4.5 -33.5t24.5 -15.5q19 0 23.5 15.5t4.5 33.5v109h181v-48q0 -107 -53 -163t-157 -56q-65 0 -105.5 17.5t-63.5 47t-31.5 68t-8.5 81.5v204
q0 219 209 219q45 0 83.5 -11t66.5 -36.5t44 -67t16 -102.5v-109h-238zM270 676v139h136v-139h-136zM80 676v139h136v-139h-136z" />
    <glyph glyph-name="sterling" unicode="&#xa3;" 
d="M39 396h47q-15 42 -29 84t-14 79q0 95 56.5 149t160.5 54q115 0 173 -54.5t58 -160.5v-44h-189v72q0 39 -34 39q-12 0 -23 -10t-11 -39q0 -19 5.5 -36.5t14 -37t17.5 -42.5t15 -53h123v-102h-106q1 -5 1 -9.5v-9.5q0 -9 -1.5 -22.5t-5.5 -29.5t-12 -32t-21 -31h225v-160
h-455v137q39 26 59 64.5t20 77.5q0 10 -1 15h-73v102z" />
    <glyph glyph-name="trademark" unicode="&#x2122;" horiz-adv-x="591" 
d="M170 664v-297h-94v297h-57v83h208v-83h-57zM414 555l16 106l15 86h125v-380h-94l2 193h-2l-17 -92l-10 -47h-72l-11 50l-16 84h-2v-188h-93v380h118l19 -87l20 -105h2z" />
    <glyph glyph-name="icircumflex" unicode="&#xee;" horiz-adv-x="259" 
d="M36 0v617h188v-617h-188zM136 744l-141 -107l-67 58l141 160h138l136 -160l-67 -58z" />
    <glyph glyph-name="idieresis" unicode="&#xef;" horiz-adv-x="259" 
d="M36 0v617h188v-617h-188zM157 676v139h136v-139h-136zM-33 676v139h136v-139h-136z" />
    <glyph glyph-name="bullet" unicode="&#x2022;" horiz-adv-x="328" 
d="M298 306q0 -29 -10 -55t-28 -45t-42.5 -30t-53.5 -11q-28 0 -52.5 10.5t-42.5 29.5t-28.5 43.5t-10.5 53.5q0 28 10.5 53t28.5 44t42.5 29.5t52.5 10.5q27 0 51.5 -10t42.5 -28t29 -42.5t11 -52.5z" />
    <glyph glyph-name="perthousand" unicode="&#x2030;" horiz-adv-x="1137" 
d="M771 126q0 -40 -12.5 -65.5t-33 -40.5t-46.5 -20.5t-52 -5.5q-42 0 -70.5 10.5t-45 29.5t-23.5 45.5t-7 59.5v178q0 17 4 41t18.5 45.5t43.5 37t80 15.5q67 0 105 -33.5t38 -105.5zM643 349q0 9 -2.5 18t-13.5 9t-13.5 -9t-2.5 -18v-246q0 -10 3 -19.5t14 -9.5
q10 0 12.5 9.5t2.5 19.5v246zM318 429q0 -40 -12.5 -65.5t-33 -40.5t-46.5 -20.5t-52 -5.5q-42 0 -70.5 10.5t-45 29.5t-23.5 45.5t-7 59.5v178q0 17 4 41t18.5 45.5t43.5 37t80 15.5q67 0 105 -33.5t38 -105.5zM190 652q0 9 -2.5 18t-13.5 9t-13.5 -9t-2.5 -18v-246
q0 -10 3 -19.5t14 -9.5q10 0 12.5 9.5t2.5 19.5v246zM273 -29h-108l361 811h106zM1108 126q0 -40 -12.5 -65.5t-33 -40.5t-46.5 -20.5t-52 -5.5q-42 0 -70.5 10.5t-45 29.5t-23.5 45.5t-7 59.5v178q0 17 4 41t18.5 45.5t43.5 37t80 15.5q67 0 105 -33.5t38 -105.5zM980 349
q0 9 -2.5 18t-13.5 9t-13.5 -9t-2.5 -18v-246q0 -10 3 -19.5t14 -9.5q10 0 12.5 9.5t2.5 19.5v246z" />
    <glyph glyph-name="ocircumflex" unicode="&#xf4;" horiz-adv-x="480" 
d="M449 209q0 -107 -53 -163t-157 -56q-65 0 -105.5 17.5t-63.5 47t-31.5 68t-8.5 81.5v204q0 219 209 219q45 0 83.5 -11t66.5 -36.5t44 -67t16 -102.5v-201zM268 464q0 17 -4.5 34.5t-23.5 17.5q-10 0 -16 -5t-9 -12.5t-3.5 -17t-0.5 -17.5v-316q0 -18 4.5 -33.5
t24.5 -15.5q19 0 23.5 15.5t4.5 33.5v316zM241 744l-141 -107l-67 58l141 160h138l136 -160l-67 -58z" />
    <glyph glyph-name="odieresis" unicode="&#xf6;" horiz-adv-x="480" 
d="M449 209q0 -107 -53 -163t-157 -56q-65 0 -105.5 17.5t-63.5 47t-31.5 68t-8.5 81.5v204q0 219 209 219q45 0 83.5 -11t66.5 -36.5t44 -67t16 -102.5v-201zM268 464q0 17 -4.5 34.5t-23.5 17.5q-10 0 -16 -5t-9 -12.5t-3.5 -17t-0.5 -17.5v-316q0 -18 4.5 -33.5
t24.5 -15.5q19 0 23.5 15.5t4.5 33.5v316zM269 676v139h136v-139h-136zM79 676v139h136v-139h-136z" />
    <glyph glyph-name="ugrave" unicode="&#xf9;" horiz-adv-x="490" 
d="M270 51q-39 -62 -112 -62q-45 0 -70 17t-37 44.5t-14.5 62t-2.5 69.5v435h183v-456q0 -9 1 -18.5t3.5 -17.5t8 -13t14.5 -5t15 5t9 13t4.5 17.5t1.5 17.5v457h182v-617h-170l-12 50zM261 650l-171 151l120 97l135 -186z" />
    <glyph glyph-name="ucircumflex" unicode="&#xfb;" horiz-adv-x="490" 
d="M270 51q-39 -62 -112 -62q-45 0 -70 17t-37 44.5t-14.5 62t-2.5 69.5v435h183v-456q0 -9 1 -18.5t3.5 -17.5t8 -13t14.5 -5t15 5t9 13t4.5 17.5t1.5 17.5v457h182v-617h-170l-12 50zM246 744l-141 -107l-67 58l141 160h138l136 -160l-67 -58z" />
    <glyph glyph-name="udieresis" unicode="&#xfc;" horiz-adv-x="490" 
d="M270 51q-39 -62 -112 -62q-45 0 -70 17t-37 44.5t-14.5 62t-2.5 69.5v435h183v-456q0 -9 1 -18.5t3.5 -17.5t8 -13t14.5 -5t15 5t9 13t4.5 17.5t1.5 17.5v457h182v-617h-170l-12 50zM272 676v139h136v-139h-136zM82 676v139h136v-139h-136z" />
    <glyph glyph-name="dagger" unicode="&#x2020;" horiz-adv-x="509" 
d="M356 403v-491h-202v491h-135v171h135v189h202v-188h138v-172h-138z" />
    <glyph glyph-name="germandbls" unicode="&#xdf;" horiz-adv-x="487" 
d="M388 436q70 -25 70 -124v-171q0 -42 -12.5 -71t-34 -47t-51 -26t-62.5 -8h-50v115h9q15 0 20.5 10.5t5.5 24.5v183q0 30 -7.5 44t-31.5 14v109h3q19 0 24.5 11t5.5 38v99q0 16 -9 26t-21 10q-15 0 -24.5 -12t-9.5 -31v-630h-176v577q0 39 12.5 76t38 65t65.5 45t96 17
q59 0 97.5 -19t60.5 -45.5t30.5 -55.5t8.5 -48v-72q0 -35 -17.5 -61.5t-40.5 -37.5v-5z" />
    <glyph glyph-name="registered" unicode="&#xae;" horiz-adv-x="610" 
d="M38 495q0 57 21 106.5t57.5 86t86 57.5t105.5 21q57 0 106 -21t86 -57.5t58 -86t21 -106.5q0 -56 -21 -105t-58 -85.5t-86 -57.5t-106 -21q-56 0 -105.5 21t-86 57.5t-57.5 85.5t-21 105zM112 495q0 -41 15.5 -78t42 -64.5t62 -44t76.5 -16.5t77 16.5t62.5 44t42 64.5
t15.5 78q0 42 -15.5 78.5t-42 64.5t-62.5 44t-77 16t-76.5 -16t-62 -44t-42 -64.5t-15.5 -78.5zM381 508q20 -8 26.5 -20.5t6.5 -34.5v-74q0 -11 1 -19t6 -16h-80q-4 7 -5 16.5t-1 20.5v55q0 23 -7 33t-24 11v-136h-86v316h114q37 0 59.5 -18t22.5 -67q0 -32 -9.5 -45.5
t-23.5 -20.5v-1zM304 536q20 1 25.5 7t5.5 26q0 15 -5 21.5t-26 6.5v-61z" />
    <glyph glyph-name="copyright" unicode="&#xa9;" horiz-adv-x="826" 
d="M122 375q0 -60 20.5 -114t58 -95.5t91 -65.5t120.5 -24t121 24t91.5 65.5t58 95.5t20.5 114t-20.5 114t-58.5 94.5t-91.5 64.5t-120.5 24q-65 0 -118.5 -24t-91.5 -64.5t-59 -94.5t-21 -114zM27 375q0 80 30.5 150t82.5 122.5t122 83t150 30.5t150 -30.5t122.5 -83
t83 -122.5t30.5 -150t-30.5 -150t-83 -122t-122.5 -82.5t-150 -30.5t-150 30.5t-122 82.5t-82.5 122t-30.5 150zM551 327v-71q0 -41 -12.5 -67.5t-33.5 -41.5t-47 -20.5t-53 -5.5q-40 0 -67 10.5t-43 30t-23 47t-7 61.5v204q0 19 3.5 43t18 45.5t42.5 36t76 14.5
q68 0 107 -32t39 -107v-49h-121v72q0 11 -3.5 23t-17.5 12t-18 -11.5t-4 -22.5v-257q0 -12 3.5 -25t18.5 -13q13 0 17 13t4 25v86h121z" />
    <glyph glyph-name="section" unicode="&#xa7;" horiz-adv-x="442" 
d="M404 318q0 -42 -14 -67.5t-41 -41.5q27 -20 35 -45.5t8 -67.5q0 -88 -46 -128t-123 -40q-57 0 -91 15.5t-52.5 40t-24.5 55t-6 61.5v13h150v-32q0 -6 0.5 -13.5t2.5 -14t6 -11t12 -4.5q12 0 16 11.5t4 25.5q0 35 -22.5 57t-62.5 42q-30 15 -52.5 28.5t-36.5 30.5
t-21 38.5t-7 51.5v44q0 41 13.5 71t46.5 47q-25 17 -36 41t-11 68q0 87 45.5 127t122.5 40q57 0 91 -15.5t52 -40t24 -55t6 -60.5v-16h-149v34q0 6 -0.5 13.5t-2.5 14t-6 11t-12 4.5q-12 0 -16 -11.5t-4 -25.5q0 -35 23.5 -56t63.5 -41q30 -15 51 -29.5t34.5 -32t20.5 -39.5
t9 -52v-46zM224 286q8 0 14 7.5t6 17.5v66q0 7 -5.5 15t-19.5 8q-8 0 -16 -7.5t-8 -15.5v-62q0 -11 7.5 -20t21.5 -9z" />
    <glyph glyph-name="degree" unicode="&#xb0;" horiz-adv-x="357" 
d="M329 614q0 -30 -11.5 -56.5t-31.5 -47t-47 -32t-58 -11.5q-30 0 -57 11.5t-46.5 31.5t-31 46.5t-11.5 57.5t11.5 57.5t31.5 46.5t47 31.5t57 11.5t56.5 -11.5t47 -31.5t32 -46.5t11.5 -57.5zM251 615q0 29 -20 49t-49 20t-49.5 -20t-20.5 -49t19 -49.5t51 -20.5
q29 0 49 20.5t20 49.5z" />
    <glyph glyph-name="periodcentered" unicode="&#xb7;" horiz-adv-x="218" 
d="M31 219v171h154v-171h-154z" />
    <glyph glyph-name="plusminus" unicode="&#xb1;" 
d="M41 0v114h437v-114h-437zM314 292v-147h-110v147h-163v113h163v147h110v-147h164v-113h-164z" />
    <glyph glyph-name="yen" unicode="&#xa5;" 
d="M383 400h83v-79h-106l-14 -49v-1h120v-79h-120v-192h-177v192h-115v79h115v1l-13 49h-102v79h80l-100 352h176l24 -157l20 -153h7l22 152l26 158h176z" />
    <glyph glyph-name="logicalnot" unicode="&#xac;" 
d="M479 91h-110v167h-327v113h437v-280z" />
    <glyph glyph-name="guillemotleft" unicode="&#xab;" horiz-adv-x="530" 
d="M131 10l-105 194l105 195h158l-103 -191l107 -198h-162zM348 10l-105 194l105 195h158l-103 -191l107 -198h-162z" />
    <glyph glyph-name="guillemotright" unicode="&#xbb;" horiz-adv-x="530" 
d="M238 10l107 198l-103 191h158l105 -195l-105 -194h-162zM21 10l107 198l-103 191h158l105 -195l-105 -194h-162z" />
    <glyph glyph-name="ellipsis" unicode="&#x2026;" horiz-adv-x="826" 
d="M70 0v171h154v-171h-154zM336 0v171h154v-171h-154zM603 0v171h154v-171h-154z" />
    <glyph glyph-name="oe" unicode="&#x153;" horiz-adv-x="723" 
d="M455 301v-153q0 -18 4.5 -33.5t24.5 -15.5q19 0 23.5 15.5t4.5 33.5v109h181v-48q0 -107 -53 -163t-157 -56q-81 0 -126 37q-46 -37 -118 -37q-65 0 -105.5 17.5t-63.5 47t-31.5 68t-8.5 81.5v204q0 219 209 219q35 0 65.5 -9t56.5 -29q23 20 54 29t68 9q45 0 83.5 -11
t66.5 -36.5t44 -67t16 -102.5v-109h-238zM268 464q0 17 -4.5 34.5t-23.5 17.5q-10 0 -16 -5t-9 -12.5t-3.5 -17t-0.5 -17.5v-316q0 -18 4.5 -33.5t24.5 -15.5q19 0 23.5 15.5t4.5 33.5v316zM512 409v55q0 17 -4.5 34.5t-23.5 17.5q-10 0 -16 -5t-9 -12.5t-3.5 -17
t-0.5 -17.5v-55h57z" />
    <glyph glyph-name="endash" unicode="&#x2013;" horiz-adv-x="500" 
d="M20 250v116h460v-116h-460z" />
    <glyph glyph-name="quotedblleft" unicode="&#x201c;" horiz-adv-x="355" 
d="M97 752h70l-34 -118h31v-143h-133v142zM260 752h70l-33 -118h31v-143h-133v142z" />
    <glyph glyph-name="quotedblright" unicode="&#x201d;" horiz-adv-x="355" 
d="M265 492h-70l34 118h-31v143h133v-142zM102 492h-70l33 118h-31v143h133v-142z" />
    <glyph glyph-name="quoteleft" unicode="&#x2018;" horiz-adv-x="252" 
d="M124 752h70l-34 -118h31v-143h-133v142z" />
    <glyph glyph-name="quoteright" unicode="&#x2019;" horiz-adv-x="252" 
d="M128 492h-70l34 118h-31v143h133v-142z" />
    <glyph glyph-name="divide" unicode="&#xf7;" 
d="M345 487q0 -32 -23 -55t-57 -23t-56.5 22.5t-22.5 55.5q0 34 23 56.5t57 22.5q32 0 55.5 -22.5t23.5 -56.5zM345 139q0 -32 -22.5 -55.5t-56.5 -23.5t-57 22.5t-23 56.5q0 33 23 56t57 23q32 0 55.5 -23t23.5 -56zM47 257v114h437v-114h-437z" />
    <glyph glyph-name="mu" unicode="&#xb5;" horiz-adv-x="490" 
d="M288 0l-15 56q-21 -37 -55 -54v-138h-184v753h183v-474q0 -17 5 -29.5t22 -12.5q19 0 24.5 12t5.5 29v475h182v-617h-168z" />
    <glyph glyph-name="mu" unicode="&#x3bc;" horiz-adv-x="490" 
d="M288 0l-15 56q-21 -37 -55 -54v-138h-184v753h183v-474q0 -17 5 -29.5t22 -12.5q19 0 24.5 12t5.5 29v475h182v-617h-168z" />
    <glyph glyph-name="pi" unicode="&#x3c0;" horiz-adv-x="491" 
d="M275 0v501h-57v-501h-182v617h422v-617h-183z" />
    <glyph glyph-name="dieresistonos" unicode="&#x385;" horiz-adv-x="580" 
d="M384 666v139h136v-139h-136zM69 666v139h136v-139h-136zM220 657l18 225l157 -16l-71 -221z" />
    <glyph glyph-name="tonos" unicode="&#x384;" horiz-adv-x="480" 
d="M147 709l132 184l126 -94l-174 -152z" />
    <glyph glyph-name="sfthyphen" unicode="&#xad;" horiz-adv-x="278" 
d="M19 243v130h241v-130h-241z" />
    <glyph glyph-name="Gamma" unicode="&#x393;" horiz-adv-x="374" 
d="M232 612v-612h-191v752h323v-140h-132z" />
    <glyph glyph-name="Delta" unicode="&#x394;" horiz-adv-x="511" 
d="M16 0l101 752h277l104 -752h-482zM255 604l-10 -133l-27 -329h81l-27 330l-10 132h-7z" />
    <glyph glyph-name="Delta" unicode="&#x2206;" horiz-adv-x="511" 
d="M16 0l101 752h277l104 -752h-482zM255 604l-10 -133l-27 -329h81l-27 330l-10 132h-7z" />
    <glyph glyph-name="Theta" unicode="&#x398;" horiz-adv-x="512" 
d="M477 202q0 -65 -20 -106.5t-51.5 -65t-70.5 -32.5t-78 -9q-63 0 -105.5 16.5t-68 47.5t-36.5 74t-11 97v321q0 19 2 43t10 48t22 47t39 40.5t61 28.5t87 11q49 0 90 -12t69.5 -38.5t44.5 -68t16 -99.5v-343zM286 324h-59v-147q0 -9 0.5 -19.5t3.5 -19t9.5 -14t17.5 -5.5
q10 0 15.5 5.5t8.5 14t3.5 19t0.5 19.5v147zM227 466h59v114q0 9 -0.5 19t-3 18t-8.5 13.5t-17 5.5t-17 -5t-9 -13.5t-3.5 -18t-0.5 -18.5v-115z" />
    <glyph glyph-name="Lambda" unicode="&#x39b;" horiz-adv-x="511" 
d="M272 465l-10 149h-7l-10 -150l-36 -464h-193l100 752h278l104 -752h-190z" />
    <glyph glyph-name="Xi" unicode="&#x39e;" horiz-adv-x="429" 
d="M18 0v142h109v183h-84v141h84v147h-109v139h390v-139h-111v-147h85v-141h-85v-183h111v-142h-390z" />
    <glyph glyph-name="Pi" unicode="&#x3a0;" 
d="M289 0v613h-57v-613h-191v752h439v-752h-191z" />
    <glyph glyph-name="Sigma" unicode="&#x3a3;" horiz-adv-x="373" 
d="M291 394l-77 -252h147v-142h-352v121l84 270l-70 229v129h334v-140h-134z" />
    <glyph glyph-name="Iotadieresis" unicode="&#x3aa;" horiz-adv-x="272" 
d="M41 0v752h190v-752h-190zM165 783v139h136v-139h-136zM-25 783v139h136v-139h-136z" />
    <glyph glyph-name="Alpha" unicode="&#x391;" horiz-adv-x="511" 
d="M308 0l-10 135h-78l-11 -135h-193l100 752h278l104 -752h-190zM255 614l-10 -150l-14 -195h55l-14 196l-10 149h-7z" />
    <glyph glyph-name="Beta" unicode="&#x392;" horiz-adv-x="518" 
d="M485 202q-2 -96 -59.5 -149t-165.5 -53h-219v752h217q55 0 95.5 -9t66.5 -31t39 -58.5t13 -91.5q0 -65 -26.5 -100.5t-70.5 -48.5v-3q36 -9 57.5 -27t33.5 -40.5t16 -46.5t4 -45zM232 461q37 1 50 19.5t13 61.5q0 19 -1.5 33t-8 24t-19 15t-34.5 5v-158zM295 264
q0 38 -15.5 53t-47.5 17v-201q35 2 49 17.5t14 57.5v56z" />
    <glyph glyph-name="Epsilon" unicode="&#x395;" horiz-adv-x="391" 
d="M41 0v752h318v-140h-128v-146h120v-141h-120v-184h141v-141h-331z" />
    <glyph glyph-name="Zeta" unicode="&#x396;" horiz-adv-x="385" 
d="M15 0v121l152 491h-134v140h334v-129l-147 -481h147v-142h-352z" />
    <glyph glyph-name="Eta" unicode="&#x397;" horiz-adv-x="531" 
d="M299 0v325h-67v-325h-191v752h191v-286h67v286h191v-752h-191z" />
    <glyph glyph-name="Iota" unicode="&#x399;" horiz-adv-x="272" 
d="M41 0v752h190v-752h-190z" />
    <glyph glyph-name="Kappa" unicode="&#x39a;" horiz-adv-x="513" 
d="M238 478l73 274h188l-114 -339l121 -413h-197l-73 304h-4v-304h-191v752h191v-274h6z" />
    <glyph glyph-name="Mu" unicode="&#x39c;" horiz-adv-x="684" 
d="M347 355l34 217l30 180h231v-752h-174v378h-5l-30 -138l-34 -131h-113l-37 134l-31 129h-5v-372h-179v752h220l39 -176l46 -221h8z" />
    <glyph glyph-name="Phi" unicode="&#x3a6;" horiz-adv-x="746" 
d="M469 0h-189v66q-75 3 -123.5 21t-76.5 49t-39 73.5t-11 94.5v156q0 59 10 106t37 80t76 53t127 25v28h189v-28q78 -5 127 -25t76 -53t37 -80t10 -106v-156q0 -50 -11 -92t-39 -73.5t-76.5 -50.5t-123.5 -22v-66zM531 516q0 33 -12 54.5t-50 21.5v-391q19 0 31 7.5t19 20
t9.5 28.5t2.5 32v227zM280 592q-37 0 -49 -21.5t-12 -54.5v-227q0 -16 2.5 -32t9 -28.5t18.5 -20t31 -7.5v391z" />
    <glyph glyph-name="Upsilondieresis" unicode="&#x3ab;" horiz-adv-x="469" 
d="M319 272v-272h-177v272l-135 480h179l23 -152l22 -168h4l25 170l25 150h173zM259 783v139h136v-139h-136zM69 783v139h136v-139h-136z" />
    <glyph glyph-name="Psi" unicode="&#x3a8;" horiz-adv-x="746" 
d="M469 281q38 6 49.5 31t11.5 57v383h189v-300q0 -63 -4 -116.5t-28 -93.5t-74.5 -64t-143.5 -28v-150h-189v150q-93 5 -143.5 29t-74 63.5t-28 93t-4.5 116.5v300h189v-383q0 -16 2 -31.5t8.5 -27.5t18.5 -20t32 -9v471h189v-471z" />
    <glyph glyph-name="Omega" unicode="&#x3a9;" horiz-adv-x="512" 
d="M443 142h54v-142h-227v152q14 5 17.5 21.5t3.5 33.5v373q0 9 -1 19t-5 18t-10.5 13.5t-17.5 5.5t-17.5 -5t-10.5 -13.5t-5 -18t-1 -18.5v-374q0 -15 3 -31.5t16 -23.5v-152h-224v142h54v6q-12 10 -20 26t-12.5 35t-6 40t-1.5 42v254q0 29 6.5 66.5t29.5 71.5t67.5 57
t121.5 23q49 0 90.5 -12t71.5 -38.5t46.5 -68t16.5 -99.5v-276q0 -41 -8.5 -72.5t-30.5 -48.5v-6z" />
    <glyph glyph-name="alphatonos" unicode="&#x3ac;" horiz-adv-x="486" 
d="M273 574l10 43h170v-617h-172l-11 44h-5q-21 -24 -43.5 -39.5t-57.5 -15.5q-43 0 -69 16t-40 43t-18.5 61t-4.5 70v291q0 33 6 61.5t21 50t40 34t63 12.5q36 0 60.5 -14.5t46.5 -39.5h4zM215 166q0 -9 0.5 -19t3 -18t7.5 -13.5t15 -5.5t15.5 5t8.5 13t4 17.5t1 18.5v295
q0 17 -5.5 33.5t-23.5 16.5t-22 -17t-4 -33v-293zM147 709l132 184l126 -94l-174 -152z" />
    <glyph glyph-name="Nu" unicode="&#x39d;" horiz-adv-x="538" 
d="M323 400v352h174v-752h-182l-54 198l-39 158h-6v-356h-175v752h175l56 -189l45 -163h6z" />
    <glyph glyph-name="Omicron" unicode="&#x39f;" horiz-adv-x="512" 
d="M477 202q0 -65 -20 -106.5t-51.5 -65t-70.5 -32.5t-78 -9q-63 0 -105.5 16.5t-68 47.5t-36.5 74t-11 97v321q0 19 2 43t10 48t22 47t39 40.5t61 28.5t87 11q49 0 90 -12t69.5 -38.5t44.5 -68t16 -99.5v-343zM286 580q0 9 -0.5 19t-3 18t-8.5 13.5t-17 5.5t-17 -5
t-9 -13.5t-3.5 -18t-0.5 -18.5v-404q0 -9 0.5 -19.5t3.5 -19t9.5 -14t17.5 -5.5q10 0 15.5 5.5t8.5 14t3.5 19t0.5 19.5v403z" />
    <glyph glyph-name="Rho" unicode="&#x3a1;" horiz-adv-x="486" 
d="M471 542q0 -62 -13.5 -105t-40.5 -69.5t-67 -38.5t-92 -12h-27v-317h-190v752h213q117 0 167 -51.5t50 -158.5zM231 446h11q30 0 42.5 22.5t12.5 69.5q0 50 -14.5 67.5t-42.5 17.5h-9v-177z" />
    <glyph glyph-name="Tau" unicode="&#x3a4;" horiz-adv-x="443" 
d="M316 612v-612h-191v612h-113v140h417v-140h-113z" />
    <glyph glyph-name="Upsilon" unicode="&#x3a5;" horiz-adv-x="469" 
d="M319 272v-272h-177v272l-135 480h179l23 -152l22 -168h4l25 170l25 150h173z" />
    <glyph glyph-name="Chi" unicode="&#x3a7;" horiz-adv-x="482" 
d="M235 254l-32 -254h-197l97 393l-86 359h200l23 -219h6l24 219h194l-89 -359l98 -393h-199l-33 254h-6z" />
    <glyph glyph-name="Alphatonos" unicode="&#x386;" horiz-adv-x="511" 
d="M308 0l-10 135h-78l-11 -135h-193l100 752h278l104 -752h-190zM255 614l-10 -150l-14 -195h55l-14 196l-10 149h-7zM-182 609l132 184l126 -94l-174 -152z" />
    <glyph glyph-name="Epsilontonos" unicode="&#x388;" horiz-adv-x="391" 
d="M41 0v752h318v-140h-128v-146h120v-141h-120v-184h141v-141h-331zM-232 609l132 184l126 -94l-174 -152z" />
    <glyph glyph-name="afii00208" unicode="&#x2015;" horiz-adv-x="1000" 
d="M20 250v116h960v-116h-960z" />
    <glyph glyph-name="Etatonos" unicode="&#x389;" horiz-adv-x="531" 
d="M299 0v325h-67v-325h-191v752h191v-286h67v286h191v-752h-191zM-230 609l132 184l126 -94l-174 -152z" />
    <glyph glyph-name="Iotatonos" unicode="&#x38a;" horiz-adv-x="272" 
d="M41 0v752h190v-752h-190zM-228 609l132 184l126 -94l-174 -152z" />
    <glyph glyph-name="Omicrontonos" unicode="&#x38c;" horiz-adv-x="512" 
d="M477 202q0 -65 -20 -106.5t-51.5 -65t-70.5 -32.5t-78 -9q-63 0 -105.5 16.5t-68 47.5t-36.5 74t-11 97v321q0 19 2 43t10 48t22 47t39 40.5t61 28.5t87 11q49 0 90 -12t69.5 -38.5t44.5 -68t16 -99.5v-343zM286 580q0 9 -0.5 19t-3 18t-8.5 13.5t-17 5.5t-17 -5
t-9 -13.5t-3.5 -18t-0.5 -18.5v-404q0 -9 0.5 -19.5t3.5 -19t9.5 -14t17.5 -5.5q10 0 15.5 5.5t8.5 14t3.5 19t0.5 19.5v403zM-211 609l132 184l126 -94l-174 -152z" />
    <glyph glyph-name="Upsilontonos" unicode="&#x38e;" horiz-adv-x="469" 
d="M319 272v-272h-177v272l-135 480h179l23 -152l22 -168h4l25 170l25 150h173zM-249 609l132 184l126 -94l-174 -152z" />
    <glyph glyph-name="epsilontonos" unicode="&#x3ad;" horiz-adv-x="447" 
d="M261 421v56q0 12 -6 26.5t-24 14.5q-17 0 -21 -15t-4 -26v-47q0 -23 9 -30.5t32 -7.5h53v-109h-53q-14 0 -22 -3t-12 -9.5t-5 -16t-1 -22.5v-96q0 -13 7.5 -25.5t23.5 -12.5q20 0 26.5 12t6.5 26v119h161v-71q0 -47 -10 -83t-34 -60.5t-63 -37t-97 -12.5
q-106 0 -154 48.5t-48 147.5v26q0 20 1.5 40.5t7 39t17 33.5t32.5 25q-33 21 -43 47t-10 67q0 81 57 122t152 41q42 0 78 -11.5t61.5 -33.5t40 -53.5t14.5 -71.5v-37h-173zM147 709l132 184l126 -94l-174 -152z" />
    <glyph glyph-name="etatonos" unicode="&#x3ae;" horiz-adv-x="491" 
d="M222 566q39 62 112 62q45 0 70 -17t37 -44.5t14.5 -62t2.5 -69.5v-435h-183v456q0 9 -1 18.5t-3.5 17.5t-8 13t-14.5 5t-15 -5t-9 -13t-4.5 -17.5t-1.5 -17.5v-457h-182v617h170l12 -50zM135 709l132 184l126 -94l-174 -152z" />
    <glyph glyph-name="iotatonos" unicode="&#x3af;" horiz-adv-x="259" 
d="M36 0v617h188v-617h-188zM39 709l132 184l126 -94l-174 -152z" />
    <glyph glyph-name="omicrontonos" unicode="&#x3cc;" horiz-adv-x="480" 
d="M449 209q0 -107 -53 -163t-157 -56q-65 0 -105.5 17.5t-63.5 47t-31.5 68t-8.5 81.5v204q0 219 209 219q45 0 83.5 -11t66.5 -36.5t44 -67t16 -102.5v-201zM268 464q0 17 -4.5 34.5t-23.5 17.5q-10 0 -16 -5t-9 -12.5t-3.5 -17t-0.5 -17.5v-316q0 -18 4.5 -33.5
t24.5 -15.5q19 0 23.5 15.5t4.5 33.5v316zM147 709l132 184l126 -94l-174 -152z" />
    <glyph glyph-name="Omegatonos" unicode="&#x38f;" horiz-adv-x="512" 
d="M443 142h54v-142h-227v152q14 5 17.5 21.5t3.5 33.5v373q0 9 -1 19t-5 18t-10.5 13.5t-17.5 5.5t-17.5 -5t-10.5 -13.5t-5 -18t-1 -18.5v-374q0 -15 3 -31.5t16 -23.5v-152h-224v142h54v6q-12 10 -20 26t-12.5 35t-6 40t-1.5 42v254q0 29 6.5 66.5t29.5 71.5t67.5 57
t121.5 23q49 0 90.5 -12t71.5 -38.5t46.5 -68t16.5 -99.5v-276q0 -41 -8.5 -72.5t-30.5 -48.5v-6zM-209 609l132 184l126 -94l-174 -152z" />
    <glyph glyph-name="upsilontonos" unicode="&#x3cd;" horiz-adv-x="480" 
d="M449 617v-408q0 -107 -53 -163t-157 -56q-65 0 -105.5 17.5t-63.5 47t-31.5 68t-8.5 81.5v413h181v-469q0 -18 4.5 -33.5t24.5 -15.5q19 0 23.5 15.5t4.5 33.5v469h181zM147 709l132 184l126 -94l-174 -152z" />
    <glyph glyph-name="alpha" unicode="&#x3b1;" horiz-adv-x="486" 
d="M273 574l10 43h170v-617h-172l-11 44h-5q-21 -24 -43.5 -39.5t-57.5 -15.5q-43 0 -69 16t-40 43t-18.5 61t-4.5 70v291q0 33 6 61.5t21 50t40 34t63 12.5q36 0 60.5 -14.5t46.5 -39.5h4zM215 166q0 -9 0.5 -19t3 -18t7.5 -13.5t15 -5.5t15.5 5t8.5 13t4 17.5t1 18.5v295
q0 17 -5.5 33.5t-23.5 16.5t-22 -17t-4 -33v-293z" />
    <glyph glyph-name="beta" unicode="&#x3b2;" horiz-adv-x="487" 
d="M219 41v-177h-182v720q0 39 13 74.5t38.5 62.5t64.5 43t92 16q54 0 92.5 -14t62.5 -37.5t35 -55t11 -66.5v-68q0 -15 -5.5 -30t-14 -29t-19.5 -24.5t-23 -16.5v-2q74 -24 74 -125v-180q0 -38 -11 -65t-29 -44.5t-40 -26t-44 -8.5q-32 0 -61 12t-51 41h-3zM270 638
q0 16 -7.5 23t-15.5 7q-30 0 -30 -37v-142q20 0 36.5 10t16.5 39v100zM275 322q0 30 -15.5 44t-39.5 14v-210q0 -33 5.5 -53t22.5 -20q14 0 20.5 12.5t6.5 30.5v182z" />
    <glyph glyph-name="psi" unicode="&#x3c8;" horiz-adv-x="683" 
d="M664 290v-41t-0.5 -44.5t-3 -44.5t-7.5 -40q-9 -34 -31.5 -58.5t-52.5 -40.5t-65 -23.5t-69 -7.5h-3v-126h-183v126q-34 0 -69 7.5t-65 23.5t-53 40.5t-32 58.5q-5 18 -7 40t-3 44.5t-0.5 44.5t0.5 41v327h181v-434q0 -38 11.5 -61t35.5 -23h1v561h183v-561h4
q24 0 35.5 23t11.5 61v434h181v-327v0z" />
    <glyph glyph-name="delta" unicode="&#x3b4;" horiz-adv-x="479" 
d="M449 209q0 -107 -53 -163t-157 -56q-65 0 -105.5 17.5t-63.5 47t-31.5 68t-8.5 81.5v89q0 43 2.5 82.5t14.5 74t37 62.5t70 47l-79 76v137h330v-124h-132l103 -90q26 -23 41 -44t22 -44.5t8.5 -50t1.5 -59.5v-151zM268 406q0 17 -4 27.5t-18 23.5q-20 -6 -27.5 -20.5
t-7.5 -31.5v-257q0 -18 4.5 -33.5t24.5 -15.5q19 0 23.5 15.5t4.5 33.5v258z" />
    <glyph glyph-name="epsilon" unicode="&#x3b5;" horiz-adv-x="447" 
d="M261 421v56q0 12 -6 26.5t-24 14.5q-17 0 -21 -15t-4 -26v-47q0 -23 9 -30.5t32 -7.5h53v-109h-53q-14 0 -22 -3t-12 -9.5t-5 -16t-1 -22.5v-96q0 -13 7.5 -25.5t23.5 -12.5q20 0 26.5 12t6.5 26v119h161v-71q0 -47 -10 -83t-34 -60.5t-63 -37t-97 -12.5
q-106 0 -154 48.5t-48 147.5v26q0 20 1.5 40.5t7 39t17 33.5t32.5 25q-33 21 -43 47t-10 67q0 81 57 122t152 41q42 0 78 -11.5t61.5 -33.5t40 -53.5t14.5 -71.5v-37h-173z" />
    <glyph glyph-name="phi" unicode="&#x3c6;" horiz-adv-x="683" 
d="M458 627q206 0 206 -230v-169q0 -58 -11 -100.5t-37.5 -71t-71 -45t-112.5 -21.5v-126h-183v126q-62 4 -105 17.5t-71 40.5t-40.5 68t-12.5 100v156q0 48 6 92t27 77.5t61.5 54t110.5 22.5v-123q-14 -5 -19 -24t-5 -43v-245q0 -38 11.5 -61t35.5 -23h1v298q0 53 11 95.5
t35.5 72.5t64.5 46t98 16zM484 467q0 17 -4 33t-21 16q-16 0 -21.5 -14t-5.5 -31v-372h4q24 0 35.5 23t11.5 61z" />
    <glyph glyph-name="gamma" unicode="&#x3b3;" horiz-adv-x="406" 
d="M294 46v-182h-183v175l-114 578h164l22 -171l22 -199h4l21 198l20 172h164z" />
    <glyph glyph-name="eta" unicode="&#x3b7;" horiz-adv-x="491" 
d="M222 566q39 62 112 62q45 0 70 -17t37 -44.5t14.5 -62t2.5 -69.5v-435h-183v456q0 9 -1 18.5t-3.5 17.5t-8 13t-14.5 5t-15 -5t-9 -13t-4.5 -17.5t-1.5 -17.5v-457h-182v617h170l12 -50z" />
    <glyph glyph-name="iota" unicode="&#x3b9;" horiz-adv-x="259" 
d="M36 0v617h188v-617h-188z" />
    <glyph glyph-name="xi" unicode="&#x3be;" horiz-adv-x="455" 
d="M94 390q-35 12 -49.5 37t-14.5 54v121q0 37 12.5 69.5t37 56.5t62 38t87.5 14q58 0 97.5 -12.5t64 -37t35 -60t10.5 -80.5v-75h-171v114q0 16 -5 29t-24 13q-17 0 -22.5 -12.5t-5.5 -27.5v-113q0 -35 15.5 -47.5t42.5 -12.5h105v-128h-103q-58 0 -58 -64v-19
q0 -32 11 -48t27 -25l114 -66q38 -22 53.5 -50t15.5 -57q0 -23 -9 -48t-22 -45l-64 -102l-134 71l35 58q5 8 7 15t2 12q0 19 -18 29l-126 74q-40 24 -57 55.5t-17 87.5v49q0 41 12.5 74.5t53.5 53.5v5z" />
    <glyph glyph-name="kappa" unicode="&#x3ba;" horiz-adv-x="473" 
d="M226 444l54 173h188l-103 -249l102 -368h-185l-57 251h-6v-251h-183v617h183v-173h7z" />
    <glyph glyph-name="lambda" unicode="&#x3bb;" horiz-adv-x="473" 
d="M257 0v394q-28 -11 -42.5 -27t-14.5 -50v-317h-173v324q0 50 15.5 84.5t45 58t72.5 38t97 24.5v88q0 19 -4.5 36.5t-23.5 17.5t-24 -16t-5 -35v-60h-173v20q0 50 15 87.5t43 62.5t66.5 37.5t86.5 12.5q75 0 116 -20.5t60.5 -54.5t23 -77t3.5 -88v-540h-184z" />
    <glyph glyph-name="nu" unicode="&#x3bd;" horiz-adv-x="430" 
d="M337 0h-239l-93 617h164l28 -237l22 -210h5l15 209l20 238h163z" />
    <glyph glyph-name="omicron" unicode="&#x3bf;" horiz-adv-x="480" 
d="M449 209q0 -107 -53 -163t-157 -56q-65 0 -105.5 17.5t-63.5 47t-31.5 68t-8.5 81.5v204q0 219 209 219q45 0 83.5 -11t66.5 -36.5t44 -67t16 -102.5v-201zM268 464q0 17 -4.5 34.5t-23.5 17.5q-10 0 -16 -5t-9 -12.5t-3.5 -17t-0.5 -17.5v-316q0 -18 4.5 -33.5
t24.5 -15.5q19 0 23.5 15.5t4.5 33.5v316z" />
    <glyph glyph-name="omegatonos" unicode="&#x3ce;" horiz-adv-x="721" 
d="M447 461v-293q0 -6 1 -16t4.5 -19.5t9.5 -17t17 -7.5q20 0 28 15.5t8 33.5v295q0 17 -8 34.5t-28 17.5v123q210 0 210 -219v-204q0 -37 -7 -75t-27.5 -69t-58.5 -50.5t-100 -19.5h-1q-16 0 -34 3.5t-36 12t-34 23.5t-28 38h-5q-14 -24 -29.5 -39t-32.5 -23.5t-34.5 -11.5
t-33.5 -3h-1q-65 0 -103.5 19.5t-59 50.5t-26.5 69t-6 75v204q0 219 209 219v-123q-20 0 -27.5 -17.5t-7.5 -34.5v-295q0 -18 8 -33.5t28 -15.5q12 0 18.5 7.5t9.5 17t3.5 19.5t0.5 16v293h173zM268 709l132 184l126 -94l-174 -152z" />
    <glyph glyph-name="rho" unicode="&#x3c1;" horiz-adv-x="487" 
d="M36 408q0 219 210 219q45 0 83.5 -11t66.5 -36.5t44 -67t16 -102.5v-231q0 -36 -4.5 -70t-18 -61t-39.5 -43t-69 -16q-35 0 -57.5 12.5t-43.5 36.5l-5 -3v-171h-183v544zM274 464q0 17 -4 34.5t-23 17.5q-10 0 -16 -5t-9 -12.5t-3.5 -17t-0.5 -17.5v-300q0 -9 1 -18.5
t4 -17.5t9 -13t16 -5t15 5.5t7.5 13.5t3 18t0.5 19v298z" />
    <glyph glyph-name="sigma" unicode="&#x3c3;" horiz-adv-x="480" 
d="M411 499q22 -17 30 -46.5t8 -62.5v-181q0 -107 -53 -163t-157 -56q-65 0 -105.5 17.5t-63.5 47t-31.5 68t-8.5 81.5v193q0 108 50 164t151 56h246v-116h-65zM268 453q0 17 -4.5 34.5t-23.5 17.5q-10 0 -16 -5t-9 -12.5t-3.5 -17t-0.5 -17.5v-305q0 -18 4.5 -33.5
t24.5 -15.5q19 0 23.5 15.5t4.5 33.5v305z" />
    <glyph glyph-name="tau" unicode="&#x3c4;" horiz-adv-x="350" 
d="M266 501v-339q0 -45 9 -88t24 -74h-182q-5 9 -11.5 22t-11.5 32t-8.5 45.5t-3.5 62.5v339h-67v116h324v-116h-73z" />
    <glyph glyph-name="theta" unicode="&#x3b8;" horiz-adv-x="480" 
d="M449 209q0 -107 -53 -163t-157 -56q-65 0 -105.5 17.5t-63.5 47t-31.5 68t-8.5 81.5v355q0 219 209 219q45 0 83.5 -11t66.5 -36.5t44 -67t16 -102.5v-352zM268 346h-57v-198q0 -18 4.5 -33.5t24.5 -15.5q19 0 23.5 15.5t4.5 33.5v198zM211 451h57v164q0 17 -4.5 34.5
t-23.5 17.5q-10 0 -16 -5t-9 -12.5t-3.5 -17t-0.5 -17.5v-164z" />
    <glyph glyph-name="omega" unicode="&#x3c9;" horiz-adv-x="721" 
d="M447 461v-293q0 -6 1 -16t4.5 -19.5t9.5 -17t17 -7.5q20 0 28 15.5t8 33.5v295q0 17 -8 34.5t-28 17.5v123q210 0 210 -219v-204q0 -37 -7 -75t-27.5 -69t-58.5 -50.5t-100 -19.5h-1q-16 0 -34 3.5t-36 12t-34 23.5t-28 38h-5q-14 -24 -29.5 -39t-32.5 -23.5t-34.5 -11.5
t-33.5 -3h-1q-65 0 -103.5 19.5t-59 50.5t-26.5 69t-6 75v204q0 219 209 219v-123q-20 0 -27.5 -17.5t-7.5 -34.5v-295q0 -18 8 -33.5t28 -15.5q12 0 18.5 7.5t9.5 17t3.5 19.5t0.5 16v293h173z" />
    <glyph glyph-name="sigma1" unicode="&#x3c2;" horiz-adv-x="449" 
d="M232 516q-10 0 -16 -5t-9 -12.5t-3.5 -17t-0.5 -17.5v-196q0 -32 12.5 -47t27.5 -26l80 -57q36 -26 52.5 -52t16.5 -55q0 -23 -9 -47.5t-22 -45.5l-68 -112l-138 71l39 68q9 15 9 26q0 10 -5 17.5t-13 12.5l-96 68q-38 27 -52.5 62t-14.5 91v166q0 219 209 219
q50 0 87.5 -9.5t63 -32.5t38.5 -62.5t13 -100.5v-162h-173v204q0 17 -4.5 34.5t-23.5 17.5z" />
    <glyph glyph-name="chi" unicode="&#x3c7;" horiz-adv-x="449" 
d="M220 200l-21 -119l-17 -81h-176l84 322l-81 295h175l19 -94l18 -102h5l23 104l24 92h167l-88 -295l87 -322h-181l-15 80l-19 120h-4z" />
    <glyph glyph-name="upsilon" unicode="&#x3c5;" horiz-adv-x="480" 
d="M449 617v-408q0 -107 -53 -163t-157 -56q-65 0 -105.5 17.5t-63.5 47t-31.5 68t-8.5 81.5v413h181v-469q0 -18 4.5 -33.5t24.5 -15.5q19 0 23.5 15.5t4.5 33.5v469h181z" />
    <glyph glyph-name="zeta" unicode="&#x3b6;" horiz-adv-x="461" 
d="M223 482h-187v135h415v-138q-46 -29 -90.5 -64t-79.5 -69.5t-56.5 -66t-21.5 -54.5q0 -11 2.5 -20t10 -16.5t20.5 -14.5t34 -16l107 -45q32 -13 48 -31t19.5 -39.5t-4.5 -46t-25 -50.5l-80 -122l-126 65l42 71q8 14 7.5 26.5t-20.5 20.5l-100 42q-65 27 -91.5 62
t-26.5 80q0 34 11.5 67t36 67.5t63 71.5t93.5 81z" />
    <glyph glyph-name="iotadieresis" unicode="&#x3ca;" horiz-adv-x="259" 
d="M36 0v617h188v-617h-188zM156 676v139h136v-139h-136zM-34 676v139h136v-139h-136z" />
    <glyph glyph-name="upsilondieresis" unicode="&#x3cb;" horiz-adv-x="480" 
d="M449 617v-408q0 -107 -53 -163t-157 -56q-65 0 -105.5 17.5t-63.5 47t-31.5 68t-8.5 81.5v413h181v-469q0 -18 4.5 -33.5t24.5 -15.5q19 0 23.5 15.5t4.5 33.5v469h181zM268 676v139h136v-139h-136zM78 676v139h136v-139h-136z" />
    <glyph glyph-name="iotadieresistonos" unicode="&#x390;" horiz-adv-x="275" 
d="M46 0v617h188v-617h-188zM239 666v139h136v-139h-136zM-76 666v139h136v-139h-136zM75 657l18 225l157 -16l-71 -221z" />
    <glyph glyph-name="upsilondieresistonos" unicode="&#x3b0;" horiz-adv-x="480" 
d="M449 617v-408q0 -107 -53 -163t-157 -56q-65 0 -105.5 17.5t-63.5 47t-31.5 68t-8.5 81.5v413h181v-469q0 -18 4.5 -33.5t24.5 -15.5q19 0 23.5 15.5t4.5 33.5v469h181zM331 666v139h136v-139h-136zM16 666v139h136v-139h-136zM167 657l18 225l157 -16l-71 -221z" />
    <glyph glyph-name="Euro" unicode="&#x20ac;" 
d="M12 358h43v50h-43v79h43v58q0 19 2 43t10 48t22 47t39 40.5t61 28.5t87 11q53 0 95.5 -12t72.5 -38.5t46 -68t16 -99.5v-18h-191v53q0 9 -1 19t-5 18t-10.5 13.5t-17.5 5.5q-22 0 -28.5 -18.5t-6.5 -36.5v-94h119v-79h-119v-50h119v-79h-119v-102q0 -9 1 -19.5t5 -19
t11 -14t18 -5.5q20 0 27 19.5t7 38.5v66h191v-41q0 -65 -20 -106.5t-52.5 -65t-74 -32.5t-83.5 -9q-63 0 -105.5 16.5t-68 47.5t-36.5 74t-11 97v55h-43v79z" />
    <glyph glyph-name="space" unicode=" " horiz-adv-x="230" 
 />
    <glyph glyph-name="acute" unicode="&#xb4;" horiz-adv-x="480" 
d="M147 709l132 184l126 -94l-174 -152z" />
    <glyph glyph-name="cedilla" unicode="&#xb8;" horiz-adv-x="395" 
d="M234 24l-31 -67h8q36 0 61 -19.5t25 -54.5q0 -23 -9.5 -39t-25.5 -27t-36 -16t-42 -5q-28 0 -53.5 7t-50.5 18l20 55q23 -8 40.5 -11t34.5 -3q12 0 18.5 6t6.5 15q0 12 -9 17.5t-21 5.5q-5 0 -10.5 -1t-15.5 -6l-23 23l47 102h66z" />
    <glyph glyph-name="AE" unicode="&#xc6;" horiz-adv-x="662" 
d="M312 0v186h-85l-36 -186h-193l178 752h454v-150h-128v-143h120v-143h-120v-165h141v-151h-331zM252 316h60v285h-6z" />
    <glyph glyph-name="Ccedilla" unicode="&#xc7;" horiz-adv-x="519" 
d="M487 313v-111q0 -62 -18 -102t-48 -64t-68 -34.5t-78 -11.5l-15 -33h8q36 0 61 -19.5t25 -54.5q0 -23 -9.5 -39t-25.5 -27t-36 -16t-42 -5q-28 0 -53.5 7t-50.5 18l20 55q23 -8 40.5 -11t34.5 -3q12 0 18.5 6t6.5 15q0 12 -9 17.5t-21 5.5q-5 0 -10.5 -1t-15.5 -6l-23 23
l32 70q-50 6 -83 24.5t-53.5 48.5t-29 70.5t-8.5 88.5v321q0 19 2 43t10 48t22 47t39 40.5t61 28.5t87 11q53 0 95.5 -12t72.5 -38.5t46 -68t16 -99.5v-78h-191v113q0 9 -1 19t-5 18t-10.5 13.5t-17.5 5.5q-22 0 -28.5 -18.5t-6.5 -36.5v-404q0 -9 1 -19.5t5 -19t11 -14
t18 -5.5q20 0 27 19.5t7 38.5v136h191z" />
    <glyph glyph-name="Ntilde" unicode="&#xd1;" horiz-adv-x="538" 
d="M323 400v352h174v-752h-182l-54 198l-39 158h-6v-356h-175v752h175l56 -189l45 -163h6zM449 920q-3 -25 -12 -50.5t-23 -46t-33 -33.5t-42 -13q-25 0 -45 5.5t-38.5 12t-36.5 12t-39 5.5q-16 0 -29.5 -6t-27.5 -27l-49 15q2 20 8.5 44t19 44.5t32 34.5t48.5 14
q24 0 44 -5t38 -11.5t36 -11.5t39 -5q16 0 30.5 7t28.5 27z" />
    <glyph glyph-name="multiply" unicode="&#xd7;" 
d="M261 236l-139 -140l-78 78l140 139l-137 137l80 80l136 -137l140 139l77 -77l-139 -140l137 -137l-80 -80z" />
    <glyph glyph-name="ae" unicode="&#xe6;" horiz-adv-x="712" 
d="M445 301v-153q0 -18 4.5 -33.5t24.5 -15.5q19 0 23.5 15.5t4.5 33.5v109h181v-48q0 -107 -53 -163t-157 -56q-54 0 -91 12t-61 33q-20 -16 -40.5 -25t-40 -13.5t-37.5 -6t-34 -1.5q-73 0 -106 31t-33 89v92q0 34 7 57.5t22 41t39 31.5t59 30l77 35q15 7 21 20t6 25v33
q0 23 -6.5 33.5t-23.5 10.5q-18 0 -23.5 -12.5t-5.5 -29.5v-70h-172v27q0 100 53.5 147.5t153.5 47.5q41 0 70.5 -6.5t52.5 -17.5q46 23 113 23q45 0 83.5 -11t66.5 -36.5t44 -67t16 -102.5v-109h-238zM260 281q-28 -13 -43 -30t-15 -39v-59q0 -19 4 -37t27 -18
q9 0 14.5 5.5t8.5 13.5t3.5 18t0.5 19v127zM502 409v55q0 17 -4.5 34.5t-23.5 17.5q-10 0 -16 -5t-9 -12.5t-3.5 -17t-0.5 -17.5v-55h57z" />
    <glyph glyph-name="eth" unicode="&#xf0;" horiz-adv-x="462" 
d="M406 664q17 -35 24.5 -76.5t7.5 -87.5v-291q0 -107 -53 -163t-157 -56q-65 0 -105.5 17.5t-63.5 47t-31.5 68t-8.5 81.5v75q0 110 50 164.5t138 54.5q12 0 34.5 -4.5t39.5 -18.5v23q0 21 -2 42t-8 40l-82 -51l-38 55l84 52q-19 16 -47.5 24.5t-70.5 9.5l8 136
q88 -1 147 -23.5t96 -62.5l64 40l37 -57zM257 360q-1 13 -10 20t-18 7q-10 0 -16 -5t-9 -12.5t-3.5 -17t-0.5 -17.5v-187q0 -18 4.5 -33.5t24.5 -15.5q19 0 23.5 15.5t4.5 33.5v212z" />
    <glyph glyph-name="otilde" unicode="&#xf5;" horiz-adv-x="480" 
d="M449 209q0 -107 -53 -163t-157 -56q-65 0 -105.5 17.5t-63.5 47t-31.5 68t-8.5 81.5v204q0 219 209 219q45 0 83.5 -11t66.5 -36.5t44 -67t16 -102.5v-201zM268 464q0 17 -4.5 34.5t-23.5 17.5q-10 0 -16 -5t-9 -12.5t-3.5 -17t-0.5 -17.5v-316q0 -18 4.5 -33.5
t24.5 -15.5q19 0 23.5 15.5t4.5 33.5v316zM430 804q-3 -25 -12 -50.5t-23 -46t-33 -33.5t-42 -13q-25 0 -45 5.5t-38.5 12t-36.5 12t-39 5.5q-16 0 -29.5 -6t-27.5 -27l-49 15q2 20 8.5 44t19 44.5t32 34.5t48.5 14q24 0 44 -5t38 -11.5t36 -11.5t39 -5q16 0 30.5 7t28.5 27
z" />
    <glyph glyph-name="dotlessi" unicode="&#x131;" horiz-adv-x="259" 
d="M36 0v617h188v-617h-188z" />
    <glyph glyph-name="florin" unicode="&#x192;" 
d="M179 381h-52v112h67l18 119q4 26 14 52t29.5 46.5t49.5 33t74 12.5q16 0 44 -2t58 -8l-19 -131q-17 3 -27.5 3.5t-15.5 0.5q-12 0 -20 -5t-12.5 -11.5t-6.5 -14.5t-3 -14l-11 -81h65v-112h-81l-47 -342q-3 -26 -13.5 -51t-30 -45.5t-49.5 -33t-73 -12.5q-16 0 -42.5 2
t-58.5 8l23 130q12 -2 24 -2.5t14 -0.5q13 0 20.5 4.5t12 11t6 14t2.5 13.5z" />
    <glyph glyph-name="circumflex" unicode="&#x2c6;" horiz-adv-x="473" 
d="M239 744l-141 -107l-67 58l141 160h138l136 -160l-67 -58z" />
    <glyph glyph-name="caron" unicode="&#x2c7;" horiz-adv-x="473" 
d="M379 865l67 -58l-136 -160h-138l-141 160l67 58l141 -107z" />
    <glyph glyph-name="breve" unicode="&#x2d8;" horiz-adv-x="490" 
d="M248 653q-45 0 -80 18t-59.5 45.5t-37 59.5t-12.5 61h113q0 -12 5 -25t14.5 -24.5t24 -18.5t32.5 -7t32.5 7t24 18.5t14.5 24.5t5 25h113q0 -29 -12.5 -61t-37 -59.5t-59.5 -45.5t-80 -18z" />
    <glyph glyph-name="tilde" unicode="&#x2dc;" horiz-adv-x="395" 
d="M385 804q-3 -25 -12 -50.5t-23 -46t-33 -33.5t-42 -13q-25 0 -45 5.5t-38.5 12t-36.5 12t-39 5.5q-16 0 -29.5 -6t-27.5 -27l-49 15q2 20 8.5 44t19 44.5t32 34.5t48.5 14q24 0 44 -5t38 -11.5t36 -11.5t39 -5q16 0 30.5 7t28.5 27z" />
    <glyph glyph-name="Acute" unicode="&#xf6c9;" horiz-adv-x="511" 
d="M199 854l171 135l84 -116l-198 -97z" />
    <glyph glyph-name="Dieresis" unicode="&#xf6cb;" horiz-adv-x="512" 
d="M282 783v139h136v-139h-136zM92 783v139h136v-139h-136z" />
    <glyph glyph-name="onesuperior" unicode="&#xb9;" horiz-adv-x="307" 
d="M106 393v338h-64v75h13q44 0 68 36h114v-449h-131z" />
    <glyph glyph-name="threesuperior" unicode="&#xb3;" horiz-adv-x="330" 
d="M166 849q73 0 105 -30t32 -88q0 -31 -5.5 -49.5t-31.5 -33.5q29 -17 35.5 -47t6.5 -61v-10q0 -68 -32 -105.5t-115 -37.5q-44 0 -71.5 10.5t-42.5 29.5t-20 44.5t-5 55.5v38h126v-69q0 -10 2.5 -20t14.5 -10q8 0 11 8.5t3 17.5v76q0 16 -3.5 25t-24.5 9h-42v86h42
q17 0 22.5 5.5t5.5 19.5v35q0 5 -2.5 13.5t-13.5 8.5t-15 -8.5t-4 -13.5v-34h-118v10q0 57 36.5 91t103.5 34z" />
    <glyph glyph-name="twosuperior" unicode="&#xb2;" horiz-adv-x="321" 
d="M22 393v106q0 18 1 33t5 28t12 24t22 22l96 73q18 13 18 45v26q0 14 -6 18.5t-13 4.5q-4 0 -11 -4.5t-7 -18.5v-48h-116v26q0 54 36.5 87.5t102.5 33.5q69 0 102.5 -31t33.5 -86v-34q0 -25 -12 -47t-26 -33q-23 -19 -47 -37t-47 -36q-16 -12 -20 -24t-4 -32v-8h57v61h100
v-149h-277z" />
    <glyph glyph-name="daggerdbl" unicode="&#x2021;" horiz-adv-x="509" 
d="M154 403h-135v171h135v189h202v-188h138v-172h-138v-111h138v-172h-138v-208h-202v208h-135v171h135v112z" />
    <glyph glyph-name="guilsinglright" unicode="&#x203a;" horiz-adv-x="315" 
d="M21 10l107 198l-103 191h158l105 -195l-105 -194h-162z" />
    <glyph glyph-name="quotesinglbase" unicode="&#x201a;" horiz-adv-x="207" 
d="M104 -123h-79l38 132h-35v164h151v-163z" />
    <glyph glyph-name="quotedblbase" unicode="&#x201e;" horiz-adv-x="399" 
d="M104 -123h-79l38 132h-35v164h151v-163zM292 -123h-79l38 132h-35v164h151v-163z" />
    <glyph glyph-name="exclamdown" unicode="&#xa1;" horiz-adv-x="269" 
d="M237 -135h-201l29 557h142zM222 617v-151h-171v151h171z" />
    <glyph glyph-name="questiondown" unicode="&#xbf;" horiz-adv-x="485" 
d="M41 51q0 30 6.5 54.5t17 46t25 41t30.5 39.5l57 70q26 32 31 58t5 45v18h171v-44q0 -33 -8.5 -71.5t-44.5 -81.5l-48 -57q-32 -38 -48 -68t-16 -66q0 -9 0.5 -18.5t4 -17t10.5 -12.5t20 -5q12 0 18.5 6t10 15.5t4 20t0.5 19.5v61h171v-46q0 -47 -10.5 -84.5t-34.5 -64
t-62 -40.5t-93 -14q-59 0 -100 14.5t-67 40t-38 61.5t-12 80zM383 618v-151h-171v151h171z" />
    <glyph glyph-name="emdash" unicode="&#x2014;" horiz-adv-x="1000" 
d="M20 250v116h960v-116h-960z" />
    <glyph glyph-name="brokenbar" unicode="&#xa6;" horiz-adv-x="405" 
d="M137 382v407h142v-407h-142zM279 273v-394h-142v394h142z" />
    <glyph glyph-name="guilsinglleft" unicode="&#x2039;" horiz-adv-x="315" 
d="M127 10l-105 194l105 195h158l-103 -191l107 -198h-162z" />
    <glyph glyph-name="OE" unicode="&#x152;" horiz-adv-x="639" 
d="M343 0q-21 -6 -43 -8.5t-43 -2.5q-63 0 -105.5 16.5t-68 47.5t-36.5 74t-11 97v321q0 19 2 43t10 48t22 47t39 40.5t61 28.5t87 11q45 0 86 -11h264v-140h-128v-146h120v-141h-120v-184h141v-141h-277zM286 580q0 9 -0.5 19t-3 18t-8.5 13.5t-17 5.5t-17 -5t-9 -13.5
t-3.5 -18t-0.5 -18.5v-404q0 -9 0.5 -19.5t3.5 -19t9.5 -14t17.5 -5.5q10 0 15.5 5.5t8.5 14t3.5 19t0.5 19.5v403z" />
    <glyph glyph-name="currency" unicode="&#xa4;" horiz-adv-x="551" 
d="M395 584l82 -83l-67 -73q7 -15 9.5 -30.5t2.5 -26.5q0 -15 -1.5 -29t-6.5 -28l67 -67l-89 -87l-67 68q-14 -6 -29.5 -10.5t-28.5 -4.5q-19 0 -31 2t-23 8l-65 -67l-90 90l67 66q-5 13 -8.5 28.5t-3.5 29.5q0 23 16 55l-71 71l89 89l69 -69q12 5 25 5.5t30 0.5t29 -2.5
t26 -9.5zM271 421q-20 0 -35.5 -16t-15.5 -35q0 -22 15.5 -37t35.5 -16q21 0 35.5 15.5t13.5 37.5q1 19 -13.5 35t-35.5 16z" />
    <glyph glyph-name="thorn" unicode="&#xfe;" horiz-adv-x="487" 
d="M222 578q44 50 105 50q37 0 62 -12.5t40 -34t21.5 -50t6.5 -61.5v-291q0 -36 -4.5 -70t-18.5 -61t-40 -43t-69 -16q-35 0 -57.5 12.5t-43.5 36.5l-5 -3v-171h-183v908h183v-193zM274 459q0 16 -4 33t-22 17t-23.5 -16.5t-5.5 -33.5v-295q0 -9 1 -18.5t4 -17.5t8.5 -13
t15.5 -5t15 5.5t7.5 13.5t3 18t0.5 19v293z" />
    <glyph glyph-name="dotaccent" unicode="&#x2d9;" horiz-adv-x="490" 
d="M174 666v139h136v-139h-136z" />
    <glyph glyph-name="hungarumlaut" unicode="&#x2dd;" horiz-adv-x="490" 
d="M250 709l132 184l126 -94l-174 -152zM46 709l132 184l126 -94l-174 -152z" />
    <glyph glyph-name="paragraph" unicode="&#xb6;" horiz-adv-x="458" 
d="M136 -134v480q-22 4 -42.5 13.5t-36.5 24t-26 34.5t-10 44v175q0 28 11.5 50t30.5 37.5t44.5 23.5t54.5 8h282v-80h-43v-810h-110v810h-44v-810h-111z" />
    <glyph glyph-name="macron" unicode="&#xaf;" horiz-adv-x="490" 
d="M87 672v110h291v-110h-291z" />
    <glyph glyph-name="ring" unicode="&#x2da;" horiz-adv-x="490" 
d="M254 643q-26 0 -49.5 10.5t-41 28.5t-28 42t-10.5 52q0 26 10.5 49.5t28.5 41t42.5 28t51.5 10.5q26 0 49.5 -10.5t41 -28t28 -41t10.5 -49.5q0 -27 -10.5 -51.5t-28.5 -42.5t-42 -28.5t-52 -10.5zM258 809q-16 0 -26 -9.5t-10 -23.5q0 -16 9.5 -26t26.5 -10
q14 0 23.5 10t9.5 26q0 14 -9.5 23.5t-23.5 9.5z" />
    <glyph glyph-name="ogonek" unicode="&#x2db;" horiz-adv-x="490" 
d="M373 9l10 -8q-30 -28 -41 -47.5t-11 -38.5q0 -8 6 -13t14 -5t18.5 3.5t30.5 14.5l27 -75q-19 -17 -45.5 -26.5t-49.5 -9.5q-21 0 -39.5 6t-33 18t-23 29t-8.5 40q0 35 17 62t39 50h89z" />
    <glyph glyph-name="Circumflex" unicode="&#xf6c0;" horiz-adv-x="511" 
d="M253 855l-141 -77l-67 58l141 130h138l136 -130l-67 -58z" />
    <glyph glyph-name="commaaccent" unicode="&#xf6c3;" horiz-adv-x="517" 
d="M265 -302h-77l37 121h-34v151h147v-150z" />
    <glyph glyph-name="Caron" unicode="&#xf6ca;" horiz-adv-x="511" 
d="M398 966l67 -58l-136 -130h-138l-141 130l67 58l141 -77z" />
    <glyph glyph-name="DieresisAcute" unicode="&#xf6cc;" horiz-adv-x="500" 
d="M367 810v139h136v-139h-136zM12 810v139h136v-139h-136zM170 810l46 221l153 -35l-97 -210z" />
    <glyph glyph-name="DieresisGrave" unicode="&#xf6cd;" horiz-adv-x="500" 
d="M13 810v139h136v-139h-136zM368 810v139h136v-139h-136zM244 786l-97 210l153 35l46 -221z" />
    <glyph glyph-name="Grave" unicode="&#xf6ce;" horiz-adv-x="511" 
d="M267 776l-198 97l84 116l171 -135z" />
    <glyph glyph-name="Hungarumlaut" unicode="&#xf6cf;" horiz-adv-x="511" 
d="M273 836l144 147l92 -98l-173 -115zM72 836l144 147l92 -98l-173 -115z" />
    <glyph glyph-name="Macron" unicode="&#xf6d0;" horiz-adv-x="511" 
d="M112 802v110h291v-110h-291z" />
    <glyph glyph-name="cyrBreve" unicode="&#xf6d1;" horiz-adv-x="511" 
d="M255 779q-45 0 -80 18t-59.5 45.5t-37 59.5t-12.5 61h113q0 -12 5 -25t14.5 -24.5t24 -18.5t32.5 -7t32.5 7t24 18.5t14.5 24.5t5 25h113q0 -29 -12.5 -61t-37 -59.5t-59.5 -45.5t-80 -18z" />
    <glyph glyph-name="cyrbreve" unicode="&#xf6d4;" horiz-adv-x="490" 
d="M248 653q-45 0 -80 18t-59.5 45.5t-37 59.5t-12.5 61h113q0 -12 5 -25t14.5 -24.5t24 -18.5t32.5 -7t32.5 7t24 18.5t14.5 24.5t5 25h113q0 -29 -12.5 -61t-37 -59.5t-59.5 -45.5t-80 -18z" />
    <glyph glyph-name="Oslash" unicode="&#xd8;" horiz-adv-x="512" 
d="M36 -10l37 75v1q-20 30 -28.5 70t-8.5 88v321q0 19 2 43t10 48t22 47t39 40.5t61 28.5t87 11q86 0 141 -37l19 38h60l-38 -77q18 -26 28 -61t10 -81v-343q0 -65 -20 -106.5t-51.5 -65t-70.5 -32.5t-78 -9q-48 0 -83.5 9.5t-61.5 27.5l-17 -36h-59zM286 377l-59 -119v-81
q0 -9 0.5 -19.5t3.5 -19t9.5 -14t17.5 -5.5q10 0 15.5 5.5t8.5 14t3.5 19t0.5 19.5v200zM227 378l59 120v82q0 9 -0.5 19t-3 18t-8.5 13.5t-17 5.5t-17 -5t-9 -13.5t-3.5 -18t-0.5 -18.5v-203z" />
    <glyph glyph-name="oslash" unicode="&#xf8;" horiz-adv-x="480" 
d="M31 -12l38 67q-23 29 -31 67.5t-8 81.5v204q0 219 209 219q39 0 73.5 -8.5t61.5 -27.5l20 36h57l-41 -71q19 -26 29 -62t10 -84v-201q0 -107 -53 -163t-157 -56q-45 0 -78 8.5t-57 23.5l-19 -34h-54zM211 305l57 100v59q0 17 -4.5 34.5t-23.5 17.5q-10 0 -16 -5t-9 -12.5
t-3.5 -17t-0.5 -17.5v-159zM268 308l-57 -100v-60q0 -18 4.5 -33.5t24.5 -15.5q19 0 23.5 15.5t4.5 33.5v160z" />
    <glyph glyph-name="Thorn" unicode="&#xde;" horiz-adv-x="486" 
d="M40 756h189v-166h25q117 0 167 -51.5t50 -158.5q0 -62 -13.5 -105t-40.5 -69.5t-67 -38.5t-92 -12h-27v-155h-190zM231 284h11q30 0 42.5 22.5t12.5 69.5q0 50 -14.5 67.5t-42.5 17.5h-9v-177z" />
    <glyph glyph-name="Scaron" unicode="&#x160;" horiz-adv-x="485" 
d="M461 192q0 -55 -15 -93.5t-43 -63t-68 -35.5t-91 -11q-72 0 -114.5 20.5t-64.5 54t-28 75.5t-6 86v52h177v-96q0 -11 1 -22t4.5 -21t10.5 -16t18 -6q12 0 19.5 5.5t11.5 14t5.5 19t1.5 20.5q0 31 -4.5 51t-16.5 36t-32.5 30.5t-53.5 35.5q-39 25 -67 46.5t-46 46
t-26.5 57t-8.5 79.5q0 54 15.5 93t44 64t67.5 37t87 12q69 0 110 -19t62.5 -49t28 -67.5t6.5 -75.5v-43h-178v67q0 23 -6 41.5t-26 18.5t-26 -17t-6 -35q0 -29 7 -47.5t21.5 -33t37 -28.5t54.5 -34q46 -29 73 -54.5t41.5 -53t18.5 -61.5t4 -80zM383 976l67 -58l-136 -130
h-138l-141 130l67 58l141 -77z" />
    <glyph glyph-name="Zcaron" unicode="&#x17d;" horiz-adv-x="385" 
d="M15 0v121l152 491h-134v140h334v-129l-147 -481h147v-142h-352zM355 966l67 -58l-136 -130h-138l-141 130l67 58l141 -77z" />
    <glyph glyph-name="scaron" unicode="&#x161;" horiz-adv-x="442" 
d="M424 182q0 -102 -53 -147.5t-149 -45.5q-107 0 -153.5 45.5t-46.5 143.5v38l167 1v-42q0 -14 0.5 -27.5t4 -24.5t10.5 -18t19 -7q23 0 28 16.5t5 37.5q0 18 -5 32t-18 27.5t-35 28t-56 34.5q-28 16 -50 31t-37.5 34t-24 44.5t-8.5 62.5q0 94 51.5 138t147.5 44
q99 0 148.5 -38.5t49.5 -131.5v-38h-172v52q0 15 -5 30t-25 15q-19 0 -24 -14t-5 -30q0 -20 5 -34t16 -25.5t28 -21.5t41 -22q37 -20 64.5 -36.5t45.5 -37t27 -47.5t9 -67zM364 875l67 -58l-136 -160h-138l-141 160l67 58l141 -107z" />
    <glyph glyph-name="zcaron" unicode="&#x17e;" horiz-adv-x="361" 
d="M16 0v122l152 378h-143v117h313v-127l-149 -373h149v-117h-322zM314 865l67 -58l-136 -160h-138l-141 160l67 58l141 -107z" />
    <glyph glyph-name="Ydieresis" unicode="&#x178;" horiz-adv-x="469" 
d="M319 272v-272h-177v272l-135 480h179l23 -152l22 -168h4l25 170l25 150h173zM261 783v139h136v-139h-136zM71 783v139h136v-139h-136z" />
    <glyph glyph-name="Agrave" unicode="&#xc0;" horiz-adv-x="511" 
d="M308 0l-10 135h-78l-11 -135h-193l100 752h278l104 -752h-190zM255 614l-10 -150l-14 -195h55l-14 196l-10 149h-7zM269 776l-198 97l84 116l171 -135z" />
    <glyph glyph-name="Aacute" unicode="&#xc1;" horiz-adv-x="511" 
d="M308 0l-10 135h-78l-11 -135h-193l100 752h278l104 -752h-190zM255 614l-10 -150l-14 -195h55l-14 196l-10 149h-7zM199 854l171 135l84 -116l-198 -97z" />
    <glyph glyph-name="Acircumflex" unicode="&#xc2;" horiz-adv-x="511" 
d="M308 0l-10 135h-78l-11 -135h-193l100 752h278l104 -752h-190zM255 614l-10 -150l-14 -195h55l-14 196l-10 149h-7zM258 855l-141 -77l-67 58l141 130h138l136 -130l-67 -58z" />
    <glyph glyph-name="Atilde" unicode="&#xc3;" horiz-adv-x="511" 
d="M308 0l-10 135h-78l-11 -135h-193l100 752h278l104 -752h-190zM255 614l-10 -150l-14 -195h55l-14 196l-10 149h-7zM445 924q-3 -25 -12 -50.5t-23 -46t-33 -33.5t-42 -13q-25 0 -45 5.5t-38.5 12t-36.5 12t-39 5.5q-16 0 -29.5 -6t-27.5 -27l-49 15q2 20 8.5 44t19 44.5
t32 34.5t48.5 14q24 0 44 -5t38 -11.5t36 -11.5t39 -5q16 0 30.5 7t28.5 27z" />
    <glyph glyph-name="Aring" unicode="&#xc5;" horiz-adv-x="511" 
d="M308 0l-10 135h-78l-11 -135h-193l100 752h278l104 -752h-190zM255 614l-10 -150l-14 -195h55l-14 196l-10 149h-7zM255 762q-26 0 -49.5 10.5t-41 28.5t-28 42t-10.5 52q0 26 10.5 49.5t28.5 41t42.5 28t51.5 10.5q26 0 49.5 -10.5t41 -28t28 -41t10.5 -49.5
q0 -27 -10.5 -51.5t-28.5 -42.5t-42 -28.5t-52 -10.5zM259 928q-16 0 -26 -9.5t-10 -23.5q0 -16 9.5 -26t26.5 -10q14 0 23.5 10t9.5 26q0 14 -9.5 23.5t-23.5 9.5z" />
    <glyph glyph-name="Egrave" unicode="&#xc8;" horiz-adv-x="391" 
d="M41 0v752h318v-140h-128v-146h120v-141h-120v-184h141v-141h-331zM267 776l-198 97l84 116l171 -135z" />
    <glyph glyph-name="Ecircumflex" unicode="&#xca;" horiz-adv-x="391" 
d="M41 0v752h318v-140h-128v-146h120v-141h-120v-184h141v-141h-331zM198 855l-141 -77l-67 58l141 130h138l136 -130l-67 -58z" />
    <glyph glyph-name="Edieresis" unicode="&#xcb;" horiz-adv-x="391" 
d="M41 0v752h318v-140h-128v-146h120v-141h-120v-184h141v-141h-331zM226 796v139h136v-139h-136zM36 796v139h136v-139h-136z" />
    <glyph glyph-name="Igrave" unicode="&#xcc;" horiz-adv-x="272" 
d="M41 0v752h190v-752h-190zM177 776l-198 97l84 116l171 -135z" />
    <glyph glyph-name="Iacute" unicode="&#xcd;" horiz-adv-x="272" 
d="M41 0v752h190v-752h-190zM55 854l171 135l84 -116l-198 -97z" />
    <glyph glyph-name="Icircumflex" unicode="&#xce;" horiz-adv-x="272" 
d="M41 0v752h190v-752h-190zM137 855l-141 -77l-67 58l141 130h138l136 -130l-67 -58z" />
    <glyph glyph-name="Idieresis" unicode="&#xcf;" horiz-adv-x="272" 
d="M41 0v752h190v-752h-190zM163 783v139h136v-139h-136zM-27 783v139h136v-139h-136z" />
    <glyph glyph-name="Eth" unicode="&#xd0;" horiz-adv-x="518" 
d="M6 441h35v311h206q77 0 123.5 -15.5t71.5 -46.5t33 -76.5t8 -105.5v-284q0 -54 -8 -96t-31 -70.5t-64.5 -43t-107.5 -14.5h-231v328h-35v113zM292 533q0 22 -1 38t-7 27t-18 16.5t-34 5.5v-179h33v-113h-33v-195q22 0 34 10t18 25.5t7 33.5t1 34v297z" />
    <glyph glyph-name="Ograve" unicode="&#xd2;" horiz-adv-x="512" 
d="M477 202q0 -65 -20 -106.5t-51.5 -65t-70.5 -32.5t-78 -9q-63 0 -105.5 16.5t-68 47.5t-36.5 74t-11 97v321q0 19 2 43t10 48t22 47t39 40.5t61 28.5t87 11q49 0 90 -12t69.5 -38.5t44.5 -68t16 -99.5v-343zM286 580q0 9 -0.5 19t-3 18t-8.5 13.5t-17 5.5t-17 -5
t-9 -13.5t-3.5 -18t-0.5 -18.5v-404q0 -9 0.5 -19.5t3.5 -19t9.5 -14t17.5 -5.5q10 0 15.5 5.5t8.5 14t3.5 19t0.5 19.5v403zM318 776l-198 97l84 116l171 -135z" />
    <glyph glyph-name="Oacute" unicode="&#xd3;" horiz-adv-x="512" 
d="M477 202q0 -65 -20 -106.5t-51.5 -65t-70.5 -32.5t-78 -9q-63 0 -105.5 16.5t-68 47.5t-36.5 74t-11 97v321q0 19 2 43t10 48t22 47t39 40.5t61 28.5t87 11q49 0 90 -12t69.5 -38.5t44.5 -68t16 -99.5v-343zM286 580q0 9 -0.5 19t-3 18t-8.5 13.5t-17 5.5t-17 -5
t-9 -13.5t-3.5 -18t-0.5 -18.5v-404q0 -9 0.5 -19.5t3.5 -19t9.5 -14t17.5 -5.5q10 0 15.5 5.5t8.5 14t3.5 19t0.5 19.5v403zM189 854l171 135l84 -116l-198 -97z" />
    <glyph glyph-name="Ocircumflex" unicode="&#xd4;" horiz-adv-x="512" 
d="M477 202q0 -65 -20 -106.5t-51.5 -65t-70.5 -32.5t-78 -9q-63 0 -105.5 16.5t-68 47.5t-36.5 74t-11 97v321q0 19 2 43t10 48t22 47t39 40.5t61 28.5t87 11q49 0 90 -12t69.5 -38.5t44.5 -68t16 -99.5v-343zM286 580q0 9 -0.5 19t-3 18t-8.5 13.5t-17 5.5t-17 -5
t-9 -13.5t-3.5 -18t-0.5 -18.5v-404q0 -9 0.5 -19.5t3.5 -19t9.5 -14t17.5 -5.5q10 0 15.5 5.5t8.5 14t3.5 19t0.5 19.5v403zM257 855l-141 -77l-67 58l141 130h138l136 -130l-67 -58z" />
    <glyph glyph-name="Otilde" unicode="&#xd5;" horiz-adv-x="512" 
d="M477 202q0 -65 -20 -106.5t-51.5 -65t-70.5 -32.5t-78 -9q-63 0 -105.5 16.5t-68 47.5t-36.5 74t-11 97v321q0 19 2 43t10 48t22 47t39 40.5t61 28.5t87 11q49 0 90 -12t69.5 -38.5t44.5 -68t16 -99.5v-343zM286 580q0 9 -0.5 19t-3 18t-8.5 13.5t-17 5.5t-17 -5
t-9 -13.5t-3.5 -18t-0.5 -18.5v-404q0 -9 0.5 -19.5t3.5 -19t9.5 -14t17.5 -5.5q10 0 15.5 5.5t8.5 14t3.5 19t0.5 19.5v403zM445 924q-3 -25 -12 -50.5t-23 -46t-33 -33.5t-42 -13q-25 0 -45 5.5t-38.5 12t-36.5 12t-39 5.5q-16 0 -29.5 -6t-27.5 -27l-49 15q2 20 8.5 44
t19 44.5t32 34.5t48.5 14q24 0 44 -5t38 -11.5t36 -11.5t39 -5q16 0 30.5 7t28.5 27z" />
    <glyph glyph-name="Ugrave" unicode="&#xd9;" horiz-adv-x="517" 
d="M479 753v-551q0 -65 -20 -106.5t-51.5 -65t-70.5 -32.5t-78 -9q-63 0 -105.5 16.5t-68 47.5t-36.5 74t-11 97v529h191v-576q0 -9 0.5 -19.5t3.5 -19t9.5 -14t17.5 -5.5q10 0 15.5 5.5t8.5 14t3.5 19t0.5 19.5v576h191zM273 776l-198 97l84 116l171 -135z" />
    <glyph glyph-name="Uacute" unicode="&#xda;" horiz-adv-x="517" 
d="M479 753v-551q0 -65 -20 -106.5t-51.5 -65t-70.5 -32.5t-78 -9q-63 0 -105.5 16.5t-68 47.5t-36.5 74t-11 97v529h191v-576q0 -9 0.5 -19.5t3.5 -19t9.5 -14t17.5 -5.5q10 0 15.5 5.5t8.5 14t3.5 19t0.5 19.5v576h191zM182 854l171 135l84 -116l-198 -97z" />
    <glyph glyph-name="Ucircumflex" unicode="&#xdb;" horiz-adv-x="517" 
d="M479 753v-551q0 -65 -20 -106.5t-51.5 -65t-70.5 -32.5t-78 -9q-63 0 -105.5 16.5t-68 47.5t-36.5 74t-11 97v529h191v-576q0 -9 0.5 -19.5t3.5 -19t9.5 -14t17.5 -5.5q10 0 15.5 5.5t8.5 14t3.5 19t0.5 19.5v576h191zM259 855l-141 -77l-67 58l141 130h138l136 -130
l-67 -58z" />
    <glyph glyph-name="Yacute" unicode="&#xdd;" horiz-adv-x="469" 
d="M319 272v-272h-177v272l-135 480h179l23 -152l22 -168h4l25 170l25 150h173zM175 854l171 135l84 -116l-198 -97z" />
    <glyph glyph-name="aacute" unicode="&#xe1;" horiz-adv-x="484" 
d="M261 47q-18 -26 -43 -42t-59 -16q-60 0 -94.5 31t-34.5 89v92q0 34 7 57.5t22 41t39 31.5t59 30l77 35q15 7 21 20t6 25v33q0 23 -6.5 33.5t-23.5 10.5q-18 0 -23.5 -12.5t-5.5 -29.5v-70h-172v27q0 100 54.5 147.5t154.5 47.5q67 0 107 -16t62 -45t29 -69t7 -87v-411
h-166l-10 47h-7zM260 281q-28 -13 -43 -30t-15 -39v-59q0 -19 4 -37t27 -18q10 0 15.5 5.5t8 14.5t3 19t0.5 19v125zM147 709l132 184l126 -94l-174 -152z" />
    <glyph glyph-name="atilde" unicode="&#xe3;" horiz-adv-x="484" 
d="M261 47q-18 -26 -43 -42t-59 -16q-60 0 -94.5 31t-34.5 89v92q0 34 7 57.5t22 41t39 31.5t59 30l77 35q15 7 21 20t6 25v33q0 23 -6.5 33.5t-23.5 10.5q-18 0 -23.5 -12.5t-5.5 -29.5v-70h-172v27q0 100 54.5 147.5t154.5 47.5q67 0 107 -16t62 -45t29 -69t7 -87v-411
h-166l-10 47h-7zM260 281q-28 -13 -43 -30t-15 -39v-59q0 -19 4 -37t27 -18q10 0 15.5 5.5t8 14.5t3 19t0.5 19v125zM427 804q-3 -25 -12 -50.5t-23 -46t-33 -33.5t-42 -13q-25 0 -45 5.5t-38.5 12t-36.5 12t-39 5.5q-16 0 -29.5 -6t-27.5 -27l-49 15q2 20 8.5 44t19 44.5
t32 34.5t48.5 14q24 0 44 -5t38 -11.5t36 -11.5t39 -5q16 0 30.5 7t28.5 27z" />
    <glyph glyph-name="aring" unicode="&#xe5;" horiz-adv-x="484" 
d="M261 47q-18 -26 -43 -42t-59 -16q-60 0 -94.5 31t-34.5 89v92q0 34 7 57.5t22 41t39 31.5t59 30l77 35q15 7 21 20t6 25v33q0 23 -6.5 33.5t-23.5 10.5q-18 0 -23.5 -12.5t-5.5 -29.5v-70h-172v27q0 100 54.5 147.5t154.5 47.5q67 0 107 -16t62 -45t29 -69t7 -87v-411
h-166l-10 47h-7zM260 281q-28 -13 -43 -30t-15 -39v-59q0 -19 4 -37t27 -18q10 0 15.5 5.5t8 14.5t3 19t0.5 19v125zM239 643q-26 0 -49.5 10.5t-41 28.5t-28 42t-10.5 52q0 26 10.5 49.5t28.5 41t42.5 28t51.5 10.5q26 0 49.5 -10.5t41 -28t28 -41t10.5 -49.5
q0 -27 -10.5 -51.5t-28.5 -42.5t-42 -28.5t-52 -10.5zM243 809q-16 0 -26 -9.5t-10 -23.5q0 -16 9.5 -26t26.5 -10q14 0 23.5 10t9.5 26q0 14 -9.5 23.5t-23.5 9.5z" />
    <glyph glyph-name="igrave" unicode="&#xec;" horiz-adv-x="259" 
d="M36 0v617h188v-617h-188zM128 650l-171 151l120 97l135 -186z" />
    <glyph glyph-name="iacute" unicode="&#xed;" horiz-adv-x="259" 
d="M36 0v617h188v-617h-188zM52 709l132 184l126 -94l-174 -152z" />
    <glyph glyph-name="ntilde" unicode="&#xf1;" horiz-adv-x="491" 
d="M222 566q39 62 112 62q45 0 70 -17t37 -44.5t14.5 -62t2.5 -69.5v-435h-183v456q0 9 -1 18.5t-3.5 17.5t-8 13t-14.5 5t-15 -5t-9 -13t-4.5 -17.5t-1.5 -17.5v-457h-182v617h170l12 -50zM435 804q-3 -25 -12 -50.5t-23 -46t-33 -33.5t-42 -13q-25 0 -45 5.5t-38.5 12
t-36.5 12t-39 5.5q-16 0 -29.5 -6t-27.5 -27l-49 15q2 20 8.5 44t19 44.5t32 34.5t48.5 14q24 0 44 -5t38 -11.5t36 -11.5t39 -5q16 0 30.5 7t28.5 27z" />
    <glyph glyph-name="ograve" unicode="&#xf2;" horiz-adv-x="480" 
d="M449 209q0 -107 -53 -163t-157 -56q-65 0 -105.5 17.5t-63.5 47t-31.5 68t-8.5 81.5v204q0 219 209 219q45 0 83.5 -11t66.5 -36.5t44 -67t16 -102.5v-201zM268 464q0 17 -4.5 34.5t-23.5 17.5q-10 0 -16 -5t-9 -12.5t-3.5 -17t-0.5 -17.5v-316q0 -18 4.5 -33.5
t24.5 -15.5q19 0 23.5 15.5t4.5 33.5v316zM254 650l-171 151l120 97l135 -186z" />
    <glyph glyph-name="oacute" unicode="&#xf3;" horiz-adv-x="480" 
d="M449 209q0 -107 -53 -163t-157 -56q-65 0 -105.5 17.5t-63.5 47t-31.5 68t-8.5 81.5v204q0 219 209 219q45 0 83.5 -11t66.5 -36.5t44 -67t16 -102.5v-201zM268 464q0 17 -4.5 34.5t-23.5 17.5q-10 0 -16 -5t-9 -12.5t-3.5 -17t-0.5 -17.5v-316q0 -18 4.5 -33.5
t24.5 -15.5q19 0 23.5 15.5t4.5 33.5v316zM140 709l132 184l126 -94l-174 -152z" />
    <glyph glyph-name="uacute" unicode="&#xfa;" horiz-adv-x="490" 
d="M270 51q-39 -62 -112 -62q-45 0 -70 17t-37 44.5t-14.5 62t-2.5 69.5v435h183v-456q0 -9 1 -18.5t3.5 -17.5t8 -13t14.5 -5t15 5t9 13t4.5 17.5t1.5 17.5v457h182v-617h-170l-12 50zM148 709l132 184l126 -94l-174 -152z" />
    <glyph glyph-name="yacute" unicode="&#xfd;" horiz-adv-x="458" 
d="M359 75q-6 -35 -14.5 -72.5t-28.5 -68.5t-55 -50.5t-93 -19.5h-108v127h26q38 0 38 34q0 10 -3 24l-116 568h178l26 -203l25 -217h5l19 217l19 203h172zM143 709l132 184l126 -94l-174 -152z" />
    <glyph glyph-name="ydieresis" unicode="&#xff;" horiz-adv-x="458" 
d="M359 75q-6 -35 -14.5 -72.5t-28.5 -68.5t-55 -50.5t-93 -19.5h-108v127h26q38 0 38 34q0 10 -3 24l-116 568h178l26 -203l25 -217h5l19 217l19 203h172zM262 675v139h136v-139h-136zM72 675v139h136v-139h-136z" />
    <glyph glyph-name="Amacron" unicode="&#x100;" horiz-adv-x="511" 
d="M308 0l-10 135h-78l-11 -135h-193l100 752h278l104 -752h-190zM255 614l-10 -150l-14 -195h55l-14 196l-10 149h-7zM109 802v110h291v-110h-291z" />
    <glyph glyph-name="amacron" unicode="&#x101;" horiz-adv-x="484" 
d="M261 47q-18 -26 -43 -42t-59 -16q-60 0 -94.5 31t-34.5 89v92q0 34 7 57.5t22 41t39 31.5t59 30l77 35q15 7 21 20t6 25v33q0 23 -6.5 33.5t-23.5 10.5q-18 0 -23.5 -12.5t-5.5 -29.5v-70h-172v27q0 100 54.5 147.5t154.5 47.5q67 0 107 -16t62 -45t29 -69t7 -87v-411
h-166l-10 47h-7zM260 281q-28 -13 -43 -30t-15 -39v-59q0 -19 4 -37t27 -18q10 0 15.5 5.5t8 14.5t3 19t0.5 19v125zM100 672v110h291v-110h-291z" />
    <glyph glyph-name="Abreve" unicode="&#x102;" horiz-adv-x="511" 
d="M308 0l-10 135h-78l-11 -135h-193l100 752h278l104 -752h-190zM255 614l-10 -150l-14 -195h55l-14 196l-10 149h-7zM257 779q-45 0 -80 18t-59.5 45.5t-37 59.5t-12.5 61h113q0 -12 5 -25t14.5 -24.5t24 -18.5t32.5 -7t32.5 7t24 18.5t14.5 24.5t5 25h113
q0 -29 -12.5 -61t-37 -59.5t-59.5 -45.5t-80 -18z" />
    <glyph glyph-name="abreve" unicode="&#x103;" horiz-adv-x="484" 
d="M261 47q-18 -26 -43 -42t-59 -16q-60 0 -94.5 31t-34.5 89v92q0 34 7 57.5t22 41t39 31.5t59 30l77 35q15 7 21 20t6 25v33q0 23 -6.5 33.5t-23.5 10.5q-18 0 -23.5 -12.5t-5.5 -29.5v-70h-172v27q0 100 54.5 147.5t154.5 47.5q67 0 107 -16t62 -45t29 -69t7 -87v-411
h-166l-10 47h-7zM260 281q-28 -13 -43 -30t-15 -39v-59q0 -19 4 -37t27 -18q10 0 15.5 5.5t8 14.5t3 19t0.5 19v125zM245 653q-45 0 -80 18t-59.5 45.5t-37 59.5t-12.5 61h113q0 -12 5 -25t14.5 -24.5t24 -18.5t32.5 -7t32.5 7t24 18.5t14.5 24.5t5 25h113q0 -29 -12.5 -61
t-37 -59.5t-59.5 -45.5t-80 -18z" />
    <glyph glyph-name="Aogonek" unicode="&#x104;" horiz-adv-x="511" 
d="M413 0q-29 -27 -40 -46.5t-11 -38.5q0 -8 6 -13t14 -5t18.5 3.5t30.5 14.5l27 -75q-19 -17 -45.5 -26.5t-49.5 -9.5q-21 0 -39.5 6t-33 18t-23 29t-8.5 40q0 32 14.5 57.5t34.5 46.5l-10 134h-78l-11 -135h-193l100 752h278l104 -752h-85zM255 614l-10 -150l-14 -195h55
l-14 196l-10 149h-7z" />
    <glyph glyph-name="aogonek" unicode="&#x105;" horiz-adv-x="484" 
d="M261 47q-18 -26 -43 -42t-59 -16q-60 0 -94.5 31t-34.5 89v92q0 34 7 57.5t22 41t39 31.5t59 30l77 35q15 7 21 20t6 25v33q0 23 -6.5 33.5t-23.5 10.5q-18 0 -23.5 -12.5t-5.5 -29.5v-70h-172v27q0 100 54.5 147.5t154.5 47.5q67 0 107 -16t62 -45t29 -69t7 -87v-411
h-62q-29 -27 -40 -46.5t-11 -38.5q0 -8 6 -13t14 -5t18.5 3.5t30.5 14.5l27 -75q-19 -17 -45.5 -26.5t-49.5 -9.5q-21 0 -39.5 6t-33 18t-23 29t-8.5 40q0 32 14.5 58t34.5 47l-9 45h-7zM260 281q-28 -13 -43 -30t-15 -39v-59q0 -19 4 -37t27 -18q10 0 15.5 5.5t8 14.5t3 19
t0.5 19v125z" />
    <glyph glyph-name="Cacute" unicode="&#x106;" horiz-adv-x="519" 
d="M487 313v-111q0 -65 -20 -106.5t-52.5 -65t-74 -32.5t-83.5 -9q-63 0 -105.5 16.5t-68 47.5t-36.5 74t-11 97v321q0 19 2 43t10 48t22 47t39 40.5t61 28.5t87 11q53 0 95.5 -12t72.5 -38.5t46 -68t16 -99.5v-78h-191v113q0 9 -1 19t-5 18t-10.5 13.5t-17.5 5.5
q-22 0 -28.5 -18.5t-6.5 -36.5v-404q0 -9 1 -19.5t5 -19t11 -14t18 -5.5q20 0 27 19.5t7 38.5v136h191zM181 858l171 135l84 -116l-198 -97z" />
    <glyph glyph-name="cacute" unicode="&#x107;" horiz-adv-x="464" 
d="M441 254v-45q0 -107 -47.5 -163t-154.5 -56q-65 0 -105.5 17.5t-63.5 47t-31.5 68t-8.5 81.5v204q0 219 209 219q48 0 86 -11t63.5 -36.5t39 -67t13.5 -102.5v-26h-173v80q0 17 -4.5 34.5t-23.5 17.5q-10 0 -16 -5t-9 -12.5t-3.5 -17t-0.5 -17.5v-316q0 -18 4.5 -33.5
t24.5 -15.5q19 0 23.5 15.5t4.5 33.5v106h173zM140 709l132 184l126 -94l-174 -152z" />
    <glyph glyph-name="Ccircumflex" unicode="&#x108;" horiz-adv-x="519" 
d="M487 313v-111q0 -65 -20 -106.5t-52.5 -65t-74 -32.5t-83.5 -9q-63 0 -105.5 16.5t-68 47.5t-36.5 74t-11 97v321q0 19 2 43t10 48t22 47t39 40.5t61 28.5t87 11q53 0 95.5 -12t72.5 -38.5t46 -68t16 -99.5v-78h-191v113q0 9 -1 19t-5 18t-10.5 13.5t-17.5 5.5
q-22 0 -28.5 -18.5t-6.5 -36.5v-404q0 -9 1 -19.5t5 -19t11 -14t18 -5.5q20 0 27 19.5t7 38.5v136h191zM263 855l-141 -77l-67 58l141 130h138l136 -130l-67 -58z" />
    <glyph glyph-name="ccircumflex" unicode="&#x109;" horiz-adv-x="464" 
d="M441 254v-45q0 -107 -47.5 -163t-154.5 -56q-65 0 -105.5 17.5t-63.5 47t-31.5 68t-8.5 81.5v204q0 219 209 219q48 0 86 -11t63.5 -36.5t39 -67t13.5 -102.5v-26h-173v80q0 17 -4.5 34.5t-23.5 17.5q-10 0 -16 -5t-9 -12.5t-3.5 -17t-0.5 -17.5v-316q0 -18 4.5 -33.5
t24.5 -15.5q19 0 23.5 15.5t4.5 33.5v106h173zM239 744l-141 -107l-67 58l141 160h138l136 -160l-67 -58z" />
    <glyph glyph-name="Cdotaccent" unicode="&#x10a;" horiz-adv-x="519" 
d="M487 313v-111q0 -65 -20 -106.5t-52.5 -65t-74 -32.5t-83.5 -9q-63 0 -105.5 16.5t-68 47.5t-36.5 74t-11 97v321q0 19 2 43t10 48t22 47t39 40.5t61 28.5t87 11q53 0 95.5 -12t72.5 -38.5t46 -68t16 -99.5v-78h-191v113q0 9 -1 19t-5 18t-10.5 13.5t-17.5 5.5
q-22 0 -28.5 -18.5t-6.5 -36.5v-404q0 -9 1 -19.5t5 -19t11 -14t18 -5.5q20 0 27 19.5t7 38.5v136h191zM195 786v139h136v-139h-136z" />
    <glyph glyph-name="cdotaccent" unicode="&#x10b;" horiz-adv-x="464" 
d="M441 254v-45q0 -107 -47.5 -163t-154.5 -56q-65 0 -105.5 17.5t-63.5 47t-31.5 68t-8.5 81.5v204q0 219 209 219q48 0 86 -11t63.5 -36.5t39 -67t13.5 -102.5v-26h-173v80q0 17 -4.5 34.5t-23.5 17.5q-10 0 -16 -5t-9 -12.5t-3.5 -17t-0.5 -17.5v-316q0 -18 4.5 -33.5
t24.5 -15.5q19 0 23.5 15.5t4.5 33.5v106h173zM174 666v139h136v-139h-136z" />
    <glyph glyph-name="Ccaron" unicode="&#x10c;" horiz-adv-x="519" 
d="M487 313v-111q0 -65 -20 -106.5t-52.5 -65t-74 -32.5t-83.5 -9q-63 0 -105.5 16.5t-68 47.5t-36.5 74t-11 97v321q0 19 2 43t10 48t22 47t39 40.5t61 28.5t87 11q53 0 95.5 -12t72.5 -38.5t46 -68t16 -99.5v-78h-191v113q0 9 -1 19t-5 18t-10.5 13.5t-17.5 5.5
q-22 0 -28.5 -18.5t-6.5 -36.5v-404q0 -9 1 -19.5t5 -19t11 -14t18 -5.5q20 0 27 19.5t7 38.5v136h191zM401 976l67 -58l-136 -130h-138l-141 130l67 58l141 -77z" />
    <glyph glyph-name="ccaron" unicode="&#x10d;" horiz-adv-x="464" 
d="M441 254v-45q0 -107 -47.5 -163t-154.5 -56q-65 0 -105.5 17.5t-63.5 47t-31.5 68t-8.5 81.5v204q0 219 209 219q48 0 86 -11t63.5 -36.5t39 -67t13.5 -102.5v-26h-173v80q0 17 -4.5 34.5t-23.5 17.5q-10 0 -16 -5t-9 -12.5t-3.5 -17t-0.5 -17.5v-316q0 -18 4.5 -33.5
t24.5 -15.5q19 0 23.5 15.5t4.5 33.5v106h173zM378 865l67 -58l-136 -160h-138l-141 160l67 58l141 -107z" />
    <glyph glyph-name="Dcaron" unicode="&#x10e;" horiz-adv-x="518" 
d="M483 224q0 -54 -8 -96t-31 -70.5t-64.5 -43t-107.5 -14.5h-231v752h206q77 0 123.5 -15.5t71.5 -46.5t33 -76.5t8 -105.5v-284zM292 533q0 22 -1 38t-7 27t-18 16.5t-34 5.5v-487q22 0 34 10t18 25.5t7 33.5t1 34v297zM386 966l67 -58l-136 -130h-138l-141 130l67 58
l141 -77z" />
    <glyph glyph-name="dcaron" unicode="&#x10f;" horiz-adv-x="632" 
d="M566 500h-77l37 121h-34v151h147v-150zM268 43q-22 -25 -46.5 -39.5t-60.5 -14.5q-38 0 -63 12.5t-40 34t-21 50t-6 61.5v291q0 36 4.5 70t18.5 61t40 43t69 16q35 0 57.5 -12.5t43.5 -36.5l5 3v190h183v-772h-170l-10 40zM214 158q0 -16 4 -33t22 -17t23.5 16.5
t5.5 33.5v295q0 9 -1 18.5t-4 17.5t-8.5 13t-15.5 5t-15 -5.5t-7.5 -13.5t-3 -18t-0.5 -19v-293z" />
    <glyph glyph-name="Dcroat" unicode="&#x110;" horiz-adv-x="518" 
d="M6 444h35v308h206q77 0 123.5 -15.5t71.5 -46.5t33 -76.5t8 -105.5v-284q0 -54 -8 -96t-31 -70.5t-64.5 -43t-107.5 -14.5h-231v331h-35v113zM292 533q0 22 -1 38t-7 27t-18 16.5t-34 5.5v-176h33v-113h-33v-198q22 0 34 10t18 25.5t7 33.5t1 34v297z" />
    <glyph glyph-name="dcroat" unicode="&#x111;" horiz-adv-x="487" 
d="M191 717h78v55h183v-55h34v-88h-34v-629h-170l-10 40l-4 3q-22 -25 -46.5 -39.5t-60.5 -14.5q-38 0 -63 12.5t-40 34t-21 50t-6 61.5v241q0 36 4.5 70t18.5 61t40 43t69 16q35 0 57.5 -12.5t43.5 -36.5l5 3v97h-78v88zM214 158q0 -16 4 -33t22 -17t23.5 16.5t5.5 33.5
v245q0 9 -1 18.5t-4 17.5t-8.5 13t-15.5 5t-15 -5.5t-7.5 -13.5t-3 -18t-0.5 -19v-243z" />
    <glyph glyph-name="Emacron" unicode="&#x112;" horiz-adv-x="391" 
d="M41 0v752h318v-140h-128v-146h120v-141h-120v-184h141v-141h-331zM49 802v110h291v-110h-291z" />
    <glyph glyph-name="emacron" unicode="&#x113;" horiz-adv-x="480" 
d="M268 409v55q0 17 -4.5 34.5t-23.5 17.5q-10 0 -16 -5t-9 -12.5t-3.5 -17t-0.5 -17.5v-55h57zM211 301v-153q0 -18 4.5 -33.5t24.5 -15.5q19 0 23.5 15.5t4.5 33.5v109h181v-48q0 -107 -53 -163t-157 -56q-65 0 -105.5 17.5t-63.5 47t-31.5 68t-8.5 81.5v204
q0 219 209 219q45 0 83.5 -11t66.5 -36.5t44 -67t16 -102.5v-109h-238zM91 672v110h291v-110h-291z" />
    <glyph glyph-name="Ebreve" unicode="&#x114;" horiz-adv-x="391" 
d="M41 0v752h318v-140h-128v-146h120v-141h-120v-184h141v-141h-331zM195 779q-45 0 -80 18t-59.5 45.5t-37 59.5t-12.5 61h113q0 -12 5 -25t14.5 -24.5t24 -18.5t32.5 -7t32.5 7t24 18.5t14.5 24.5t5 25h113q0 -29 -12.5 -61t-37 -59.5t-59.5 -45.5t-80 -18z" />
    <glyph glyph-name="ebreve" unicode="&#x115;" horiz-adv-x="480" 
d="M268 409v55q0 17 -4.5 34.5t-23.5 17.5q-10 0 -16 -5t-9 -12.5t-3.5 -17t-0.5 -17.5v-55h57zM211 301v-153q0 -18 4.5 -33.5t24.5 -15.5q19 0 23.5 15.5t4.5 33.5v109h181v-48q0 -107 -53 -163t-157 -56q-65 0 -105.5 17.5t-63.5 47t-31.5 68t-8.5 81.5v204
q0 219 209 219q45 0 83.5 -11t66.5 -36.5t44 -67t16 -102.5v-109h-238zM240 653q-45 0 -80 18t-59.5 45.5t-37 59.5t-12.5 61h113q0 -12 5 -25t14.5 -24.5t24 -18.5t32.5 -7t32.5 7t24 18.5t14.5 24.5t5 25h113q0 -29 -12.5 -61t-37 -59.5t-59.5 -45.5t-80 -18z" />
    <glyph glyph-name="Edotaccent" unicode="&#x116;" horiz-adv-x="391" 
d="M41 0v752h318v-140h-128v-146h120v-141h-120v-184h141v-141h-331zM131 786v139h136v-139h-136z" />
    <glyph glyph-name="edotaccent" unicode="&#x117;" horiz-adv-x="480" 
d="M268 409v55q0 17 -4.5 34.5t-23.5 17.5q-10 0 -16 -5t-9 -12.5t-3.5 -17t-0.5 -17.5v-55h57zM211 301v-153q0 -18 4.5 -33.5t24.5 -15.5q19 0 23.5 15.5t4.5 33.5v109h181v-48q0 -107 -53 -163t-157 -56q-65 0 -105.5 17.5t-63.5 47t-31.5 68t-8.5 81.5v204
q0 219 209 219q45 0 83.5 -11t66.5 -36.5t44 -67t16 -102.5v-109h-238zM175 666v139h136v-139h-136z" />
    <glyph glyph-name="Eogonek" unicode="&#x118;" horiz-adv-x="391" 
d="M372 0q-30 -28 -41 -47.5t-11 -38.5q0 -8 6 -13t14 -5t18.5 3.5t30.5 14.5l27 -75q-19 -17 -45.5 -26.5t-49.5 -9.5q-21 0 -39.5 6t-33 18t-23 29t-8.5 40q0 32 14 57.5t34 46.5h-224v752h318v-140h-128v-146h120v-141h-120v-184h141v-141v0z" />
    <glyph glyph-name="eogonek" unicode="&#x119;" horiz-adv-x="480" 
d="M211 301v-153q0 -18 4.5 -33.5t24.5 -15.5q19 0 23.5 15.5t4.5 33.5v109h181v-48q0 -95 -42 -150t-124 -66q-22 -22 -30 -39t-8 -34q0 -8 6 -13t14 -5t18.5 3.5t30.5 14.5l27 -75q-19 -17 -45.5 -26.5t-49.5 -9.5q-21 0 -39.5 6t-33 18t-23 29t-8.5 40q0 28 11 50.5
t27 42.5q-46 7 -75.5 27t-46 47.5t-22.5 62t-6 72.5v204q0 219 209 219q45 0 83.5 -11t66.5 -36.5t44 -67t16 -102.5v-109h-238zM268 409v55q0 17 -4.5 34.5t-23.5 17.5q-10 0 -16 -5t-9 -12.5t-3.5 -17t-0.5 -17.5v-55h57z" />
    <glyph glyph-name="Ecaron" unicode="&#x11a;" horiz-adv-x="391" 
d="M41 0v752h318v-140h-128v-146h120v-141h-120v-184h141v-141h-331zM341 966l67 -58l-136 -130h-138l-141 130l67 58l141 -77z" />
    <glyph glyph-name="ecaron" unicode="&#x11b;" horiz-adv-x="480" 
d="M268 409v55q0 17 -4.5 34.5t-23.5 17.5q-10 0 -16 -5t-9 -12.5t-3.5 -17t-0.5 -17.5v-55h57zM211 301v-153q0 -18 4.5 -33.5t24.5 -15.5q19 0 23.5 15.5t4.5 33.5v109h181v-48q0 -107 -53 -163t-157 -56q-65 0 -105.5 17.5t-63.5 47t-31.5 68t-8.5 81.5v204
q0 219 209 219q45 0 83.5 -11t66.5 -36.5t44 -67t16 -102.5v-109h-238zM381 875l67 -58l-136 -160h-138l-141 160l67 58l141 -107z" />
    <glyph glyph-name="Gcircumflex" unicode="&#x11c;" horiz-adv-x="517" 
d="M347 54q-20 -33 -51.5 -48.5t-66.5 -15.5q-57 0 -94 14.5t-59 42t-31 68.5t-9 95v335q0 29 6.5 66.5t29.5 71.5t67.5 57t121.5 23q106 0 166 -50.5t60 -167.5v-78h-191v113q0 9 -1 19t-5 18t-10.5 13.5t-17.5 5.5q-22 0 -28.5 -18.5t-6.5 -36.5v-404q0 -9 1 -19.5t5 -19
t11 -14t18 -5.5q22 0 28 16.5t6 37.5v116h-33v115h224v-404h-116l-21 54h-3zM263 855l-141 -77l-67 58l141 130h138l136 -130l-67 -58z" />
    <glyph glyph-name="gcircumflex" unicode="&#x11d;" horiz-adv-x="544" 
d="M97 114q-40 17 -57.5 35.5t-17.5 56.5q0 30 22.5 58t67.5 44q-32 21 -48 52t-16 76q0 91 58.5 141.5t159.5 50.5q118 0 174 -51q19 21 50 39t64 23v-109q-47 0 -77 -12q5 -14 6.5 -32t1.5 -42q0 -34 -13.5 -65t-40.5 -55t-68 -38t-97 -14q-12 0 -21.5 0.5t-20.5 1.5
q-14 -8 -21.5 -12.5t-7.5 -11.5q0 -14 22 -17t50 -3q124 0 189.5 -42t65.5 -144q0 -40 -17 -75t-50 -61.5t-82 -41.5t-113 -15q-72 0 -118 13.5t-72.5 35.5t-37 50t-10.5 57q0 36 21.5 63t53.5 41v3zM299 474q0 21 -7.5 32.5t-25.5 11.5q-30 0 -30 -44v-54q0 -20 6 -30.5
t24 -10.5t25.5 10t7.5 31v54zM232 102q-14 -7 -25.5 -21t-11.5 -41q0 -11 2.5 -22t10 -19.5t21 -14t36.5 -5.5q38 0 55 19.5t17 39.5q0 29 -13 42.5t-45 18.5q-20 3 -47 3zM268 744l-141 -107l-67 58l141 160h138l136 -160l-67 -58z" />
    <glyph glyph-name="Gbreve" unicode="&#x11e;" horiz-adv-x="517" 
d="M347 54q-20 -33 -51.5 -48.5t-66.5 -15.5q-57 0 -94 14.5t-59 42t-31 68.5t-9 95v335q0 29 6.5 66.5t29.5 71.5t67.5 57t121.5 23q106 0 166 -50.5t60 -167.5v-78h-191v113q0 9 -1 19t-5 18t-10.5 13.5t-17.5 5.5q-22 0 -28.5 -18.5t-6.5 -36.5v-404q0 -9 1 -19.5t5 -19
t11 -14t18 -5.5q22 0 28 16.5t6 37.5v116h-33v115h224v-404h-116l-21 54h-3zM263 789q-45 0 -80 18t-59.5 45.5t-37 59.5t-12.5 61h113q0 -12 5 -25t14.5 -24.5t24 -18.5t32.5 -7t32.5 7t24 18.5t14.5 24.5t5 25h113q0 -29 -12.5 -61t-37 -59.5t-59.5 -45.5t-80 -18z" />
    <glyph glyph-name="gbreve" unicode="&#x11f;" horiz-adv-x="544" 
d="M97 114q-40 17 -57.5 35.5t-17.5 56.5q0 30 22.5 58t67.5 44q-32 21 -48 52t-16 76q0 91 58.5 141.5t159.5 50.5q118 0 174 -51q19 21 50 39t64 23v-109q-47 0 -77 -12q5 -14 6.5 -32t1.5 -42q0 -34 -13.5 -65t-40.5 -55t-68 -38t-97 -14q-12 0 -21.5 0.5t-20.5 1.5
q-14 -8 -21.5 -12.5t-7.5 -11.5q0 -14 22 -17t50 -3q124 0 189.5 -42t65.5 -144q0 -40 -17 -75t-50 -61.5t-82 -41.5t-113 -15q-72 0 -118 13.5t-72.5 35.5t-37 50t-10.5 57q0 36 21.5 63t53.5 41v3zM299 474q0 21 -7.5 32.5t-25.5 11.5q-30 0 -30 -44v-54q0 -20 6 -30.5
t24 -10.5t25.5 10t7.5 31v54zM232 102q-14 -7 -25.5 -21t-11.5 -41q0 -11 2.5 -22t10 -19.5t21 -14t36.5 -5.5q38 0 55 19.5t17 39.5q0 29 -13 42.5t-45 18.5q-20 3 -47 3zM268 663q-45 0 -80 18t-59.5 45.5t-37 59.5t-12.5 61h113q0 -12 5 -25t14.5 -24.5t24 -18.5t32.5 -7
t32.5 7t24 18.5t14.5 24.5t5 25h113q0 -29 -12.5 -61t-37 -59.5t-59.5 -45.5t-80 -18z" />
    <glyph glyph-name="Gdotaccent" unicode="&#x120;" horiz-adv-x="517" 
d="M347 54q-20 -33 -51.5 -48.5t-66.5 -15.5q-57 0 -94 14.5t-59 42t-31 68.5t-9 95v335q0 29 6.5 66.5t29.5 71.5t67.5 57t121.5 23q106 0 166 -50.5t60 -167.5v-78h-191v113q0 9 -1 19t-5 18t-10.5 13.5t-17.5 5.5q-22 0 -28.5 -18.5t-6.5 -36.5v-404q0 -9 1 -19.5t5 -19
t11 -14t18 -5.5q22 0 28 16.5t6 37.5v116h-33v115h224v-404h-116l-21 54h-3zM193 786v139h136v-139h-136z" />
    <glyph glyph-name="gdotaccent" unicode="&#x121;" horiz-adv-x="544" 
d="M97 114q-40 17 -57.5 35.5t-17.5 56.5q0 30 22.5 58t67.5 44q-32 21 -48 52t-16 76q0 91 58.5 141.5t159.5 50.5q118 0 174 -51q19 21 50 39t64 23v-109q-47 0 -77 -12q5 -14 6.5 -32t1.5 -42q0 -34 -13.5 -65t-40.5 -55t-68 -38t-97 -14q-12 0 -21.5 0.5t-20.5 1.5
q-14 -8 -21.5 -12.5t-7.5 -11.5q0 -14 22 -17t50 -3q124 0 189.5 -42t65.5 -144q0 -40 -17 -75t-50 -61.5t-82 -41.5t-113 -15q-72 0 -118 13.5t-72.5 35.5t-37 50t-10.5 57q0 36 21.5 63t53.5 41v3zM299 474q0 21 -7.5 32.5t-25.5 11.5q-30 0 -30 -44v-54q0 -20 6 -30.5
t24 -10.5t25.5 10t7.5 31v54zM232 102q-14 -7 -25.5 -21t-11.5 -41q0 -11 2.5 -22t10 -19.5t21 -14t36.5 -5.5q38 0 55 19.5t17 39.5q0 29 -13 42.5t-45 18.5q-20 3 -47 3zM198 666v139h136v-139h-136z" />
    <glyph glyph-name="Gcommaaccent" unicode="&#x122;" horiz-adv-x="517" 
d="M347 54q-20 -33 -51.5 -48.5t-66.5 -15.5q-57 0 -94 14.5t-59 42t-31 68.5t-9 95v335q0 29 6.5 66.5t29.5 71.5t67.5 57t121.5 23q106 0 166 -50.5t60 -167.5v-78h-191v113q0 9 -1 19t-5 18t-10.5 13.5t-17.5 5.5q-22 0 -28.5 -18.5t-6.5 -36.5v-404q0 -9 1 -19.5t5 -19
t11 -14t18 -5.5q22 0 28 16.5t6 37.5v116h-33v115h224v-404h-116l-21 54h-3zM266 -302h-77l37 121h-34v151h147v-150z" />
    <glyph glyph-name="gcommaaccent" unicode="&#x123;" horiz-adv-x="544" 
d="M266 940h77l-37 -121h34v-151h-147v150zM97 114q-40 17 -57.5 35.5t-17.5 56.5q0 30 22.5 58t67.5 44q-32 21 -48 52t-16 76q0 91 58.5 141.5t159.5 50.5q118 0 174 -51q19 21 50 39t64 23v-109q-47 0 -77 -12q5 -14 6.5 -32t1.5 -42q0 -34 -13.5 -65t-40.5 -55t-68 -38
t-97 -14q-12 0 -21.5 0.5t-20.5 1.5q-14 -8 -21.5 -12.5t-7.5 -11.5q0 -14 22 -17t50 -3q124 0 189.5 -42t65.5 -144q0 -40 -17 -75t-50 -61.5t-82 -41.5t-113 -15q-72 0 -118 13.5t-72.5 35.5t-37 50t-10.5 57q0 36 21.5 63t53.5 41v3zM299 474q0 21 -7.5 32.5t-25.5 11.5
q-30 0 -30 -44v-54q0 -20 6 -30.5t24 -10.5t25.5 10t7.5 31v54zM232 102q-14 -7 -25.5 -21t-11.5 -41q0 -11 2.5 -22t10 -19.5t21 -14t36.5 -5.5q38 0 55 19.5t17 39.5q0 29 -13 42.5t-45 18.5q-20 3 -47 3z" />
    <glyph glyph-name="Hcircumflex" unicode="&#x124;" horiz-adv-x="531" 
d="M299 0v325h-67v-325h-191v752h191v-286h67v286h191v-752h-191zM268 855l-141 -77l-67 58l141 130h138l136 -130l-67 -58z" />
    <glyph glyph-name="hcircumflex" unicode="&#x125;" horiz-adv-x="491" 
d="M224 579q22 23 48.5 36t56.5 13q45 0 71 -15t39 -39.5t16.5 -57t3.5 -68.5v-448h-183v453q0 9 -0.5 18.5t-3 17.5t-8 13t-15.5 5q-9 0 -15 -5t-9 -13t-4 -17.5t-1 -17.5v-454h-184v772h183v-192zM133 861l-141 -77l-67 58l141 130h138l136 -130l-67 -58z" />
    <glyph glyph-name="Hbar" unicode="&#x126;" horiz-adv-x="531" 
d="M299 0v325h-67v-325h-191v570h-38v85h38v97h191v-97h67v97h191v-97h27v-85h-27v-570h-191zM299 466v104h-67v-104h67z" />
    <glyph glyph-name="hbar" unicode="&#x127;" horiz-adv-x="491" 
d="M224 529q22 23 48.5 36t56.5 13q45 0 71 -15t39 -39.5t16.5 -57t3.5 -68.5v-398h-183v403q0 9 -0.5 18.5t-3 17.5t-8 13t-15.5 5q-9 0 -15 -5t-9 -13t-4 -17.5t-1 -17.5v-404h-184v632h-36v85h36v55h183v-55h130v-85h-130v-102z" />
    <glyph glyph-name="Itilde" unicode="&#x128;" horiz-adv-x="355" 
d="M81 0v752h190v-752h-190zM365 912q-3 -25 -12 -50.5t-23 -46t-33 -33.5t-42 -13q-25 0 -45 5.5t-38.5 12t-36.5 12t-39 5.5q-16 0 -29.5 -6t-27.5 -27l-49 15q2 20 8.5 44t19 44.5t32 34.5t48.5 14q24 0 44 -5t38 -11.5t36 -11.5t39 -5q16 0 30.5 7t28.5 27z" />
    <glyph glyph-name="itilde" unicode="&#x129;" horiz-adv-x="355" 
d="M82 0v617h188v-617h-188zM365 804q-3 -25 -12 -50.5t-23 -46t-33 -33.5t-42 -13q-25 0 -45 5.5t-38.5 12t-36.5 12t-39 5.5q-16 0 -29.5 -6t-27.5 -27l-49 15q2 20 8.5 44t19 44.5t32 34.5t48.5 14q24 0 44 -5t38 -11.5t36 -11.5t39 -5q16 0 30.5 7t28.5 27z" />
    <glyph glyph-name="Imacron" unicode="&#x12a;" horiz-adv-x="272" 
d="M41 0v752h190v-752h-190zM-9 802v110h291v-110h-291z" />
    <glyph glyph-name="imacron" unicode="&#x12b;" horiz-adv-x="259" 
d="M36 0v617h188v-617h-188zM-14 672v110h291v-110h-291z" />
    <glyph glyph-name="Ibreve" unicode="&#x12c;" horiz-adv-x="358" 
d="M85 0v752h190v-752h-190zM179 779q-45 0 -80 18t-59.5 45.5t-37 59.5t-12.5 61h113q0 -12 5 -25t14.5 -24.5t24 -18.5t32.5 -7t32.5 7t24 18.5t14.5 24.5t5 25h113q0 -29 -12.5 -61t-37 -59.5t-59.5 -45.5t-80 -18z" />
    <glyph glyph-name="ibreve" unicode="&#x12d;" horiz-adv-x="358" 
d="M85 0v617h188v-617h-188zM178 659q-45 0 -80 18t-59.5 45.5t-37 59.5t-12.5 61h113q0 -12 5 -25t14.5 -24.5t24 -18.5t32.5 -7t32.5 7t24 18.5t14.5 24.5t5 25h113q0 -29 -12.5 -61t-37 -59.5t-59.5 -45.5t-80 -18z" />
    <glyph glyph-name="Iogonek" unicode="&#x12e;" horiz-adv-x="272" 
d="M188 0q-29 -27 -40 -46.5t-11 -38.5q0 -8 6 -13t14 -5t18.5 3.5t30.5 14.5l27 -75q-19 -17 -45.5 -26.5t-49.5 -9.5q-21 0 -39.5 6t-33 18t-23 29t-8.5 40q0 32 14 57t33 46h-40v752h190v-752h-43z" />
    <glyph glyph-name="iogonek" unicode="&#x12f;" horiz-adv-x="259" 
d="M182 0q-29 -27 -39.5 -46t-10.5 -38q0 -8 6 -13t14 -5t18.5 3.5t30.5 14.5l27 -75q-19 -17 -45.5 -26.5t-49.5 -9.5q-21 0 -39.5 6t-33 18t-23 29t-8.5 40q0 31 13.5 56t32.5 46h-39v617h188v-617h-42zM36 652v120h188v-120h-188z" />
    <glyph glyph-name="Idotaccent" unicode="&#x130;" horiz-adv-x="272" 
d="M41 0v752h190v-752h-190zM72 786v139h136v-139h-136z" />
    <glyph glyph-name="IJ" unicode="&#x132;" horiz-adv-x="734" 
d="M35 0v752h190v-752h-190zM449 169q0 -19 6 -34.5t25 -15.5q17 0 22.5 17t5.5 36v580h191v-519q0 -40 -6.5 -83t-29 -79t-67.5 -59t-121 -23q-68 0 -110.5 18.5t-65.5 51.5t-31 77.5t-8 96.5v69h189v-133z" />
    <glyph glyph-name="ij" unicode="&#x133;" horiz-adv-x="536" 
d="M35 652v120h188v-120h-188zM35 0v617h188v-617h-188zM312 652v120h189v-120h-189zM501 92q0 -48 -4 -89.5t-20 -72t-48 -48.5t-87 -18h-87v127h25q17 0 24.5 9t7.5 32v585h189v-525z" />
    <glyph glyph-name="Jcircumflex" unicode="&#x134;" horiz-adv-x="460" 
d="M179 170q0 -19 6 -34.5t25 -15.5q17 0 22.5 17t5.5 36v580h191v-519q0 -40 -6.5 -83t-29 -79t-67.5 -59t-121 -23q-68 0 -110.5 18.5t-65.5 51.5t-31 77.5t-8 96.5v69h189v-133zM334 857l-141 -77l-67 58l141 130h138l136 -130l-67 -58z" />
    <glyph glyph-name="jcircumflex" unicode="&#x135;" horiz-adv-x="265" 
d="M230 92q0 -48 -4 -89.5t-20 -72t-48 -48.5t-87 -18h-87v127h25q17 0 24.5 9t7.5 32v585h189v-525zM135 744l-141 -107l-67 58l141 160h138l136 -160l-67 -58z" />
    <glyph glyph-name="Kcommaaccent" unicode="&#x136;" horiz-adv-x="513" 
d="M238 478l73 274h188l-114 -339l121 -413h-197l-73 304h-4v-304h-191v752h191v-274h6zM265 -299h-77l37 121h-34v151h147v-150z" />
    <glyph glyph-name="kcommaaccent" unicode="&#x137;" horiz-adv-x="473" 
d="M226 444l54 173h188l-103 -249l102 -368h-185l-57 251h-6v-251h-183v752h183v-308h7zM251 -302h-77l37 121h-34v151h147v-150z" />
    <glyph glyph-name="kgreenlandic" unicode="&#x138;" horiz-adv-x="473" 
d="M226 444l54 173h188l-103 -249l102 -368h-185l-57 251h-6v-251h-183v617h183v-173h7z" />
    <glyph glyph-name="Lacute" unicode="&#x139;" horiz-adv-x="358" 
d="M41 0v752h191v-601h116v-151h-307zM53 858l171 135l84 -116l-198 -97z" />
    <glyph glyph-name="lacute" unicode="&#x13a;" horiz-adv-x="259" 
d="M36 0v752h188v-752h-188zM60 864l171 135l84 -116l-198 -97z" />
    <glyph glyph-name="Lcommaaccent" unicode="&#x13b;" horiz-adv-x="358" 
d="M41 0v752h191v-601h116v-151h-307zM194 -302h-77l37 121h-34v151h147v-150z" />
    <glyph glyph-name="lcommaaccent" unicode="&#x13c;" horiz-adv-x="259" 
d="M36 0v752h188v-752h-188zM131 -302h-77l37 121h-34v151h147v-150z" />
    <glyph glyph-name="Lcaron" unicode="&#x13d;" horiz-adv-x="427" 
d="M41 0v752h191v-601h116v-151h-307zM353 479h-77l37 121h-34v151h147v-150z" />
    <glyph glyph-name="lcaron" unicode="&#x13e;" horiz-adv-x="401" 
d="M331 480h-77l37 121h-34v151h147v-150zM36 0v752h188v-752h-188z" />
    <glyph glyph-name="Ldot" unicode="&#x13f;" horiz-adv-x="441" 
d="M41 0v752h191v-601h116v-151h-307zM280 380v139h136v-139h-136z" />
    <glyph glyph-name="ldot" unicode="&#x140;" horiz-adv-x="411" 
d="M260 357v139h136v-139h-136zM36 0v752h188v-752h-188z" />
    <glyph glyph-name="Lslash" unicode="&#x141;" horiz-adv-x="365" 
d="M-32 279l93 56v417h191v-302l56 34l50 -88l-106 -64v-181h116v-151h-307v217l-44 -26z" />
    <glyph glyph-name="lslash" unicode="&#x142;" horiz-adv-x="309" 
d="M-19 327l75 44v381h188v-269l33 20l50 -88l-83 -49v-366h-188v254l-26 -15z" />
    <glyph glyph-name="Nacute" unicode="&#x143;" horiz-adv-x="538" 
d="M323 400v352h174v-752h-182l-54 198l-39 158h-6v-356h-175v752h175l56 -189l45 -163h6zM198 854l171 135l84 -116l-198 -97z" />
    <glyph glyph-name="nacute" unicode="&#x144;" horiz-adv-x="491" 
d="M222 566q39 62 112 62q45 0 70 -17t37 -44.5t14.5 -62t2.5 -69.5v-435h-183v456q0 9 -1 18.5t-3.5 17.5t-8 13t-14.5 5t-15 -5t-9 -13t-4.5 -17.5t-1.5 -17.5v-457h-182v617h170l12 -50zM155 709l132 184l126 -94l-174 -152z" />
    <glyph glyph-name="Ncommaaccent" unicode="&#x145;" horiz-adv-x="538" 
d="M323 400v352h174v-752h-182l-54 198l-39 158h-6v-356h-175v752h175l56 -189l45 -163h6zM251 -302h-77l37 121h-34v151h147v-150z" />
    <glyph glyph-name="ncommaaccent" unicode="&#x146;" horiz-adv-x="491" 
d="M222 566q39 62 112 62q45 0 70 -17t37 -44.5t14.5 -62t2.5 -69.5v-435h-183v456q0 9 -1 18.5t-3.5 17.5t-8 13t-14.5 5t-15 -5t-9 -13t-4.5 -17.5t-1.5 -17.5v-457h-182v617h170l12 -50zM248 -307h-77l37 121h-34v151h147v-150z" />
    <glyph glyph-name="Ncaron" unicode="&#x147;" horiz-adv-x="538" 
d="M323 400v352h174v-752h-182l-54 198l-39 158h-6v-356h-175v752h175l56 -189l45 -163h6zM405 966l67 -58l-136 -130h-138l-141 130l67 58l141 -77z" />
    <glyph glyph-name="ncaron" unicode="&#x148;" horiz-adv-x="491" 
d="M222 566q39 62 112 62q45 0 70 -17t37 -44.5t14.5 -62t2.5 -69.5v-435h-183v456q0 9 -1 18.5t-3.5 17.5t-8 13t-14.5 5t-15 -5t-9 -13t-4.5 -17.5t-1.5 -17.5v-457h-182v617h170l12 -50zM387 865l67 -58l-136 -160h-138l-141 160l67 58l141 -107z" />
    <glyph glyph-name="napostrophe" unicode="&#x149;" horiz-adv-x="612" 
d="M343 566q39 62 112 62q45 0 70 -17t37 -44.5t14.5 -62t2.5 -69.5v-435h-183v456q0 9 -1 18.5t-3.5 17.5t-8 13t-14.5 5t-15 -5t-9 -13t-4.5 -17.5t-1.5 -17.5v-457h-182v617h170l12 -50zM72 519h-77l37 121h-34v151h147v-150z" />
    <glyph glyph-name="Eng" unicode="&#x14a;" horiz-adv-x="538" 
d="M323 400v352h174v-814q0 -28 -7 -55t-24.5 -48t-46.5 -34t-73 -13q-23 0 -52 5t-55 17l17 111q5 -1 10 -1h9q26 0 32.5 8t6.5 25v73l-92 330h-6v-356h-175v752h175l56 -189l45 -163h6z" />
    <glyph glyph-name="eng" unicode="&#x14b;" horiz-adv-x="491" 
d="M222 566q39 62 112 62q45 0 70 -17t37 -44.5t14.5 -62t2.5 -69.5v-477q0 -28 -7 -55t-24.5 -48t-46.5 -34t-73 -13q-23 0 -52 5t-55 17l17 111q5 -1 10 -1h9q26 0 32.5 8t6.5 25v483q0 9 -1 18.5t-3.5 17.5t-8 13t-14.5 5t-15 -5t-9 -13t-4.5 -17.5t-1.5 -17.5v-457h-182
v617h170l12 -50z" />
    <glyph glyph-name="Omacron" unicode="&#x14c;" horiz-adv-x="512" 
d="M477 202q0 -65 -20 -106.5t-51.5 -65t-70.5 -32.5t-78 -9q-63 0 -105.5 16.5t-68 47.5t-36.5 74t-11 97v321q0 19 2 43t10 48t22 47t39 40.5t61 28.5t87 11q49 0 90 -12t69.5 -38.5t44.5 -68t16 -99.5v-343zM286 580q0 9 -0.5 19t-3 18t-8.5 13.5t-17 5.5t-17 -5
t-9 -13.5t-3.5 -18t-0.5 -18.5v-404q0 -9 0.5 -19.5t3.5 -19t9.5 -14t17.5 -5.5q10 0 15.5 5.5t8.5 14t3.5 19t0.5 19.5v403zM113 802v110h291v-110h-291z" />
    <glyph glyph-name="omacron" unicode="&#x14d;" horiz-adv-x="480" 
d="M449 209q0 -107 -53 -163t-157 -56q-65 0 -105.5 17.5t-63.5 47t-31.5 68t-8.5 81.5v204q0 219 209 219q45 0 83.5 -11t66.5 -36.5t44 -67t16 -102.5v-201zM268 464q0 17 -4.5 34.5t-23.5 17.5q-10 0 -16 -5t-9 -12.5t-3.5 -17t-0.5 -17.5v-316q0 -18 4.5 -33.5
t24.5 -15.5q19 0 23.5 15.5t4.5 33.5v316zM91 672v110h291v-110h-291z" />
    <glyph glyph-name="Obreve" unicode="&#x14e;" horiz-adv-x="512" 
d="M477 202q0 -65 -20 -106.5t-51.5 -65t-70.5 -32.5t-78 -9q-63 0 -105.5 16.5t-68 47.5t-36.5 74t-11 97v321q0 19 2 43t10 48t22 47t39 40.5t61 28.5t87 11q49 0 90 -12t69.5 -38.5t44.5 -68t16 -99.5v-343zM286 580q0 9 -0.5 19t-3 18t-8.5 13.5t-17 5.5t-17 -5
t-9 -13.5t-3.5 -18t-0.5 -18.5v-404q0 -9 0.5 -19.5t3.5 -19t9.5 -14t17.5 -5.5q10 0 15.5 5.5t8.5 14t3.5 19t0.5 19.5v403zM256 789q-45 0 -80 18t-59.5 45.5t-37 59.5t-12.5 61h113q0 -12 5 -25t14.5 -24.5t24 -18.5t32.5 -7t32.5 7t24 18.5t14.5 24.5t5 25h113
q0 -29 -12.5 -61t-37 -59.5t-59.5 -45.5t-80 -18z" />
    <glyph glyph-name="obreve" unicode="&#x14f;" horiz-adv-x="480" 
d="M449 209q0 -107 -53 -163t-157 -56q-65 0 -105.5 17.5t-63.5 47t-31.5 68t-8.5 81.5v204q0 219 209 219q45 0 83.5 -11t66.5 -36.5t44 -67t16 -102.5v-201zM268 464q0 17 -4.5 34.5t-23.5 17.5q-10 0 -16 -5t-9 -12.5t-3.5 -17t-0.5 -17.5v-316q0 -18 4.5 -33.5
t24.5 -15.5q19 0 23.5 15.5t4.5 33.5v316zM241 653q-45 0 -80 18t-59.5 45.5t-37 59.5t-12.5 61h113q0 -12 5 -25t14.5 -24.5t24 -18.5t32.5 -7t32.5 7t24 18.5t14.5 24.5t5 25h113q0 -29 -12.5 -61t-37 -59.5t-59.5 -45.5t-80 -18z" />
    <glyph glyph-name="Ohungarumlaut" unicode="&#x150;" horiz-adv-x="512" 
d="M477 202q0 -65 -20 -106.5t-51.5 -65t-70.5 -32.5t-78 -9q-63 0 -105.5 16.5t-68 47.5t-36.5 74t-11 97v321q0 19 2 43t10 48t22 47t39 40.5t61 28.5t87 11q49 0 90 -12t69.5 -38.5t44.5 -68t16 -99.5v-343zM286 580q0 9 -0.5 19t-3 18t-8.5 13.5t-17 5.5t-17 -5
t-9 -13.5t-3.5 -18t-0.5 -18.5v-404q0 -9 0.5 -19.5t3.5 -19t9.5 -14t17.5 -5.5q10 0 15.5 5.5t8.5 14t3.5 19t0.5 19.5v403zM301 836l144 147l92 -98l-173 -115zM100 836l144 147l92 -98l-173 -115z" />
    <glyph glyph-name="ohungarumlaut" unicode="&#x151;" horiz-adv-x="480" 
d="M449 209q0 -107 -53 -163t-157 -56q-65 0 -105.5 17.5t-63.5 47t-31.5 68t-8.5 81.5v204q0 219 209 219q45 0 83.5 -11t66.5 -36.5t44 -67t16 -102.5v-201zM268 464q0 17 -4.5 34.5t-23.5 17.5q-10 0 -16 -5t-9 -12.5t-3.5 -17t-0.5 -17.5v-316q0 -18 4.5 -33.5
t24.5 -15.5q19 0 23.5 15.5t4.5 33.5v316zM245 709l132 184l126 -94l-174 -152zM41 709l132 184l126 -94l-174 -152z" />
    <glyph glyph-name="Racute" unicode="&#x154;" horiz-adv-x="505" 
d="M402 397q41 -16 55 -42t14 -73v-210q0 -21 1 -38t12 -34h-176q-8 14 -10.5 33.5t-2.5 44.5v172q0 47 -13.5 67.5t-50.5 22.5v-340h-190v753h259q84 0 127.5 -46.5t43.5 -149.5q0 -67 -14.5 -103t-54.5 -53v-4zM231 624v-168q21 1 33.5 4t19 12.5t9 26.5t2.5 45
q0 24 -2 39.5t-8.5 24.5t-18.5 12.5t-33 3.5h-2zM168 854l171 135l84 -116l-198 -97z" />
    <glyph glyph-name="racute" unicode="&#x155;" horiz-adv-x="461" 
d="M223 562q21 29 43.5 47.5t58.5 18.5q45 0 69.5 -15t36.5 -40.5t14.5 -58t2.5 -68.5v-103h-182v125q0 17 -4 29.5t-19 12.5q-14 0 -19 -12.5t-5 -29.5v-468h-183v617h169l12 -54zM136 709l132 184l126 -94l-174 -152z" />
    <glyph glyph-name="Rcommaaccent" unicode="&#x156;" horiz-adv-x="505" 
d="M402 397q41 -16 55 -42t14 -73v-210q0 -21 1 -38t12 -34h-176q-8 14 -10.5 33.5t-2.5 44.5v172q0 47 -13.5 67.5t-50.5 22.5v-340h-190v753h259q84 0 127.5 -46.5t43.5 -149.5q0 -67 -14.5 -103t-54.5 -53v-4zM231 624v-168q21 1 33.5 4t19 12.5t9 26.5t2.5 45
q0 24 -2 39.5t-8.5 24.5t-18.5 12.5t-33 3.5h-2zM265 -302h-77l37 121h-34v151h147v-150z" />
    <glyph glyph-name="rcommaaccent" unicode="&#x157;" horiz-adv-x="461" 
d="M223 562q21 29 43.5 47.5t58.5 18.5q45 0 69.5 -15t36.5 -40.5t14.5 -58t2.5 -68.5v-103h-182v125q0 17 -4 29.5t-19 12.5q-14 0 -19 -12.5t-5 -29.5v-468h-183v617h169l12 -54zM126 -302h-77l37 121h-34v151h147v-150z" />
    <glyph glyph-name="Rcaron" unicode="&#x158;" horiz-adv-x="505" 
d="M402 397q41 -16 55 -42t14 -73v-210q0 -21 1 -38t12 -34h-176q-8 14 -10.5 33.5t-2.5 44.5v172q0 47 -13.5 67.5t-50.5 22.5v-340h-190v753h259q84 0 127.5 -46.5t43.5 -149.5q0 -67 -14.5 -103t-54.5 -53v-4zM231 624v-168q21 1 33.5 4t19 12.5t9 26.5t2.5 45
q0 24 -2 39.5t-8.5 24.5t-18.5 12.5t-33 3.5h-2zM381 966l67 -58l-136 -130h-138l-141 130l67 58l141 -77z" />
    <glyph glyph-name="rcaron" unicode="&#x159;" horiz-adv-x="461" 
d="M223 562q21 29 43.5 47.5t58.5 18.5q45 0 69.5 -15t36.5 -40.5t14.5 -58t2.5 -68.5v-103h-182v125q0 17 -4 29.5t-19 12.5q-14 0 -19 -12.5t-5 -29.5v-468h-183v617h169l12 -54zM350 865l67 -58l-136 -160h-138l-141 160l67 58l141 -107z" />
    <glyph glyph-name="Sacute" unicode="&#x15a;" horiz-adv-x="485" 
d="M461 192q0 -55 -15 -93.5t-43 -63t-68 -35.5t-91 -11q-72 0 -114.5 20.5t-64.5 54t-28 75.5t-6 86v52h177v-96q0 -11 1 -22t4.5 -21t10.5 -16t18 -6q12 0 19.5 5.5t11.5 14t5.5 19t1.5 20.5q0 31 -4.5 51t-16.5 36t-32.5 30.5t-53.5 35.5q-39 25 -67 46.5t-46 46
t-26.5 57t-8.5 79.5q0 54 15.5 93t44 64t67.5 37t87 12q69 0 110 -19t62.5 -49t28 -67.5t6.5 -75.5v-43h-178v67q0 23 -6 41.5t-26 18.5t-26 -17t-6 -35q0 -29 7 -47.5t21.5 -33t37 -28.5t54.5 -34q46 -29 73 -54.5t41.5 -53t18.5 -61.5t4 -80zM142 864l171 135l84 -116
l-198 -97z" />
    <glyph glyph-name="sacute" unicode="&#x15b;" horiz-adv-x="442" 
d="M424 182q0 -102 -53 -147.5t-149 -45.5q-107 0 -153.5 45.5t-46.5 143.5v38l167 1v-42q0 -14 0.5 -27.5t4 -24.5t10.5 -18t19 -7q23 0 28 16.5t5 37.5q0 18 -5 32t-18 27.5t-35 28t-56 34.5q-28 16 -50 31t-37.5 34t-24 44.5t-8.5 62.5q0 94 51.5 138t147.5 44
q99 0 148.5 -38.5t49.5 -131.5v-38h-172v52q0 15 -5 30t-25 15q-19 0 -24 -14t-5 -30q0 -20 5 -34t16 -25.5t28 -21.5t41 -22q37 -20 64.5 -36.5t45.5 -37t27 -47.5t9 -67zM137 709l132 184l126 -94l-174 -152z" />
    <glyph glyph-name="Scircumflex" unicode="&#x15c;" horiz-adv-x="485" 
d="M461 192q0 -55 -15 -93.5t-43 -63t-68 -35.5t-91 -11q-72 0 -114.5 20.5t-64.5 54t-28 75.5t-6 86v52h177v-96q0 -11 1 -22t4.5 -21t10.5 -16t18 -6q12 0 19.5 5.5t11.5 14t5.5 19t1.5 20.5q0 31 -4.5 51t-16.5 36t-32.5 30.5t-53.5 35.5q-39 25 -67 46.5t-46 46
t-26.5 57t-8.5 79.5q0 54 15.5 93t44 64t67.5 37t87 12q69 0 110 -19t62.5 -49t28 -67.5t6.5 -75.5v-43h-178v67q0 23 -6 41.5t-26 18.5t-26 -17t-6 -35q0 -29 7 -47.5t21.5 -33t37 -28.5t54.5 -34q46 -29 73 -54.5t41.5 -53t18.5 -61.5t4 -80zM239 855l-141 -77l-67 58
l141 130h138l136 -130l-67 -58z" />
    <glyph glyph-name="scircumflex" unicode="&#x15d;" horiz-adv-x="442" 
d="M424 182q0 -102 -53 -147.5t-149 -45.5q-107 0 -153.5 45.5t-46.5 143.5v38l167 1v-42q0 -14 0.5 -27.5t4 -24.5t10.5 -18t19 -7q23 0 28 16.5t5 37.5q0 18 -5 32t-18 27.5t-35 28t-56 34.5q-28 16 -50 31t-37.5 34t-24 44.5t-8.5 62.5q0 94 51.5 138t147.5 44
q99 0 148.5 -38.5t49.5 -131.5v-38h-172v52q0 15 -5 30t-25 15q-19 0 -24 -14t-5 -30q0 -20 5 -34t16 -25.5t28 -21.5t41 -22q37 -20 64.5 -36.5t45.5 -37t27 -47.5t9 -67zM224 744l-141 -107l-67 58l141 160h138l136 -160l-67 -58z" />
    <glyph glyph-name="Scedilla" unicode="&#x15e;" horiz-adv-x="485" 
d="M461 192q0 -100 -48 -147t-135 -54l-15 -34h8q36 0 61 -19.5t25 -54.5q0 -23 -9.5 -39t-25.5 -27t-36 -16t-42 -5q-28 0 -53.5 7t-50.5 18l20 55q23 -8 40.5 -11t34.5 -3q12 0 18.5 6t6.5 15q0 12 -9 17.5t-21 5.5q-5 0 -10.5 -1t-15.5 -6l-23 23l31 69q-61 4 -97 26
t-54.5 54.5t-24 72.5t-5.5 81v52h177v-96q0 -11 1 -22t4.5 -21t10.5 -16t18 -6q12 0 19.5 5.5t11.5 14t5.5 19t1.5 20.5q0 31 -4.5 51t-16.5 36t-32.5 30.5t-53.5 35.5q-39 25 -67 46.5t-46 46t-26.5 57t-8.5 79.5q0 54 15.5 93t44 64t67.5 37t87 12q69 0 110 -19t62.5 -49
t28 -67.5t6.5 -75.5v-43h-178v67q0 23 -6 41.5t-26 18.5t-26 -17t-6 -35q0 -29 7 -47.5t21.5 -33t37 -28.5t54.5 -34q46 -29 73 -54.5t41.5 -53t18.5 -61.5t4 -80z" />
    <glyph glyph-name="scedilla" unicode="&#x15f;" horiz-adv-x="442" 
d="M424 182q0 -93 -43 -138t-123 -53l-15 -34h8q36 0 61 -19.5t25 -54.5q0 -23 -9.5 -39t-25.5 -27t-36 -16t-42 -5q-28 0 -53.5 7t-50.5 18l20 55q23 -8 40.5 -11t34.5 -3q12 0 18.5 6t6.5 15q0 12 -9 17.5t-21 5.5q-5 0 -10.5 -1t-15.5 -6l-23 23l31 68q-91 6 -130.5 51.5
t-39.5 136.5v38l167 1v-42q0 -14 0.5 -27.5t4 -24.5t10.5 -18t19 -7q23 0 28 16.5t5 37.5q0 18 -5 32t-18 27.5t-35 28t-56 34.5q-28 16 -50 31t-37.5 34t-24 44.5t-8.5 62.5q0 94 51.5 138t147.5 44q99 0 148.5 -38.5t49.5 -131.5v-38h-172v52q0 15 -5 30t-25 15
q-19 0 -24 -14t-5 -30q0 -20 5 -34t16 -25.5t28 -21.5t41 -22q37 -20 64.5 -36.5t45.5 -37t27 -47.5t9 -67z" />
    <glyph glyph-name="Tcommaaccent" unicode="&#x162;" horiz-adv-x="443" 
d="M316 612v-612h-191v612h-113v140h417v-140h-113zM223 -302h-77l37 121h-34v151h147v-150z" />
    <glyph glyph-name="tcommaaccent" unicode="&#x163;" horiz-adv-x="314" 
d="M239 513v-351q0 -45 9 -88t24 -74h-182q-5 9 -11.5 22t-11.5 32t-8.5 45.5t-3.5 62.5v351h-49v104h49v107l184 40v-147h68v-104h-68zM157 -302h-77l37 121h-34v151h147v-150z" />
    <glyph glyph-name="Tcaron" unicode="&#x164;" horiz-adv-x="443" 
d="M316 612v-612h-191v612h-113v140h417v-140h-113zM368 966l67 -58l-136 -130h-138l-141 130l67 58l141 -77z" />
    <glyph glyph-name="tcaron" unicode="&#x165;" horiz-adv-x="424" 
d="M372 670h-77l37 121h-34v151h147v-150zM254 513v-351q0 -45 9 -88t24 -74h-182q-5 9 -11.5 22t-11.5 32t-8.5 45.5t-3.5 62.5v351h-49v104h49v107l184 40v-147h68v-104h-68z" />
    <glyph glyph-name="Tbar" unicode="&#x166;" horiz-adv-x="443" 
d="M316 612v-131h90v-100h-90v-381h-191v381h-83v100h83v131h-113v140h417v-140h-113z" />
    <glyph glyph-name="tbar" unicode="&#x167;" horiz-adv-x="314" 
d="M239 513v-123h65v-85h-65v-143q0 -45 9 -88t24 -74h-182q-5 9 -11.5 22t-11.5 32t-8.5 45.5t-3.5 62.5v143h-52v85h52v123h-49v104h49v107l184 40v-147h68v-104h-68z" />
    <glyph glyph-name="Utilde" unicode="&#x168;" horiz-adv-x="517" 
d="M479 753v-551q0 -65 -20 -106.5t-51.5 -65t-70.5 -32.5t-78 -9q-63 0 -105.5 16.5t-68 47.5t-36.5 74t-11 97v529h191v-576q0 -9 0.5 -19.5t3.5 -19t9.5 -14t17.5 -5.5q10 0 15.5 5.5t8.5 14t3.5 19t0.5 19.5v576h191zM446 924q-3 -25 -12 -50.5t-23 -46t-33 -33.5
t-42 -13q-25 0 -45 5.5t-38.5 12t-36.5 12t-39 5.5q-16 0 -29.5 -6t-27.5 -27l-49 15q2 20 8.5 44t19 44.5t32 34.5t48.5 14q24 0 44 -5t38 -11.5t36 -11.5t39 -5q16 0 30.5 7t28.5 27z" />
    <glyph glyph-name="utilde" unicode="&#x169;" horiz-adv-x="490" 
d="M270 51q-39 -62 -112 -62q-45 0 -70 17t-37 44.5t-14.5 62t-2.5 69.5v435h183v-456q0 -9 1 -18.5t3.5 -17.5t8 -13t14.5 -5t15 5t9 13t4.5 17.5t1.5 17.5v457h182v-617h-170l-12 50zM435 804q-3 -25 -12 -50.5t-23 -46t-33 -33.5t-42 -13q-25 0 -45 5.5t-38.5 12
t-36.5 12t-39 5.5q-16 0 -29.5 -6t-27.5 -27l-49 15q2 20 8.5 44t19 44.5t32 34.5t48.5 14q24 0 44 -5t38 -11.5t36 -11.5t39 -5q16 0 30.5 7t28.5 27z" />
    <glyph glyph-name="Umacron" unicode="&#x16a;" horiz-adv-x="517" 
d="M479 753v-551q0 -65 -20 -106.5t-51.5 -65t-70.5 -32.5t-78 -9q-63 0 -105.5 16.5t-68 47.5t-36.5 74t-11 97v529h191v-576q0 -9 0.5 -19.5t3.5 -19t9.5 -14t17.5 -5.5q10 0 15.5 5.5t8.5 14t3.5 19t0.5 19.5v576h191zM114 802v110h291v-110h-291z" />
    <glyph glyph-name="umacron" unicode="&#x16b;" horiz-adv-x="490" 
d="M270 51q-39 -62 -112 -62q-45 0 -70 17t-37 44.5t-14.5 62t-2.5 69.5v435h183v-456q0 -9 1 -18.5t3.5 -17.5t8 -13t14.5 -5t15 5t9 13t4.5 17.5t1.5 17.5v457h182v-617h-170l-12 50zM100 672v110h291v-110h-291z" />
    <glyph glyph-name="Ubreve" unicode="&#x16c;" horiz-adv-x="517" 
d="M479 753v-551q0 -65 -20 -106.5t-51.5 -65t-70.5 -32.5t-78 -9q-63 0 -105.5 16.5t-68 47.5t-36.5 74t-11 97v529h191v-576q0 -9 0.5 -19.5t3.5 -19t9.5 -14t17.5 -5.5q10 0 15.5 5.5t8.5 14t3.5 19t0.5 19.5v576h191zM257 779q-45 0 -80 18t-59.5 45.5t-37 59.5
t-12.5 61h113q0 -12 5 -25t14.5 -24.5t24 -18.5t32.5 -7t32.5 7t24 18.5t14.5 24.5t5 25h113q0 -29 -12.5 -61t-37 -59.5t-59.5 -45.5t-80 -18z" />
    <glyph glyph-name="ubreve" unicode="&#x16d;" horiz-adv-x="490" 
d="M270 51q-39 -62 -112 -62q-45 0 -70 17t-37 44.5t-14.5 62t-2.5 69.5v435h183v-456q0 -9 1 -18.5t3.5 -17.5t8 -13t14.5 -5t15 5t9 13t4.5 17.5t1.5 17.5v457h182v-617h-170l-12 50zM244 653q-45 0 -80 18t-59.5 45.5t-37 59.5t-12.5 61h113q0 -12 5 -25t14.5 -24.5
t24 -18.5t32.5 -7t32.5 7t24 18.5t14.5 24.5t5 25h113q0 -29 -12.5 -61t-37 -59.5t-59.5 -45.5t-80 -18z" />
    <glyph glyph-name="Uring" unicode="&#x16e;" horiz-adv-x="517" 
d="M479 753v-551q0 -65 -20 -106.5t-51.5 -65t-70.5 -32.5t-78 -9q-63 0 -105.5 16.5t-68 47.5t-36.5 74t-11 97v529h191v-576q0 -9 0.5 -19.5t3.5 -19t9.5 -14t17.5 -5.5q10 0 15.5 5.5t8.5 14t3.5 19t0.5 19.5v576h191zM256 763q-26 0 -49.5 10.5t-41 28.5t-28 42
t-10.5 52q0 26 10.5 49.5t28.5 41t42.5 28t51.5 10.5q26 0 49.5 -10.5t41 -28t28 -41t10.5 -49.5q0 -27 -10.5 -51.5t-28.5 -42.5t-42 -28.5t-52 -10.5zM260 929q-16 0 -26 -9.5t-10 -23.5q0 -16 9.5 -26t26.5 -10q14 0 23.5 10t9.5 26q0 14 -9.5 23.5t-23.5 9.5z" />
    <glyph glyph-name="uring" unicode="&#x16f;" horiz-adv-x="490" 
d="M270 51q-39 -62 -112 -62q-45 0 -70 17t-37 44.5t-14.5 62t-2.5 69.5v435h183v-456q0 -9 1 -18.5t3.5 -17.5t8 -13t14.5 -5t15 5t9 13t4.5 17.5t1.5 17.5v457h182v-617h-170l-12 50zM244 643q-26 0 -49.5 10.5t-41 28.5t-28 42t-10.5 52q0 26 10.5 49.5t28.5 41t42.5 28
t51.5 10.5q26 0 49.5 -10.5t41 -28t28 -41t10.5 -49.5q0 -27 -10.5 -51.5t-28.5 -42.5t-42 -28.5t-52 -10.5zM248 809q-16 0 -26 -9.5t-10 -23.5q0 -16 9.5 -26t26.5 -10q14 0 23.5 10t9.5 26q0 14 -9.5 23.5t-23.5 9.5z" />
    <glyph glyph-name="Uhungarumlaut" unicode="&#x170;" horiz-adv-x="517" 
d="M479 753v-551q0 -65 -20 -106.5t-51.5 -65t-70.5 -32.5t-78 -9q-63 0 -105.5 16.5t-68 47.5t-36.5 74t-11 97v529h191v-576q0 -9 0.5 -19.5t3.5 -19t9.5 -14t17.5 -5.5q10 0 15.5 5.5t8.5 14t3.5 19t0.5 19.5v576h191zM272 836l144 147l92 -98l-173 -115zM71 836l144 147
l92 -98l-173 -115z" />
    <glyph glyph-name="uhungarumlaut" unicode="&#x171;" horiz-adv-x="490" 
d="M270 51q-39 -62 -112 -62q-45 0 -70 17t-37 44.5t-14.5 62t-2.5 69.5v435h183v-456q0 -9 1 -18.5t3.5 -17.5t8 -13t14.5 -5t15 5t9 13t4.5 17.5t1.5 17.5v457h182v-617h-170l-12 50zM263 709l132 184l126 -94l-174 -152zM59 709l132 184l126 -94l-174 -152z" />
    <glyph glyph-name="Uogonek" unicode="&#x172;" horiz-adv-x="517" 
d="M479 753v-551q0 -56 -14.5 -94t-39 -62.5t-56 -37t-65.5 -16.5q-23 -23 -31.5 -40.5t-8.5 -34.5q0 -8 6 -13t14 -5t18.5 3.5t30.5 14.5l27 -75q-19 -17 -45.5 -26.5t-49.5 -9.5q-21 0 -39.5 6t-33 18t-23 29t-8.5 40q0 28 11 51t28 43q-46 7 -77 26.5t-50 49.5t-27 69
t-8 86v529h191v-576q0 -9 0.5 -19.5t3.5 -19t9.5 -14t17.5 -5.5q10 0 15.5 5.5t8.5 14t3.5 19t0.5 19.5v576h191z" />
    <glyph glyph-name="uogonek" unicode="&#x173;" horiz-adv-x="490" 
d="M270 51q-39 -62 -112 -62q-45 0 -70 17t-37 44.5t-14.5 62t-2.5 69.5v435h183v-456q0 -9 1 -18.5t3.5 -17.5t8 -13t14.5 -5t15 5t9 13t4.5 17.5t1.5 17.5v457h182v-617h-69q-28 -26 -38 -45t-10 -38q0 -8 6 -13t14 -5t18.5 3.5t30.5 14.5l27 -75q-19 -17 -45.5 -26.5
t-49.5 -9.5q-21 0 -39.5 6t-33 18t-23 29t-8.5 40q0 32 14.5 58t34.5 47l-11 46z" />
    <glyph glyph-name="Wcircumflex" unicode="&#x174;" horiz-adv-x="776" 
d="M684 0h-238l-26 190l-30 229h-5l-27 -233l-23 -186h-237l-85 752h185l20 -281l17 -247h4l24 248l29 280h195l21 -277l21 -256h4l24 252l27 281h185zM389 855l-141 -77l-67 58l141 130h138l136 -130l-67 -58z" />
    <glyph glyph-name="wcircumflex" unicode="&#x175;" horiz-adv-x="662" 
d="M579 0h-209l-17 142l-19 179h-4l-19 -176l-19 -145h-209l-78 617h158l20 -189l17 -213h4l18 212l21 190h172l18 -188l15 -216h5l20 216l22 188h157zM333 744l-141 -107l-67 58l141 160h138l136 -160l-67 -58z" />
    <glyph glyph-name="Ycircumflex" unicode="&#x176;" horiz-adv-x="469" 
d="M319 272v-272h-177v272l-135 480h179l23 -152l22 -168h4l25 170l25 150h173zM235 855l-141 -77l-67 58l141 130h138l136 -130l-67 -58z" />
    <glyph glyph-name="ycircumflex" unicode="&#x177;" horiz-adv-x="458" 
d="M359 75q-6 -35 -14.5 -72.5t-28.5 -68.5t-55 -50.5t-93 -19.5h-108v127h26q38 0 38 34q0 10 -3 24l-116 568h178l26 -203l25 -217h5l19 217l19 203h172zM239 744l-141 -107l-67 58l141 160h138l136 -160l-67 -58z" />
    <glyph glyph-name="Zacute" unicode="&#x179;" horiz-adv-x="385" 
d="M15 0v121l152 491h-134v140h334v-129l-147 -481h147v-142h-352zM103 854l171 135l84 -116l-198 -97z" />
    <glyph glyph-name="zacute" unicode="&#x17a;" horiz-adv-x="361" 
d="M16 0v122l152 378h-143v117h313v-127l-149 -373h149v-117h-322zM90 709l132 184l126 -94l-174 -152z" />
    <glyph glyph-name="Zdotaccent" unicode="&#x17b;" horiz-adv-x="385" 
d="M15 0v121l152 491h-134v140h334v-129l-147 -481h147v-142h-352zM141 786v139h136v-139h-136z" />
    <glyph glyph-name="zdotaccent" unicode="&#x17c;" horiz-adv-x="361" 
d="M16 0v122l152 378h-143v117h313v-127l-149 -373h149v-117h-322zM126 666v139h136v-139h-136z" />
    <glyph glyph-name="AEacute" unicode="&#x1fc;" horiz-adv-x="662" 
d="M312 0v186h-85l-36 -186h-193l178 752h454v-150h-128v-143h120v-143h-120v-165h141v-151h-331zM252 316h60v285h-6zM293 854l171 135l84 -116l-198 -97z" />
    <glyph glyph-name="aeacute" unicode="&#x1fd;" horiz-adv-x="712" 
d="M445 301v-153q0 -18 4.5 -33.5t24.5 -15.5q19 0 23.5 15.5t4.5 33.5v109h181v-48q0 -107 -53 -163t-157 -56q-54 0 -91 12t-61 33q-20 -16 -40.5 -25t-40 -13.5t-37.5 -6t-34 -1.5q-73 0 -106 31t-33 89v92q0 34 7 57.5t22 41t39 31.5t59 30l77 35q15 7 21 20t6 25v33
q0 23 -6.5 33.5t-23.5 10.5q-18 0 -23.5 -12.5t-5.5 -29.5v-70h-172v27q0 100 53.5 147.5t153.5 47.5q41 0 70.5 -6.5t52.5 -17.5q46 23 113 23q45 0 83.5 -11t66.5 -36.5t44 -67t16 -102.5v-109h-238zM260 281q-28 -13 -43 -30t-15 -39v-59q0 -19 4 -37t27 -18
q9 0 14.5 5.5t8.5 13.5t3.5 18t0.5 19v127zM502 409v55q0 17 -4.5 34.5t-23.5 17.5q-10 0 -16 -5t-9 -12.5t-3.5 -17t-0.5 -17.5v-55h57zM284 709l132 184l126 -94l-174 -152z" />
    <glyph glyph-name="Oslashacute" unicode="&#x1fe;" horiz-adv-x="512" 
d="M34 -14l39 80q-20 30 -28.5 70t-8.5 88v321q0 19 2 43t10 48t22 47t39 40.5t61 28.5t87 11q42 0 77.5 -8.5t63.5 -27.5l21 43h60l-41 -83q39 -53 39 -142v-343q0 -65 -20 -106.5t-51.5 -65t-70.5 -32.5t-78 -9q-48 0 -83.5 9.5t-61.5 27.5l-19 -40h-59zM171 854l171 135
l84 -116l-198 -97zM286 378l-59 -120v-81q0 -9 0.5 -19.5t3.5 -19t9.5 -14t17.5 -5.5q10 0 15.5 5.5t8.5 14t3.5 19t0.5 19.5v201zM227 379l59 120v81q0 9 -0.5 19t-3 18t-8.5 13.5t-17 5.5t-17 -5t-9 -13.5t-3.5 -18t-0.5 -18.5v-202z" />
    <glyph glyph-name="oslashacute" unicode="&#x1ff;" horiz-adv-x="480" 
d="M31 -12l38 67q-23 29 -31 67.5t-8 81.5v204q0 219 209 219q39 0 73.5 -8.5t61.5 -27.5l20 36h57l-41 -71q19 -26 29 -62t10 -84v-201q0 -107 -53 -163t-157 -56q-45 0 -78 8.5t-57 23.5l-19 -34h-54zM157 709l132 184l126 -94l-174 -152zM211 305l57 100v59
q0 17 -4.5 34.5t-23.5 17.5q-10 0 -16 -5t-9 -12.5t-3.5 -17t-0.5 -17.5v-159zM268 308l-57 -100v-60q0 -18 4.5 -33.5t24.5 -15.5q19 0 23.5 15.5t4.5 33.5v160z" />
    <glyph glyph-name="cent" unicode="&#xa2;" 
d="M441 254v-45q0 -94 -36 -148.5t-115 -66.5v-94h-105v94q-48 7 -78 26.5t-47 47.5t-23.5 63t-6.5 73v204q0 188 155 214v91h105v-90q36 -5 64.5 -19.5t47.5 -40t29 -63.5t10 -90v-26h-173v80q0 17 -4.5 34.5t-23.5 17.5q-10 0 -16 -5t-9 -12.5t-3.5 -17t-0.5 -17.5v-316
q0 -18 4.5 -33.5t24.5 -15.5q19 0 23.5 15.5t4.5 33.5v106h173z" />
    <glyph glyph-name="afii10023" unicode="&#x401;" horiz-adv-x="391" 
d="M41 0v752h318v-140h-128v-146h120v-141h-120v-184h141v-141h-331zM227 783v139h136v-139h-136zM37 783v139h136v-139h-136z" />
    <glyph glyph-name="afii10052" unicode="&#x403;" horiz-adv-x="374" 
d="M232 612v-612h-191v752h323v-140h-132zM100 854l171 135l84 -116l-198 -97z" />
    <glyph glyph-name="afii10054" unicode="&#x405;" horiz-adv-x="485" 
d="M461 192q0 -55 -15 -93.5t-43 -63t-68 -35.5t-91 -11q-72 0 -114.5 20.5t-64.5 54t-28 75.5t-6 86v52h177v-96q0 -11 1 -22t4.5 -21t10.5 -16t18 -6q12 0 19.5 5.5t11.5 14t5.5 19t1.5 20.5q0 31 -4.5 51t-16.5 36t-32.5 30.5t-53.5 35.5q-39 25 -67 46.5t-46 46
t-26.5 57t-8.5 79.5q0 54 15.5 93t44 64t67.5 37t87 12q69 0 110 -19t62.5 -49t28 -67.5t6.5 -75.5v-43h-178v67q0 23 -6 41.5t-26 18.5t-26 -17t-6 -35q0 -29 7 -47.5t21.5 -33t37 -28.5t54.5 -34q46 -29 73 -54.5t41.5 -53t18.5 -61.5t4 -80z" />
    <glyph glyph-name="afii10055" unicode="&#x406;" horiz-adv-x="272" 
d="M41 0v752h190v-752h-190z" />
    <glyph glyph-name="afii10056" unicode="&#x407;" horiz-adv-x="286" 
d="M49 0v752h190v-752h-190zM170 783v139h136v-139h-136zM-20 783v139h136v-139h-136z" />
    <glyph glyph-name="afii10057" unicode="&#x408;" horiz-adv-x="485" 
d="M206 169q0 -19 6 -34.5t25 -15.5q17 0 22.5 17t5.5 36v580h191v-519q0 -40 -6.5 -83t-29 -79t-67.5 -59t-121 -23q-68 0 -110.5 18.5t-65.5 51.5t-31 77.5t-8 96.5v69h189v-133z" />
    <glyph glyph-name="afii10061" unicode="&#x40c;" horiz-adv-x="513" 
d="M238 478l73 274h188l-114 -339l121 -413h-197l-73 304h-4v-304h-191v752h191v-274h6zM185 854l171 135l84 -116l-198 -97z" />
    <glyph glyph-name="afii10017" unicode="&#x410;" horiz-adv-x="511" 
d="M308 0l-10 135h-78l-11 -135h-193l100 752h278l104 -752h-190zM255 614l-10 -150l-14 -195h55l-14 196l-10 149h-7z" />
    <glyph glyph-name="afii10019" unicode="&#x412;" horiz-adv-x="518" 
d="M485 202q-2 -96 -59.5 -149t-165.5 -53h-219v752h217q55 0 95.5 -9t66.5 -31t39 -58.5t13 -91.5q0 -65 -26.5 -100.5t-70.5 -48.5v-3q36 -9 57.5 -27t33.5 -40.5t16 -46.5t4 -45zM232 461q37 1 50 19.5t13 61.5q0 19 -1.5 33t-8 24t-19 15t-34.5 5v-158zM295 264
q0 38 -15.5 53t-47.5 17v-201q35 2 49 17.5t14 57.5v56z" />
    <glyph glyph-name="afii10020" unicode="&#x413;" horiz-adv-x="374" 
d="M232 612v-612h-191v752h323v-140h-132z" />
    <glyph glyph-name="afii10022" unicode="&#x415;" horiz-adv-x="391" 
d="M41 0v752h318v-140h-128v-146h120v-141h-120v-184h141v-141h-331z" />
    <glyph glyph-name="afii10028" unicode="&#x41a;" horiz-adv-x="513" 
d="M238 478l73 274h188l-114 -339l121 -413h-197l-73 304h-4v-304h-191v752h191v-274h6z" />
    <glyph glyph-name="afii10030" unicode="&#x41c;" horiz-adv-x="695" 
d="M354 355l34 217l30 180h231v-752h-174v378h-5l-30 -138l-34 -131h-113l-37 134l-31 129h-5v-372h-179v752h220l39 -176l46 -221h8z" />
    <glyph glyph-name="afii10031" unicode="&#x41d;" horiz-adv-x="531" 
d="M299 0v325h-67v-325h-191v752h191v-286h67v286h191v-752h-191z" />
    <glyph glyph-name="afii10032" unicode="&#x41e;" horiz-adv-x="512" 
d="M477 202q0 -65 -20 -106.5t-51.5 -65t-70.5 -32.5t-78 -9q-63 0 -105.5 16.5t-68 47.5t-36.5 74t-11 97v321q0 19 2 43t10 48t22 47t39 40.5t61 28.5t87 11q49 0 90 -12t69.5 -38.5t44.5 -68t16 -99.5v-343zM286 580q0 9 -0.5 19t-3 18t-8.5 13.5t-17 5.5t-17 -5
t-9 -13.5t-3.5 -18t-0.5 -18.5v-404q0 -9 0.5 -19.5t3.5 -19t9.5 -14t17.5 -5.5q10 0 15.5 5.5t8.5 14t3.5 19t0.5 19.5v403z" />
    <glyph glyph-name="afii10033" unicode="&#x41f;" 
d="M289 0v613h-57v-613h-191v752h439v-752h-191z" />
    <glyph glyph-name="afii10034" unicode="&#x420;" horiz-adv-x="486" 
d="M471 542q0 -62 -13.5 -105t-40.5 -69.5t-67 -38.5t-92 -12h-27v-317h-190v752h213q117 0 167 -51.5t50 -158.5zM231 446h11q30 0 42.5 22.5t12.5 69.5q0 50 -14.5 67.5t-42.5 17.5h-9v-177z" />
    <glyph glyph-name="afii10035" unicode="&#x421;" horiz-adv-x="519" 
d="M487 313v-111q0 -65 -20 -106.5t-52.5 -65t-74 -32.5t-83.5 -9q-63 0 -105.5 16.5t-68 47.5t-36.5 74t-11 97v321q0 19 2 43t10 48t22 47t39 40.5t61 28.5t87 11q53 0 95.5 -12t72.5 -38.5t46 -68t16 -99.5v-78h-191v113q0 9 -1 19t-5 18t-10.5 13.5t-17.5 5.5
q-22 0 -28.5 -18.5t-6.5 -36.5v-404q0 -9 1 -19.5t5 -19t11 -14t18 -5.5q20 0 27 19.5t7 38.5v136h191z" />
    <glyph glyph-name="afii10036" unicode="&#x422;" horiz-adv-x="443" 
d="M316 612v-612h-191v612h-113v140h417v-140h-113z" />
    <glyph glyph-name="afii10038" unicode="&#x424;" horiz-adv-x="746" 
d="M469 0h-189v66q-75 3 -123.5 21t-76.5 49t-39 73.5t-11 94.5v156q0 59 10 106t37 80t76 53t127 25v28h189v-28q78 -5 127 -25t76 -53t37 -80t10 -106v-156q0 -50 -11 -92t-39 -73.5t-76.5 -50.5t-123.5 -22v-66zM531 516q0 33 -12 54.5t-50 21.5v-391q19 0 31 7.5t19 20
t9.5 28.5t2.5 32v227zM280 592q-37 0 -49 -21.5t-12 -54.5v-227q0 -16 2.5 -32t9 -28.5t18.5 -20t31 -7.5v391z" />
    <glyph glyph-name="afii10039" unicode="&#x425;" horiz-adv-x="482" 
d="M235 254l-32 -254h-197l97 393l-86 359h200l23 -219h6l24 219h194l-89 -359l98 -393h-199l-33 254h-6z" />
    <glyph glyph-name="afii10065" unicode="&#x430;" horiz-adv-x="484" 
d="M261 47q-18 -26 -43 -42t-59 -16q-60 0 -94.5 31t-34.5 89v92q0 34 7 57.5t22 41t39 31.5t59 30l77 35q15 7 21 20t6 25v33q0 23 -6.5 33.5t-23.5 10.5q-18 0 -23.5 -12.5t-5.5 -29.5v-70h-172v27q0 100 54.5 147.5t154.5 47.5q67 0 107 -16t62 -45t29 -69t7 -87v-411
h-166l-10 47h-7zM260 281q-28 -13 -43 -30t-15 -39v-59q0 -19 4 -37t27 -18q10 0 15.5 5.5t8 14.5t3 19t0.5 19v125z" />
    <glyph glyph-name="afii10070" unicode="&#x435;" horiz-adv-x="480" 
d="M268 409v55q0 17 -4.5 34.5t-23.5 17.5q-10 0 -16 -5t-9 -12.5t-3.5 -17t-0.5 -17.5v-55h57zM211 301v-153q0 -18 4.5 -33.5t24.5 -15.5q19 0 23.5 15.5t4.5 33.5v109h181v-48q0 -107 -53 -163t-157 -56q-65 0 -105.5 17.5t-63.5 47t-31.5 68t-8.5 81.5v204
q0 219 209 219q45 0 83.5 -11t66.5 -36.5t44 -67t16 -102.5v-109h-238z" />
    <glyph glyph-name="afii10080" unicode="&#x43e;" horiz-adv-x="480" 
d="M449 209q0 -107 -53 -163t-157 -56q-65 0 -105.5 17.5t-63.5 47t-31.5 68t-8.5 81.5v204q0 219 209 219q45 0 83.5 -11t66.5 -36.5t44 -67t16 -102.5v-201zM268 464q0 17 -4.5 34.5t-23.5 17.5q-10 0 -16 -5t-9 -12.5t-3.5 -17t-0.5 -17.5v-316q0 -18 4.5 -33.5
t24.5 -15.5q19 0 23.5 15.5t4.5 33.5v316z" />
    <glyph glyph-name="afii10081" unicode="&#x43f;" horiz-adv-x="491" 
d="M275 0v501h-57v-501h-182v617h422v-617h-183z" />
    <glyph glyph-name="afii10082" unicode="&#x440;" horiz-adv-x="487" 
d="M220 574q22 25 46.5 39.5t60.5 14.5q37 0 62 -12.5t40 -34t21.5 -50t6.5 -61.5v-291q0 -36 -4.5 -70t-18.5 -61t-40 -43t-69 -16q-35 0 -57.5 12.5t-43.5 36.5l-5 -3v-171h-183v753h170l10 -40zM274 459q0 16 -4 33t-22 17t-23.5 -16.5t-5.5 -33.5v-295q0 -9 1 -18.5
t4 -17.5t8.5 -13t15.5 -5t15 5.5t7.5 13.5t3 18t0.5 19v293z" />
    <glyph glyph-name="afii10083" unicode="&#x441;" horiz-adv-x="464" 
d="M441 254v-45q0 -107 -47.5 -163t-154.5 -56q-65 0 -105.5 17.5t-63.5 47t-31.5 68t-8.5 81.5v204q0 219 209 219q48 0 86 -11t63.5 -36.5t39 -67t13.5 -102.5v-26h-173v80q0 17 -4.5 34.5t-23.5 17.5q-10 0 -16 -5t-9 -12.5t-3.5 -17t-0.5 -17.5v-316q0 -18 4.5 -33.5
t24.5 -15.5q19 0 23.5 15.5t4.5 33.5v106h173z" />
    <glyph glyph-name="afii10085" unicode="&#x443;" horiz-adv-x="458" 
d="M359 75q-6 -35 -14.5 -72.5t-28.5 -68.5t-55 -50.5t-93 -19.5h-108v127h26q38 0 38 34q0 10 -3 24l-116 568h178l26 -203l25 -217h5l19 217l19 203h172z" />
    <glyph glyph-name="afii10087" unicode="&#x445;" horiz-adv-x="449" 
d="M220 200l-21 -119l-17 -81h-176l84 322l-81 295h175l19 -94l18 -102h5l23 104l24 92h167l-88 -295l87 -322h-181l-15 80l-19 120h-4z" />
    <glyph glyph-name="afii10071" unicode="&#x451;" horiz-adv-x="480" 
d="M268 409v55q0 17 -4.5 34.5t-23.5 17.5q-10 0 -16 -5t-9 -12.5t-3.5 -17t-0.5 -17.5v-55h57zM211 301v-153q0 -18 4.5 -33.5t24.5 -15.5q19 0 23.5 15.5t4.5 33.5v109h181v-48q0 -107 -53 -163t-157 -56q-65 0 -105.5 17.5t-63.5 47t-31.5 68t-8.5 81.5v204
q0 219 209 219q45 0 83.5 -11t66.5 -36.5t44 -67t16 -102.5v-109h-238zM267 676v139h136v-139h-136zM77 676v139h136v-139h-136z" />
    <glyph glyph-name="afii10102" unicode="&#x455;" horiz-adv-x="442" 
d="M424 182q0 -102 -53 -147.5t-149 -45.5q-107 0 -153.5 45.5t-46.5 143.5v38l167 1v-42q0 -14 0.5 -27.5t4 -24.5t10.5 -18t19 -7q23 0 28 16.5t5 37.5q0 18 -5 32t-18 27.5t-35 28t-56 34.5q-28 16 -50 31t-37.5 34t-24 44.5t-8.5 62.5q0 94 51.5 138t147.5 44
q99 0 148.5 -38.5t49.5 -131.5v-38h-172v52q0 15 -5 30t-25 15q-19 0 -24 -14t-5 -30q0 -20 5 -34t16 -25.5t28 -21.5t41 -22q37 -20 64.5 -36.5t45.5 -37t27 -47.5t9 -67z" />
    <glyph glyph-name="afii10103" unicode="&#x456;" horiz-adv-x="259" 
d="M36 652v120h188v-120h-188zM36 0v617h188v-617h-188z" />
    <glyph glyph-name="afii10104" unicode="&#x457;" horiz-adv-x="259" 
d="M157 676v139h136v-139h-136zM-33 676v139h136v-139h-136zM36 0v617h188v-617h-188z" />
    <glyph glyph-name="afii10105" unicode="&#x458;" horiz-adv-x="265" 
d="M41 652v120h189v-120h-189zM230 92q0 -48 -4 -89.5t-20 -72t-48 -48.5t-87 -18h-87v127h25q17 0 24.5 9t7.5 32v585h189v-525z" />
    <glyph glyph-name="afii10109" unicode="&#x45c;" horiz-adv-x="473" 
d="M226 444l54 173h188l-103 -249l102 -368h-185l-57 251h-6v-251h-183v617h183v-173h7zM148 709l132 184l126 -94l-174 -152z" />
    <glyph glyph-name="afii10110" unicode="&#x45e;" horiz-adv-x="458" 
d="M359 75q-6 -35 -14.5 -72.5t-28.5 -68.5t-55 -50.5t-93 -19.5h-108v127h26q38 0 38 34q0 10 -3 24l-116 568h178l26 -203l25 -217h5l19 217l19 203h172zM232 653q-45 0 -80 18t-59.5 45.5t-37 59.5t-12.5 61h113q0 -12 5 -25t14.5 -24.5t24 -18.5t32.5 -7t32.5 7t24 18.5
t14.5 24.5t5 25h113q0 -29 -12.5 -61t-37 -59.5t-59.5 -45.5t-80 -18z" />
    <glyph glyph-name="afii10053" unicode="&#x404;" horiz-adv-x="519" 
d="M487 233v-31q0 -65 -20 -106.5t-52.5 -65t-74 -32.5t-83.5 -9q-63 0 -105.5 16.5t-68 47.5t-36.5 74t-11 97v314q0 29 7.5 67.5t31.5 73.5t69.5 59.5t122.5 24.5q106 0 163 -48t57 -154v-24h-191v43q0 9 -1 19t-5 18t-10.5 13.5t-17.5 5.5q-22 0 -28.5 -18.5t-6.5 -36.5
v-118h162v-143h-162v-143q0 -9 1 -19.5t5 -19t11 -14t18 -5.5q20 0 27 19.5t7 38.5v56h191z" />
    <glyph glyph-name="afii10047" unicode="&#x42d;" horiz-adv-x="519" 
d="M214 233v-64q0 -19 7 -34.5t27 -15.5q21 0 28 15.5t7 34.5v152h-152v143h152v117q0 9 -1 18.5t-4 18t-9.5 13.5t-17.5 5q-22 0 -29.5 -19t-7.5 -37v-43h-184v19q0 52 16.5 91t46.5 65t72 38.5t93 12.5t87 -11.5t60 -30t37.5 -42t20.5 -48.5t9 -49.5t2 -43.5v-314
q0 -54 -11.5 -97.5t-38.5 -74t-70.5 -47t-106.5 -16.5q-42 0 -82 8t-71 30.5t-49.5 63t-18.5 105.5v37h188z" />
    <glyph glyph-name="afii10048" unicode="&#x42e;" horiz-adv-x="765" 
d="M730 202q0 -65 -20 -106.5t-51.5 -65t-70.5 -32.5t-78 -9q-63 0 -105.5 16.5t-68 47.5t-36.5 74t-11 97v101h-57v-325h-191v752h191v-286h57v79q0 19 2 43t10 48t22 47t39 40.5t61 28.5t87 11q49 0 90 -12t69.5 -38.5t44.5 -68t16 -99.5v-343zM539 580q0 9 -0.5 19t-3 18
t-8.5 13.5t-17 5.5t-17 -5t-9 -13.5t-3.5 -18t-0.5 -18.5v-404q0 -9 0.5 -19.5t3.5 -19t9.5 -14t17.5 -5.5q10 0 15.5 5.5t8.5 14t3.5 19t0.5 19.5v403z" />
    <glyph glyph-name="afii10049" unicode="&#x42f;" horiz-adv-x="505" 
d="M106 401q-40 17 -54.5 53t-14.5 103q0 51 13.5 88t38 61t58.5 35.5t76 11.5h244v-753h-190v340q-37 -2 -50.5 -22.5t-13.5 -67.5v-172q0 -25 -2.5 -44.5t-10.5 -33.5h-176q11 17 12 34t1 38v210q0 47 14 73t55 42v4zM275 624q-21 0 -33 -3.5t-18.5 -12.5t-8.5 -24.5
t-2 -39.5q0 -28 2.5 -45t9 -26.5t19 -12.5t33.5 -4v168h-2z" />
    <glyph glyph-name="afii10046" unicode="&#x42c;" horiz-adv-x="486" 
d="M471 220q0 -50 -12 -91t-38 -69.5t-67.5 -44t-99.5 -15.5h-213v752h190v-280h27q52 0 91.5 -10t66.5 -35t41 -66t14 -102v-39zM231 129h9q28 0 42.5 17.5t14.5 67.5v38q0 46 -12.5 68.5t-42.5 22.5h-11v-214z" />
    <glyph glyph-name="afii10045" unicode="&#x42b;" horiz-adv-x="746" 
d="M42 0v752h190v-280h27q52 0 91.5 -10.5t66.5 -35.5t41 -66.5t14 -102.5v-39q0 -107 -50 -162.5t-167 -55.5h-213zM232 129h9q28 0 42.5 17.5t14.5 67.5v38q0 46 -12.5 68.5t-42.5 22.5h-11v-214zM706 0h-190v752h190v-752z" />
    <glyph glyph-name="afii10044" unicode="&#x42a;" horiz-adv-x="576" 
d="M0 602v150h323v-280h25q52 0 91.5 -10t66.5 -34t41 -65t14 -102v-39q0 -52 -12 -93.5t-38 -70t-67.5 -43.5t-99.5 -15h-213v602h-131zM330 129q28 0 42.5 17.5t14.5 67.5v38q0 46 -12.5 68.5t-42.5 22.5h-9v-214h7z" />
    <glyph glyph-name="afii10040" unicode="&#x426;" horiz-adv-x="571" 
d="M480 752v-610h81v-285h-161v143h-359v752h191v-610h57v610h191z" />
    <glyph glyph-name="afii10042" unicode="&#x428;" horiz-adv-x="769" 
d="M728 752v-752h-687v752h191v-611h57v611h191v-611h57v611h191z" />
    <glyph glyph-name="afii10043" unicode="&#x429;" horiz-adv-x="819" 
d="M728 752v-610h81v-285h-161v143h-607v752h191v-610h57v610h191v-610h57v610h191z" />
    <glyph glyph-name="afii10041" unicode="&#x427;" horiz-adv-x="486" 
d="M207 752v-258q0 -19 7 -33.5t33 -14.5q13 0 21 3v303h190v-752h-190v321q-8 -2 -18 -3t-19 -1q-53 0 -92.5 9t-66.5 31.5t-40.5 60.5t-13.5 95v239h189z" />
    <glyph glyph-name="afii10029" unicode="&#x41b;" horiz-adv-x="542" 
d="M249 613v-437q0 -44 -7 -78.5t-25.5 -58.5t-52 -37t-86.5 -13h-65v138h20q17 0 29 9.5t12 30.5v585h428v-752h-191v613h-62z" />
    <glyph glyph-name="afii10018" unicode="&#x411;" horiz-adv-x="486" 
d="M231 129h9q28 0 42.5 17.5t14.5 67.5v38q0 46 -12.5 68.5t-42.5 22.5h-11v-214zM41 752h331v-150h-141v-130h27q52 0 91.5 -10.5t66.5 -36t41 -67t14 -102.5v-39q0 -48 -12 -87.5t-38 -68.5t-67.5 -45t-99.5 -16h-213v752z" />
    <glyph glyph-name="afii10059" unicode="&#x40a;" horiz-adv-x="734" 
d="M719 213q0 -107 -50 -160t-167 -53h-213v324h-57v-324h-191v752h191v-286h57v286h190v-287h27q211 0 213 -195v-57zM479 129h9q28 0 42.5 17.5t14.5 67.5v32q0 43 -12.5 60.5t-42.5 17.5h-11v-195z" />
    <glyph glyph-name="afii10026" unicode="&#x418;" horiz-adv-x="531" 
d="M306 340l-40 -127l-46 -142v-71h-180v752h180v-376h4l43 150l45 152v74h179v-752h-179v340h-6z" />
    <glyph glyph-name="afii10027" unicode="&#x419;" horiz-adv-x="531" 
d="M306 340l-40 -127l-46 -142v-71h-180v752h180v-376h4l43 150l45 152v74h179v-752h-179v340h-6zM258 779q-45 0 -80 18t-59.5 45.5t-37 59.5t-12.5 61h113q0 -12 5 -25t14.5 -24.5t24 -18.5t32.5 -7t32.5 7t24 18.5t14.5 24.5t5 25h113q0 -29 -12.5 -61t-37 -59.5
t-59.5 -45.5t-80 -18z" />
    <glyph glyph-name="afii10145" unicode="&#x40f;" 
d="M480 752v-752h-145v-153h-146v153h-148v752h191v-611h57v611h191z" />
    <glyph glyph-name="afii10058" unicode="&#x409;" horiz-adv-x="756" 
d="M741 218q0 -50 -12 -90t-38 -68.5t-67.5 -44t-99.5 -15.5h-213v613h-62v-437q0 -44 -7 -78.5t-25.5 -58.5t-52 -37t-86.5 -13h-65v138h20q17 0 29 9.5t12 30.5v585h428l-1 -1v-279h27q52 0 91.5 -10.5t66.5 -35.5t41 -66.5t14 -102.5v-39zM501 129h9q28 0 42.5 19
t14.5 66v38q0 46 -12.5 68.5t-42.5 22.5h-11v-214z" />
    <glyph glyph-name="afii10037" unicode="&#x423;" horiz-adv-x="469" 
d="M319 200q-13 -54 -25.5 -93t-31 -64.5t-47 -38t-73.5 -13.5h-72v134h35q9 0 18 2.5t15.5 11t8.5 25t-5 44.5l-135 544h179l45 -352h4l50 352h173z" />
    <glyph glyph-name="afii10062" unicode="&#x40e;" horiz-adv-x="469" 
d="M319 200q-13 -54 -25.5 -93t-31 -64.5t-47 -38t-73.5 -13.5h-72v134h35q9 0 18 2.5t15.5 11t8.5 25t-5 44.5l-135 544h179l45 -352h4l50 352h173zM234 779q-45 0 -80 18t-59.5 45.5t-37 59.5t-12.5 61h113q0 -12 5 -25t14.5 -24.5t24 -18.5t32.5 -7t32.5 7t24 18.5
t14.5 24.5t5 25h113q0 -29 -12.5 -61t-37 -59.5t-59.5 -45.5t-80 -18z" />
    <glyph glyph-name="afii10021" unicode="&#x414;" horiz-adv-x="631" 
d="M286 245q0 -7 -1.5 -20t-4.5 -27.5t-8 -29.5t-12 -26h100v471h-63zM171 0v-143h-161v285h60q12 11 20.5 27.5t14 36t8.5 39.5t3 38l12 469h423v-610h65v-285h-162v143h-283z" />
    <glyph glyph-name="afii10024" unicode="&#x416;" horiz-adv-x="722" 
d="M275 478v274h165v-274h6l73 274h184l-114 -339l121 -413h-193l-73 304h-4v-304h-165v304h-4l-73 -304h-192l121 413l-114 339h183l73 -274h6z" />
    <glyph glyph-name="afii10025" unicode="&#x417;" horiz-adv-x="499" 
d="M270 581q0 9 -1 18.5t-4.5 18t-10 13.5t-17.5 5q-22 0 -29 -19t-7 -37v-37h-188v15q0 55 17.5 94t48 63.5t73.5 36t94 11.5q69 0 111 -19.5t65 -48.5t31 -62.5t8 -61.5v-41q0 -41 -15.5 -70t-53.5 -52v-3q24 -10 38 -26t20.5 -36.5t8.5 -45.5t2 -52v-38q0 -45 -12 -84.5
t-39 -69t-70.5 -47t-106.5 -17.5q-42 0 -82.5 9t-71.5 32.5t-50 65t-19 106.5v41h191v-66q0 -19 6.5 -38.5t26.5 -19.5q22 0 29 19.5t7 38.5v93q0 16 -1 29t-5.5 22t-15.5 13.5t-30 4.5h-58v129h58q30 0 41 11t11 41v61z" />
    <glyph glyph-name="afii10060" unicode="&#x40b;" horiz-adv-x="610" 
d="M321 506q22 23 58 37.5t66 14.5q42 0 67.5 -15t39.5 -39.5t18.5 -57t4.5 -68.5v-378h-183v385q0 17 -7.5 34.5t-27.5 17.5q-19 0 -29.5 -17t-10.5 -34v-386h-192v613h-113v139h459v-139h-155v-106z" />
    <glyph glyph-name="afii10051" unicode="&#x402;" horiz-adv-x="611" 
d="M393 390q0 17 -9.5 32t-29.5 15q-19 0 -28 -14.5t-9 -31.5v-391h-192v613h-113v139h460v-139h-156v-103l5 -1q22 23 52.5 36t60.5 13q45 0 73 -15t43 -39.5t20.5 -57t5.5 -68.5v-221q0 -48 -4 -89.5t-20 -72t-48 -48.5t-87 -18h-59v127q19 2 27 10t8 31v293z" />
    <glyph glyph-name="afii10076" unicode="&#x43a;" horiz-adv-x="473" 
d="M226 444l54 173h188l-103 -249l102 -368h-185l-57 251h-6v-251h-183v617h183v-173h7z" />
    <glyph glyph-name="afii10072" unicode="&#x436;" horiz-adv-x="671" 
d="M249 434v183h163v-183h7l64 183h178l-103 -259l102 -358h-175l-67 241h-6v-241h-163v241h-6l-67 -241h-165l102 358l-103 259h168l64 -183h7z" />
    <glyph glyph-name="afii10066" unicode="&#x431;" horiz-adv-x="480" 
d="M262 528q97 0 142 -54.5t45 -164.5v-105q0 -43 -10 -81.5t-34 -68t-64.5 -47t-102.5 -17.5q-112 0 -160 56t-48 163v288q0 45 7 84.5t26 71.5q25 43 61 63.5t79 31t91.5 18t99.5 24.5l25 -133q-26 -15 -57.5 -20.5t-62.5 -11t-57 -15.5t-41 -34q-7 -11 -13 -29.5
t-4 -50.5q19 18 43 25t35 7zM211 148q0 -18 4.5 -33.5t23.5 -15.5q20 0 24.5 15.5t4.5 33.5v217q0 8 -0.5 17.5t-3.5 17t-9 12.5t-16 5q-19 0 -23.5 -17.5t-4.5 -34.5v-217z" />
    <glyph glyph-name="afii10067" unicode="&#x432;" horiz-adv-x="486" 
d="M459 169q-2 -87 -60 -128t-152 -41h-211v617h210q48 0 85.5 -7.5t64 -25.5t40 -48t13.5 -75q0 -53 -24 -82t-63 -43h-1q32 -8 51.5 -23t29.5 -33.5t13.5 -38t3.5 -35.5v-37zM264 225q0 26 -9.5 40t-36.5 16v-171q46 1 46 61v54zM218 379q12 1 20.5 2.5t14 8t8.5 19
t3 35.5q0 22 -3 35t-8.5 19.5t-14 7.5t-20.5 1v-128z" />
    <glyph glyph-name="afii10068" unicode="&#x433;" horiz-adv-x="336" 
d="M218 501v-501h-182v617h300v-116h-118z" />
    <glyph glyph-name="afii10069" unicode="&#x434;" horiz-adv-x="591" 
d="M261 191q0 -11 -4 -32t-13 -41h91v383h-63zM418 -134v134h-254v-134h-154v252h54q9 6 15 18.5t10 27t6 30t2 28.5l12 395h409v-499h58v-252h-158z" />
    <glyph glyph-name="afii10073" unicode="&#x437;" horiz-adv-x="459" 
d="M26 417v41q0 40 15.5 71.5t42.5 53.5t64 33.5t79 11.5q95 0 146 -41t51 -122q0 -41 -10 -71t-43 -51q21 -10 32.5 -25t17 -33.5t7 -39t1.5 -40.5v-18q0 -99 -48 -147.5t-154 -48.5q-58 0 -97 12.5t-63 37t-34 60.5t-10 83v55h161v-103q0 -14 6.5 -26t26.5 -12
q16 0 23.5 12.5t7.5 25.5v81q0 26 -6 40.5t-34 14.5h-53v105h53q23 0 32 7.5t9 30.5v62q0 11 -4 26t-21 15q-18 0 -24 -14.5t-6 -26.5v-60h-168z" />
    <glyph glyph-name="afii10074" unicode="&#x438;" horiz-adv-x="495" 
d="M285 273l-42 -107l-40 -96h1v-70h-168v617h168v-302h6l47 123l35 91v88h167v-617h-167v273h-7z" />
    <glyph glyph-name="afii10077" unicode="&#x43b;" horiz-adv-x="491" 
d="M218 501v-325q0 -44 -6 -78.5t-23.5 -58.5t-50 -37t-85.5 -13h-48v120h7q17 0 27 9.5t10 30.5v468h409v-617h-183v501h-57z" />
    <glyph glyph-name="afii10078" unicode="&#x43c;" horiz-adv-x="585" 
d="M296 343l24 149l22 125h208v-617h-161v259h-2l-21 -100l-18 -72h-107l-18 67l-23 103l-2 -1v-256h-162v617h199l28 -127l29 -149z" />
    <glyph glyph-name="afii10079" unicode="&#x43d;" horiz-adv-x="494" 
d="M275 0v269h-57v-269h-182v617h182v-231h57v231h183v-617h-183z" />
    <glyph glyph-name="afii10084" unicode="&#x442;" horiz-adv-x="386" 
d="M283 501v-501h-180v501h-93v116h366v-116h-93z" />
    <glyph glyph-name="afii10086" unicode="&#x444;" horiz-adv-x="708" 
d="M264 577v175h180v-175l4 -3q22 25 45 39.5t55 14.5q37 0 62 -12.5t40 -34t21.5 -50t6.5 -61.5v-302q0 -33 -4.5 -65t-18.5 -57.5t-40 -41t-69 -15.5q-29 0 -51 12.5t-43 36.5l-5 -3v-171h-186v171l-5 3q-21 -24 -43 -36.5t-51 -12.5q-43 0 -69 15.5t-40 41t-18.5 57.5
t-4.5 65v302q0 33 6 61.5t21 50t40 34t63 12.5q32 0 55 -14.5t45 -39.5zM213 166q0 -9 0.5 -19t3 -18t8 -13.5t15.5 -5.5t14.5 5t6 13t1 17.5t-0.5 18.5v295q0 17 -3.5 33.5t-21.5 16.5q-8 0 -13 -5t-7 -12.5t-2.5 -16t-0.5 -16.5v-293zM495 459q0 16 -3.5 33t-19.5 17
q-18 0 -21.5 -16.5t-3.5 -33.5v-295q0 -9 -0.5 -18.5t1 -17.5t6 -13t14.5 -5t15.5 5.5t8 13.5t3 18t0.5 19v293z" />
    <glyph glyph-name="afii10088" unicode="&#x446;" horiz-adv-x="535" 
d="M458 617v-499h69v-251h-157v133h-334v617h182v-499h57v499h183z" />
    <glyph glyph-name="afii10089" unicode="&#x447;" horiz-adv-x="463" 
d="M186 617v-180q0 -38 13 -57t31 -19h7.5t9.5 2v254h183v-617h-183v261q-5 -1 -15.5 -1h-15.5q-46 0 -82 9.5t-61.5 31.5t-39 57t-13.5 86v173h166z" />
    <glyph glyph-name="afii10090" unicode="&#x448;" horiz-adv-x="734" 
d="M699 0h-663v617h182v-500h57v500h183v-500h57v500h183z" />
    <glyph glyph-name="afii10091" unicode="&#x449;" horiz-adv-x="775" 
d="M699 118h68v-251h-157v133h-574v617h182v-499h57v499h183v-499h57v499h183z" />
    <glyph glyph-name="afii10092" unicode="&#x44a;" horiz-adv-x="522" 
d="M507 179q0 -88 -51.5 -133.5t-154.5 -45.5h-191v500h-107v117h286v-220h11q46 0 84 -8.5t65 -29t42.5 -54t15.5 -84.5v-42zM289 106h6q16 1 31 16.5t15 58.5v42q0 21 -4 34t-10.5 20.5t-15 10.5t-17.5 3h-5v-185z" />
    <glyph glyph-name="afii10093" unicode="&#x44b;" horiz-adv-x="675" 
d="M433 179q0 -88 -51.5 -133.5t-154.5 -45.5h-191v617h179v-220h11q46 0 84 -8.5t65 -29t42.5 -54t15.5 -84.5v-42zM642 0h-180v617h180v-617zM215 106h6q16 1 31 16.5t15 58.5v42q0 21 -4 34t-10.5 20.5t-15 10.5t-17.5 3h-5v-185z" />
    <glyph glyph-name="afii10094" unicode="&#x44c;" horiz-adv-x="454" 
d="M434 179q0 -88 -51.5 -133.5t-154.5 -45.5h-191v617h179v-220h11q46 0 84 -8.5t65 -29t42.5 -54t15.5 -84.5v-42zM216 106h6q16 1 31 16.5t15 58.5v42q0 21 -4 34t-10.5 20.5t-15 10.5t-17.5 3h-5v-185z" />
    <glyph glyph-name="afii10095" unicode="&#x44d;" horiz-adv-x="456" 
d="M187 191v-46q0 -15 5 -30.5t25 -15.5q17 0 22 15.5t5 30.5v119h-132v117h132v95q0 15 -6.5 28t-23.5 13q-11 0 -19 -11t-8 -25v-41h-171q0 52 17.5 88t47 58t67.5 31.5t79 9.5q69 0 108.5 -21t59.5 -51.5t25 -66t5 -65.5v-224q0 -44 -9.5 -82.5t-33.5 -66.5t-65 -44
t-104 -16q-46 0 -83 10t-62.5 32.5t-39 58t-13.5 87.5v13h172z" />
    <glyph glyph-name="afii10096" unicode="&#x44e;" horiz-adv-x="720" 
d="M689 209q0 -107 -53 -163t-157 -56q-65 0 -105.5 17.5t-63.5 47t-31.5 68t-8.5 81.5v65h-51v-269h-182v617h182v-231h51v22q0 219 209 219q45 0 83.5 -11t66.5 -36.5t44 -67t16 -102.5v-201zM508 464q0 17 -4.5 34.5t-23.5 17.5q-10 0 -16 -5t-9 -12.5t-3.5 -17
t-0.5 -17.5v-316q0 -18 4.5 -33.5t24.5 -15.5q19 0 23.5 15.5t4.5 33.5v316z" />
    <glyph glyph-name="afii10097" unicode="&#x44f;" horiz-adv-x="505" 
d="M108 329q-38 14 -52 43.5t-14 84.5q0 85 42 123t121 38h253v-618h-187v279q-35 -2 -48 -19t-13 -55v-141q0 -20 -2.5 -36t-9.5 -28h-168q11 14 11.5 28t0.5 31v172q0 39 13.5 60.5t52.5 34.5v3zM271 512q-20 0 -32 -3t-18.5 -10.5t-8.5 -20.5t-2 -32q0 -23 2 -37t9 -22
t18.5 -10.5t31.5 -2.5v138z" />
    <glyph glyph-name="afii10100" unicode="&#x453;" horiz-adv-x="316" 
d="M202 494v-494h-180v617h293v-123h-113zM63 709l132 184l126 -94l-174 -152z" />
    <glyph glyph-name="afii10101" unicode="&#x454;" horiz-adv-x="464" 
d="M440 191v-6q0 -52 -14.5 -89t-41.5 -60.5t-65 -34.5t-84 -11q-60 0 -99.5 16t-63 44t-33 66.5t-9.5 82.5v224q0 30 8 65.5t31 66t64.5 51.5t108.5 21q41 0 77 -9.5t63 -31.5t42.5 -58t15.5 -88h-172v41q0 14 -7.5 25t-18.5 11q-17 0 -24 -13t-7 -28v-98h132v-117h-132
v-116q0 -15 5 -30.5t22 -15.5q20 0 25 15.5t5 30.5v46h172z" />
    <glyph glyph-name="afii10106" unicode="&#x459;" horiz-adv-x="701" 
d="M57 617h407l-1 -4v-216h11q46 0 84 -8.5t65 -29t42.5 -54t15.5 -84.5v-42q0 -88 -51.5 -133.5t-154.5 -45.5h-191v501h-57v-334q0 -44 -6 -77t-23.5 -55.5t-50 -34t-85.5 -11.5h-48v120h7q17 0 27 9.5t10 30.5zM463 106h6q16 1 31 16.5t15 58.5v42q0 21 -4 34t-10.5 20.5
t-15 10.5t-17.5 3h-5v-185z" />
    <glyph glyph-name="afii10107" unicode="&#x45a;" horiz-adv-x="682" 
d="M669 179q0 -88 -51.5 -133.5t-154.5 -45.5h-191v281h-57v-281h-182v617h182v-219h57v219h179v-218h11q46 0 84 -9t65 -29.5t42.5 -54.5t15.5 -85v-42zM451 106h6q16 1 31 16.5t15 58.5v32q0 21 -4 33t-10.5 19t-15 9.5t-17.5 2.5h-5v-171z" />
    <glyph glyph-name="afii10193" unicode="&#x45f;" horiz-adv-x="493" 
d="M458 617v-617h-138v-137h-144v137h-140v617h182v-500h57v500h183z" />
    <glyph glyph-name="afii10099" unicode="&#x452;" horiz-adv-x="503" 
d="M469 105q0 -48 -3.5 -89.5t-19.5 -72t-47.5 -48.5t-86.5 -18h-61v127q21 0 28 9t7 32v356q0 9 -1.5 18.5t-5.5 17.5t-10.5 13t-16.5 5q-9 0 -15.5 -5t-10.5 -13t-6 -17.5t-2 -17.5v-402h-182v632h-36v85h36v55h183l-1 -55h131v-85h-131l-1 -104l5 -1q22 23 51 36t59 13
q45 0 72 -15t41.5 -39.5t19 -57t4.5 -68.5v-291z" />
    <glyph glyph-name="afii10108" unicode="&#x45b;" horiz-adv-x="491" 
d="M224 529q22 23 48.5 36t56.5 13q45 0 71 -15t39 -39.5t16.5 -57t3.5 -68.5v-398h-183v403q0 9 -0.5 18.5t-3 17.5t-8 13t-15.5 5q-9 0 -15 -5t-9 -13t-4 -17.5t-1 -17.5v-404h-184v632h-36v85h36v55h183v-55h123v-85h-123v-102z" />
    <glyph glyph-name="afii10050" unicode="&#x490;" horiz-adv-x="444" 
d="M446 612h-214v-612h-191v752h256l29 143h131z" />
    <glyph glyph-name="afii10098" unicode="&#x491;" horiz-adv-x="412" 
d="M409 501h-191v-501h-182v617h242l26 149h114z" />
    <glyph glyph-name="zero.text" unicode="&#xe000;" horiz-adv-x="496" 
d="M466 207q0 -65 -19 -107.5t-50 -67t-69.5 -34t-77.5 -9.5q-63 0 -105.5 17.5t-68 49t-36 75.5t-10.5 98v305q0 19 2 43.5t9.5 50t22 50t39 43.5t60.5 30.5t87 11.5q99 0 157 -56t58 -173zM282 590q0 9 -1 19t-4 18t-9.5 13.5t-17.5 5.5t-17.5 -5t-10.5 -13.5t-5 -18
t-1 -18.5v-424q0 -9 1 -19.5t5 -19t11 -14t18 -5.5q20 0 25.5 19.5t5.5 38.5v423z" />
    <glyph glyph-name="one.text" unicode="&#xe001;" horiz-adv-x="395" 
d="M134 0v576h-101v111h13q74 0 109 64h163v-751h-184z" />
    <glyph glyph-name="two.text" unicode="&#xe002;" 
d="M41 0v173q0 29 1.5 53.5t7.5 45.5t18 40t33 37l151 126q14 11 22 31.5t8 52.5v45q0 29 -12 37.5t-25 8.5q-4 0 -10.5 -1.5t-12.5 -6.5t-10 -14t-4 -24v-112h-165v73q0 44 13.5 80.5t39.5 62.5t64 40.5t88 14.5q55 0 95 -13t65 -37.5t37 -60t12 -79.5v-58q0 -21 -5 -41.5
t-13.5 -37.5t-18.5 -30.5t-20 -22.5l-146 -124q-14 -11 -22 -21.5t-12 -22.5t-5.5 -27t-1.5 -34v-22h104v143h142v-275h-418z" />
    <glyph glyph-name="three.text" unicode="&#xe003;" 
d="M255 763q113 0 163.5 -48.5t50.5 -145.5q0 -26 -2.5 -46.5t-10 -37.5t-21 -30.5t-35.5 -26.5v-3q28 -11 43.5 -30.5t22.5 -44t8.5 -52t1.5 -54.5v-19q0 -60 -11 -104t-37 -73.5t-68.5 -44t-104.5 -14.5q-66 0 -107.5 15t-64.5 44t-31.5 72.5t-8.5 100.5v93h183v-146
q0 -10 1 -20.5t4.5 -19.5t10.5 -14.5t19 -5.5q18 0 24.5 17t6.5 35v130q0 16 -1 29t-5.5 22t-15.5 13.5t-30 4.5h-58v129h58q30 0 41 11t11 41v58q0 6 -1 14t-5 16t-10.5 13.5t-16.5 5.5q-12 0 -18.5 -7t-9.5 -16t-4 -18.5t-1 -14.5v-67h-181v35q0 94 54.5 149t155.5 55z
" />
    <glyph glyph-name="four.text" unicode="&#xe004;" 
d="M440 132v-132h-184v132h-229v129l200 491h213v-491h52v-129h-52zM251 462l-75 -201h80v201h-5z" />
    <glyph glyph-name="five.text" unicode="&#xe005;" 
d="M222 511q43 45 104 45q49 0 79 -16t46.5 -44t22 -67t5.5 -84v-131q0 -56 -11.5 -98t-38 -70t-69 -42.5t-104.5 -14.5q-66 0 -108 16.5t-65.5 46.5t-32.5 73t-9 96v93h183v-152q0 -10 1 -20t4.5 -18t11 -13t20.5 -5q20 0 27.5 14t7.5 37v216q0 12 -1 24t-4 21.5t-9.5 16
t-18.5 6.5t-19.5 -6.5t-12 -16t-6 -21.5t-1.5 -24l-181 30v349h401v-120h-228v-117z" />
    <glyph glyph-name="six.text" unicode="&#xe006;" 
d="M294 340q0 20 -8.5 33.5t-26.5 13.5q-17 0 -26.5 -13t-9.5 -34v-181q0 -21 7.5 -35.5t27.5 -14.5t28 15t8 35v181zM229 455q17 27 43 38t58 11q42 0 70.5 -15.5t46 -40.5t25 -57t7.5 -65v-134q0 -65 -19.5 -105t-51 -62t-70.5 -29t-78 -7q-63 0 -105.5 15t-68 43.5
t-36 70t-10.5 95.5v331q0 52 11.5 92.5t37.5 68.5t68 43t103 15q104 0 161 -45.5t57 -148.5v-27h-183v55q0 23 -10 36.5t-28 13.5q-11 0 -18 -6t-11 -15t-5 -20.5t-1 -22.5v-125z" />
    <glyph glyph-name="seven.text" unicode="&#xe007;" horiz-adv-x="473" 
d="M75 0l180 618h-76v-114h-138v247h391v-121l-176 -630h-181z" />
    <glyph glyph-name="eight.text" unicode="&#xe008;" 
d="M479 218q0 -30 -3 -64t-14 -62q-12 -30 -34.5 -50t-50 -32.5t-58 -18t-58.5 -5.5q-50 0 -90.5 13t-69 40t-44.5 70t-16 103q0 40 3 71.5t11 56t23 42.5t39 32q-21 10 -34 27.5t-20.5 39t-10.5 44.5t-3 44q0 46 15.5 82.5t43.5 61.5t66.5 38t84.5 13t85.5 -12t68 -36
t44.5 -61t16 -86q0 -23 -3 -44.5t-11.5 -41.5t-23.5 -37.5t-40 -31.5q31 -14 48.5 -34.5t25 -45.5t9 -54.5t1.5 -61.5zM295 589q0 9 -0.5 19.5t-4 19.5t-10.5 14.5t-19 5.5q-10 0 -16 -6t-9.5 -14.5t-4.5 -19t-1 -19.5v-74q0 -9 1 -18.5t4.5 -18t10.5 -14t18 -5.5
q20 0 25.5 18.5t5.5 37.5v74zM296 277q0 10 -0.5 20.5t-4 18.5t-10.5 13.5t-20 5.5q-11 0 -17.5 -5.5t-9.5 -14t-4 -18.5t-1 -20v-108q0 -11 0.5 -22t3.5 -19.5t10 -14t20 -5.5q11 0 17.5 5.5t10 13.5t4.5 18.5t1 20.5v111z" />
    <glyph glyph-name="nine.text" unicode="&#xe009;" 
d="M225 412q0 -20 8.5 -33.5t26.5 -13.5q17 0 26.5 13t9.5 34v181q0 21 -7.5 35.5t-27.5 14.5t-28 -15t-8 -35v-181zM290 297q-17 -27 -43 -38t-58 -11q-42 0 -70.5 15.5t-46 40.5t-25 57t-7.5 65v134q0 65 19.5 105t51 61.5t70.5 29t78 7.5q63 0 105.5 -15t68 -43.5t36 -70
t10.5 -95.5v-331q0 -52 -11.5 -92.5t-37.5 -68.5t-68 -43t-103 -15q-104 0 -161 45t-57 149v27h183v-55q0 -23 10 -36.5t28 -13.5q22 0 28.5 21t6.5 43v125z" />
    <glyph glyph-name="numbersign.text" unicode="&#xe00a;" 
d="M287 217h-104l-26 -196h-111l26 196h-53l14 111h53l15 106h-54l14 111h54l23 176h113l-24 -176h103l23 176h111l-22 -176h58l-14 -111h-58l-15 -106h58l-12 -111h-62l-25 -196h-111zM198 328h103l15 106h-103z" />
    <glyph glyph-name="dollar.text" unicode="&#xe00b;" horiz-adv-x="487" 
d="M199 0q-53 7 -84.5 29t-48 52.5t-22 67.5t-5.5 75v39h171v-82q0 -10 1 -21t4.5 -20t10 -15t17.5 -6q23 0 29.5 19t6.5 38q0 25 -4.5 44t-16.5 35.5t-32 32t-50 34.5q-37 23 -64 43t-44.5 44t-26 55.5t-8.5 77.5q0 93 43 139.5t118 55.5v82h86v-82q51 -6 82.5 -26
t48.5 -47.5t22.5 -60.5t5.5 -66v-31h-171v54q0 9 -0.5 19t-3.5 19t-9 14.5t-18 5.5q-19 0 -25 -16.5t-6 -33.5q0 -29 7 -46.5t21 -31t36.5 -27t52.5 -33.5q37 -24 62.5 -46.5t40.5 -49t21.5 -60.5t6.5 -82q0 -95 -43 -140.5t-124 -52.5v-89h-88v90z" />
    <glyph glyph-name="euro.text" unicode="&#xe00c;" 
d="M13 358h43v50h-43v79h43v58q0 19 2 43t10 48t22 47t39 40.5t61 28.5t87 11q53 0 95.5 -12t72.5 -38.5t46 -68t16 -99.5v-18h-191v53q0 9 -1 19t-5 18t-10.5 13.5t-17.5 5.5q-22 0 -28.5 -18.5t-6.5 -36.5v-94h119v-79h-119v-50h119v-79h-119v-102q0 -9 1 -19.5t5 -19
t11 -14t18 -5.5q20 0 27 19.5t7 38.5v66h191v-41q0 -65 -20 -106.5t-52.5 -65t-74 -32.5t-83.5 -9q-63 0 -105.5 16.5t-68 47.5t-36.5 74t-11 97v55h-43v79z" />
    <glyph glyph-name="florin.text" unicode="&#xe00d;" horiz-adv-x="447" 
d="M134 381h-52v112h67l18 119q4 26 14 52t29.5 46.5t49.5 33t74 12.5q16 0 44 -2t58 -8l-19 -131q-17 3 -27.5 3.5t-15.5 0.5q-12 0 -20 -5t-12.5 -11.5t-6.5 -14.5t-3 -14l-11 -81h65v-112h-81l-47 -342q-3 -26 -13.5 -51t-30 -45.5t-49.5 -33t-73 -12.5q-16 0 -42.5 2
t-58.5 8l23 130q12 -2 24 -2.5t14 -0.5q13 0 20.5 4.5t12 11t6 14t2.5 13.5z" />
    <glyph glyph-name="sterling.text" unicode="&#xe00e;" 
d="M36 396h47q-15 42 -29 84t-14 79q0 95 56.5 149t160.5 54q115 0 173 -54.5t58 -160.5v-44h-189v72q0 39 -34 39q-12 0 -23 -10t-11 -39q0 -19 5.5 -36.5t14 -37t17.5 -42.5t15 -53h123v-102h-106q1 -5 1 -9.5v-9.5q0 -9 -1.5 -22.5t-5.5 -29.5t-12 -32t-21 -31h225v-160
h-455v137q39 26 59 64.5t20 77.5q0 10 -1 15h-73v102z" />
    <glyph glyph-name="cent.text" unicode="&#xe00f;" horiz-adv-x="473" 
d="M442 254v-45q0 -94 -36 -148.5t-115 -66.5v-94h-105v94q-48 7 -78 26.5t-47 47.5t-23.5 63t-6.5 73v204q0 188 155 214v91h105v-90q36 -5 64.5 -19.5t47.5 -40t29 -63.5t10 -90v-26h-173v80q0 17 -4.5 34.5t-23.5 17.5q-10 0 -16 -5t-9 -12.5t-3.5 -17t-0.5 -17.5v-316
q0 -18 4.5 -33.5t24.5 -15.5q19 0 23.5 15.5t4.5 33.5v106h173z" />
    <glyph glyph-name="yen.text" unicode="&#xe010;" 
d="M383 400h83v-79h-106l-14 -49v-1h120v-79h-120v-192h-177v192h-115v79h115v1l-13 49h-102v79h80l-100 352h176l24 -157l20 -153h7l22 152l26 158h176z" />
    <glyph glyph-name="zero.textoldstyle" unicode="&#xe048;" horiz-adv-x="500" 
d="M468 207q0 -65 -19 -107.5t-50 -67t-69.5 -34t-77.5 -9.5q-63 0 -105.5 17.5t-68 49t-36 75.5t-10.5 98v167q0 19 2 43.5t9.5 50t22 50t39 43.5t60.5 30.5t87 11.5q99 0 157 -56t58 -173zM284 452q0 9 -1 19t-4 18t-9.5 13.5t-17.5 5.5t-17.5 -5t-10.5 -13.5t-5 -18
t-1 -18.5v-286q0 -9 1 -19.5t5 -19t11 -14t18 -5.5q20 0 25.5 19.5t5.5 38.5v285z" />
    <glyph glyph-name="one.textoldstyle" unicode="&#xe049;" horiz-adv-x="500" 
d="M33 132h129v312h-101v111h13q74 0 109 64h163v-487h121v-132h-434v132z" />
    <glyph glyph-name="two.textoldstyle" unicode="&#xe04a;" horiz-adv-x="499" 
d="M33 0v96q0 58 13 102t56 80l151 125q14 11 25 24t11 34v8q0 28 -15 37t-28 9q-5 0 -12 -2t-14 -7.5t-11.5 -14.5t-4.5 -23v-50h-165v36q0 88 58 131t157 43q111 0 160.5 -42t49.5 -130v-9q0 -31 -13 -64.5t-44 -58.5l-152 -123q-15 -12 -23.5 -21t-12 -15.5t-4.5 -11.5
t-1 -10v-11h110v75h142v-207h-433z" />
    <glyph glyph-name="three.textoldstyle" unicode="&#xe04b;" horiz-adv-x="500" 
d="M245 628q111 0 159.5 -46t48.5 -137q0 -25 -2.5 -44.5t-9.5 -35t-19.5 -29t-32.5 -26.5q26 -11 40.5 -29.5t21 -41t8 -48t1.5 -50.5v-18q0 -57 -11 -98.5t-36 -69.5t-66 -41.5t-102 -13.5q-64 0 -104 14t-62.5 41.5t-30.5 68.5t-8 95v89h178v-139q0 -9 1 -18.5t4.5 -18
t10 -13.5t17.5 -5q17 0 23 15.5t6 32.5v122q0 14 -1 25.5t-5.5 20t-14.5 13t-28 4.5h-57v123h57q29 0 39 10t10 38v54q0 6 -1 13.5t-4.5 15t-9.5 12.5t-16 5q-11 0 -17 -6.5t-9 -15t-4 -17t-1 -13.5v-64h-176v34q0 88 52 140t151 52z" />
    <glyph glyph-name="four.textoldstyle" unicode="&#xe04c;" horiz-adv-x="499" 
d="M425 0v-98h-180v98h-221v121l193 496h208v-495h50v-122h-50zM243 343l-73 -221h75v221h-2z" />
    <glyph glyph-name="five.textoldstyle" unicode="&#xe04d;" horiz-adv-x="499" 
d="M212 392q20 20 46 31t55 11q47 0 76.5 -15t45.5 -42t21.5 -63.5t5.5 -79.5v-122q0 -53 -11.5 -92.5t-37 -66t-67 -40t-101.5 -13.5q-64 0 -104.5 15t-63.5 43.5t-31.5 69t-8.5 91.5v88h178v-144q0 -9 1 -18t4.5 -16.5t10.5 -12t19 -4.5q18 0 25.5 13t7.5 34v202
q0 11 -1 22t-4 20t-9 15t-17 6q-12 0 -19 -6t-11 -15t-5.5 -20.5t-1.5 -22.5l-176 28v329h389v-114h-220v-108z" />
    <glyph glyph-name="six.textoldstyle" unicode="&#xe04e;" horiz-adv-x="500" 
d="M219 429q16 24 42 35t57 11q41 0 68.5 -14.5t44.5 -38t24.5 -54t7.5 -62.5v-126q0 -61 -19 -98.5t-49.5 -57.5t-68.5 -27t-76 -7q-62 0 -103 14t-65.5 41t-34.5 66t-10 89v311q0 49 11 87t36 64.5t66 40.5t100 14q102 0 157 -42.5t55 -140.5v-26h-179v52q0 21 -9.5 33.5
t-26.5 12.5q-11 0 -17 -5.5t-10 -14t-5 -19t-1 -20.5v-115zM282 320q0 18 -8 30.5t-25 12.5q-16 0 -25 -12t-9 -31v-170q0 -19 7 -32.5t26 -13.5t26.5 14.5t7.5 31.5v170z" />
    <glyph glyph-name="seven.textoldstyle" unicode="&#xe04f;" horiz-adv-x="459" 
d="M80 -97l177 588h-72v-107h-135v233h379v-114l-171 -600h-178z" />
    <glyph glyph-name="eight.textoldstyle" unicode="&#xe050;" horiz-adv-x="500" 
d="M462 207q0 -27 -3 -59.5t-14 -58.5q-12 -27 -33.5 -46t-48.5 -31t-56.5 -17.5t-56.5 -5.5q-48 0 -87.5 12t-67.5 37.5t-43 66t-15 96.5q0 37 2.5 67t10 53t22 40t37.5 30q-20 10 -32.5 26.5t-19.5 36.5t-9.5 41t-2.5 41q0 43 15 77.5t42 58t64 36t82 12.5t83.5 -11
t66 -34t43 -57.5t15.5 -81.5q0 -43 -13.5 -81t-60.5 -64q30 -13 46.5 -32t24 -42.5t8.5 -51.5t1 -58zM283 262q0 10 -0.5 19.5t-3.5 17t-10 12.5t-19 5q-21 0 -25.5 -17.5t-4.5 -36.5v-100q0 -10 0.5 -20t3.5 -18t9.5 -13t18.5 -5q21 0 26 17t5 36v103zM282 555
q0 9 -0.5 18.5t-3.5 17.5t-9.5 13t-18.5 5q-9 0 -15 -5.5t-9 -13.5t-4 -17.5t-1 -17.5v-69q0 -8 1 -17.5t4.5 -17t9.5 -12.5t17 -5q19 0 24 17.5t5 34.5v69z" />
    <glyph glyph-name="nine.textoldstyle" unicode="&#xe051;" horiz-adv-x="500" 
d="M280 190q-16 -23 -42 -34.5t-57 -11.5q-41 0 -68.5 14.5t-44 38t-24 53.5t-7.5 62v126q0 61 19 98.5t49 57.5t68 27t76 7q62 0 103 -14t66 -40.5t35 -65.5t10 -90v-310q0 -49 -11 -87.5t-36.5 -65t-66.5 -40.5t-100 -14q-102 0 -156.5 42.5t-54.5 140.5v27h178v-53
q0 -21 9.5 -33.5t26.5 -12.5q10 0 16.5 5.5t10.5 14t5 19t1 20.5v117zM217 298q0 -18 8 -30.5t25 -12.5t25.5 12t8.5 31v171q0 19 -7 32.5t-26 13.5t-26.5 -14.5t-7.5 -31.5v-171z" />
    <glyph glyph-name="numbersign.textoldstyle" unicode="&#xe052;" horiz-adv-x="479" 
d="M264 184h-93l-24 -166h-100l24 166h-48l13 95h47l14 90h-49l13 94h49l20 150h102l-22 -150h93l21 150h100l-20 -150h52l-13 -94h-52l-13 -90h52l-11 -95h-56l-22 -166h-100zM184 279h93l13 90h-92z" />
    <glyph glyph-name="dollar.textoldstyle" unicode="&#xe053;" horiz-adv-x="463" 
d="M190 0q-46 7 -74 26t-43.5 45t-20.5 57t-5 62v35h155v-70q0 -17 5 -34.5t24 -17.5q20 0 25.5 15.5t5.5 32.5q0 20 -4.5 36t-15.5 29.5t-28.5 27t-43.5 29.5q-33 19 -57 36t-39.5 37.5t-23.5 48t-8 66.5q0 78 38.5 117.5t105.5 47.5v70h79v-70q45 -6 73 -23t43.5 -40.5
t20.5 -51.5t5 -55v-27h-155v47q0 7 -0.5 15.5t-3 16t-7.5 12t-15 4.5q-17 0 -22 -13.5t-5 -27.5q0 -20 4.5 -34t13.5 -24.5t23 -19.5t33 -20q7 -4 15 -8.5t16 -9.5q33 -21 55 -40t36 -41.5t20 -52t6 -69.5q0 -77 -41.5 -116.5t-107.5 -48.5v-76h-82v77z" />
    <glyph glyph-name="euro.textoldstyle" unicode="&#xe054;" horiz-adv-x="500" 
d="M28 305h39v41h-39v69h39v48q0 24 5 56.5t25 61t59.5 48.5t108.5 20q96 0 151.5 -43t55.5 -143v-16h-172v46q0 15 -5.5 30.5t-24.5 15.5t-25 -15t-6 -30v-79h108v-69h-108v-41h108v-69h-108v-85q0 -16 5.5 -32t25.5 -16q17 0 23.5 16t6.5 32v57h172v-35q0 -56 -18 -91.5
t-47.5 -55.5t-66.5 -27.5t-75 -7.5q-57 0 -95.5 14t-61 40t-32 63t-9.5 82v46h-39v69z" />
    <glyph glyph-name="florin.textoldstyle" unicode="&#xe055;" horiz-adv-x="440" 
d="M143 321h-51v105h65l20 136q4 24 13.5 48.5t28.5 43.5t48 31t72 12q15 0 42.5 -2t56.5 -7l-19 -123q-16 2 -26.5 2.5t-15.5 0.5q-12 0 -19.5 -4.5t-12 -11t-6 -13.5t-2.5 -13l-13 -100h63v-105h-78l-42 -298q-3 -24 -13.5 -48t-29.5 -42.5t-48 -30.5t-70 -12
q-15 0 -41 1.5t-57 7.5l22 122q12 -2 23.5 -2.5t13.5 -0.5q12 0 19.5 4.5t12 10.5t6 13t2.5 13z" />
    <glyph glyph-name="sterling.textoldstyle" unicode="&#xe056;" horiz-adv-x="479" 
d="M38 338h41q-13 35 -25 71t-12 66q0 81 50.5 127t144.5 46q105 0 156.5 -46t51.5 -137v-38h-171v62q0 32 -30 32q-11 0 -20 -8.5t-9 -32.5q0 -16 5.5 -32t13.5 -33q7 -15 14.5 -35.5t12.5 -41.5h111v-89h-95q1 -3 1 -7.5v-7.5q0 -16 -5.5 -43.5t-28.5 -52.5h199v-138h-409
v118q34 22 52 54.5t18 64.5v5.5t-1 6.5h-65v89z" />
    <glyph glyph-name="cent.textoldstyle" unicode="&#xe057;" horiz-adv-x="440" 
d="M405 257v-39q0 -78 -33 -124.5t-102 -58.5v-80h-96v80q-42 6 -69 23t-42.5 41t-21.5 53.5t-6 61.5v173q0 159 139 182v77h96v-76q65 -9 100 -50.5t35 -130.5v-24h-157v69q0 15 -3.5 29.5t-20.5 14.5t-21 -15t-4 -29v-267q0 -16 4 -28.5t21 -12.5t20.5 12.5t3.5 28.5v90
h157z" />
    <glyph glyph-name="yen.textoldstyle" unicode="&#xe058;" horiz-adv-x="456" 
d="M340 341h73v-69h-94l-13 -41h107v-68h-107v-163h-161v163h-102v68h102l-11 41h-91v69h71l-89 298h159l22 -133l20 -129h4l18 128l23 134h160z" />
    <glyph glyph-name="percent.text" unicode="&#xe059;" horiz-adv-x="765" 
d="M619 297q0 8 -2 16t-13 8t-13.5 -8t-2.5 -16v-208q0 -8 3 -17t14 -9q9 0 11.5 9t2.5 17v208zM178 553q0 8 -2.5 16t-13.5 8q-10 0 -12.5 -8t-2.5 -16v-208q0 -8 2.5 -17t13.5 -9q10 0 12.5 9t2.5 17v208zM269 -25h-98l324 690h96zM290 365q0 -33 -11.5 -55t-29.5 -34.5
t-41 -17.5t-46 -5q-38 0 -63 9t-40 25t-21 39t-6 50v150q0 15 3.5 35t16.5 38t39 31t71 13q59 0 93 -28.5t34 -88.5zM732 108q0 -33 -11 -54.5t-29 -34t-41 -17.5t-47 -5q-38 0 -63 9t-40 25t-21 38.5t-6 49.5v150q0 15 3.5 35.5t16.5 38.5t39 31t71 13q60 0 94 -29t34 -89
v-161z" />
    <glyph glyph-name="perthousand.text" unicode="&#xe05a;" horiz-adv-x="1067" 
d="M620 297q0 8 -2 16t-13 8t-13.5 -8t-2.5 -16v-208q0 -8 3 -17t14 -9q9 0 11.5 9t2.5 17v208zM923 297q0 8 -2.5 16t-13.5 8q-10 0 -12.5 -8t-2.5 -16v-208q0 -8 2.5 -17t13.5 -9q10 0 12.5 9t2.5 17v208zM178 553q0 8 -2.5 16t-13.5 8q-10 0 -12.5 -8t-2.5 -16v-208
q0 -8 2.5 -17t13.5 -9q10 0 12.5 9t2.5 17v208zM270 -25h-99l324 690h97zM290 365q0 -33 -11 -55t-29 -34.5t-41 -17.5t-47 -5q-38 0 -63 9t-40 25t-21 39t-6 50v150q0 15 3.5 35t16.5 38t39 31t71 13q60 0 94 -28.5t34 -88.5v-161zM1036 108q0 -33 -11.5 -54.5t-29.5 -34
t-41 -17.5t-47 -5q-38 0 -63 9t-40 25t-21 38.5t-6 49.5v150q0 15 3.5 35.5t16.5 38.5t39 31t71 13q60 0 94 -29t34 -89zM732 108q0 -33 -11 -54.5t-29 -34t-40.5 -17.5t-46.5 -5q-38 0 -63 9t-40 25t-21.5 38.5t-6.5 49.5v150q0 15 3.5 35.5t16.5 38.5t39.5 31t71.5 13
q60 0 93.5 -29t33.5 -89v-161z" />
    <glyph glyph-name="zero.taboldstyle" unicode="&#xe024;" 
d="M478 207q0 -65 -19 -107.5t-50 -67t-69.5 -34t-77.5 -9.5q-63 0 -105.5 17.5t-68 49t-36 75.5t-10.5 98v167q0 19 2 43.5t9.5 50t22 50t39 43.5t60.5 30.5t87 11.5q99 0 157 -56t58 -173zM294 452q0 9 -1 19t-4 18t-9.5 13.5t-17.5 5.5t-17.5 -5t-10.5 -13.5t-5 -18
t-1 -18.5v-286q0 -9 1 -19.5t5 -19t11 -14t18 -5.5q20 0 25.5 19.5t5.5 38.5v285z" />
    <glyph glyph-name="one.taboldstyle" unicode="&#xe025;" 
d="M43 132h129v312h-101v111h13q74 0 109 64h163v-487h121v-132h-434v132z" />
    <glyph glyph-name="two.taboldstyle" unicode="&#xe026;" 
d="M43 0v96q0 58 13 102t56 80l151 125q14 11 25 24t11 34v8q0 28 -15 37t-28 9q-5 0 -12 -2t-14 -7.5t-11.5 -14.5t-4.5 -23v-50h-165v36q0 88 58 131t157 43q111 0 160.5 -42t49.5 -130v-9q0 -31 -13 -64.5t-44 -58.5l-152 -123q-15 -12 -23.5 -21t-12 -15.5t-4.5 -11.5
t-1 -10v-11h110v75h142v-207h-433z" />
    <glyph glyph-name="three.taboldstyle" unicode="&#xe027;" 
d="M255 628q111 0 159.5 -46t48.5 -137q0 -25 -2.5 -44.5t-9.5 -35t-19.5 -29t-32.5 -26.5q26 -11 40.5 -29.5t21 -41t8 -48t1.5 -50.5v-18q0 -57 -11 -98.5t-36 -69.5t-66 -41.5t-102 -13.5q-64 0 -104 14t-62.5 41.5t-30.5 68.5t-8 95v89h178v-139q0 -9 1 -18.5t4.5 -18
t10 -13.5t17.5 -5q17 0 23 15.5t6 32.5v122q0 14 -1 25.5t-5.5 20t-14.5 13t-28 4.5h-57v123h57q29 0 39 10t10 38v54q0 6 -1 13.5t-4.5 15t-9.5 12.5t-16 5q-11 0 -17 -6.5t-9 -15t-4 -17t-1 -13.5v-64h-176v34q0 88 52 140t151 52z" />
    <glyph glyph-name="four.taboldstyle" unicode="&#xe028;" 
d="M435 0v-98h-180v98h-221v121l193 496h208v-495h50v-122h-50zM253 343l-73 -221h75v221h-2z" />
    <glyph glyph-name="five.taboldstyle" unicode="&#xe029;" 
d="M222 392q20 20 46 31t55 11q47 0 76.5 -15t45.5 -42t21.5 -63.5t5.5 -79.5v-122q0 -53 -11.5 -92.5t-37 -66t-67 -40t-101.5 -13.5q-64 0 -104.5 15t-63.5 43.5t-31.5 69t-8.5 91.5v88h178v-144q0 -9 1 -18t4.5 -16.5t10.5 -12t19 -4.5q18 0 25.5 13t7.5 34v202
q0 11 -1 22t-4 20t-9 15t-17 6q-12 0 -19 -6t-11 -15t-5.5 -20.5t-1.5 -22.5l-176 28v329h389v-114h-220v-108z" />
    <glyph glyph-name="six.taboldstyle" unicode="&#xe02a;" 
d="M229 429q16 24 42 35t57 11q41 0 68.5 -14.5t44.5 -38t24.5 -54t7.5 -62.5v-126q0 -61 -19 -98.5t-49.5 -57.5t-68.5 -27t-76 -7q-62 0 -103 14t-65.5 41t-34.5 66t-10 89v311q0 49 11 87t36 64.5t66 40.5t100 14q102 0 157 -42.5t55 -140.5v-26h-179v52q0 21 -9.5 33.5
t-26.5 12.5q-11 0 -17 -5.5t-10 -14t-5 -19t-1 -20.5v-115zM292 320q0 18 -8 30.5t-25 12.5q-16 0 -25 -12t-9 -31v-170q0 -19 7 -32.5t26 -13.5t26.5 14.5t7.5 31.5v170z" />
    <glyph glyph-name="seven.taboldstyle" unicode="&#xe02b;" 
d="M100 -97l177 588h-72v-107h-135v233h379v-114l-171 -600h-178z" />
    <glyph glyph-name="eight.taboldstyle" unicode="&#xe02c;" 
d="M472 207q0 -27 -3 -59.5t-14 -58.5q-12 -27 -33.5 -46t-48.5 -31t-56.5 -17.5t-56.5 -5.5q-48 0 -87.5 12t-67.5 37.5t-43 66t-15 96.5q0 37 2.5 67t10 53t22 40t37.5 30q-20 10 -32.5 26.5t-19.5 36.5t-9.5 41t-2.5 41q0 43 15 77.5t42 58t64 36t82 12.5t83.5 -11
t66 -34t43 -57.5t15.5 -81.5q0 -43 -13.5 -81t-60.5 -64q30 -13 46.5 -32t24 -42.5t8.5 -51.5t1 -58zM293 262q0 10 -0.5 19.5t-3.5 17t-10 12.5t-19 5q-21 0 -25.5 -17.5t-4.5 -36.5v-100q0 -10 0.5 -20t3.5 -18t9.5 -13t18.5 -5q21 0 26 17t5 36v103zM292 555
q0 9 -0.5 18.5t-3.5 17.5t-9.5 13t-18.5 5q-9 0 -15 -5.5t-9 -13.5t-4 -17.5t-1 -17.5v-69q0 -8 1 -17.5t4.5 -17t9.5 -12.5t17 -5q19 0 24 17.5t5 34.5v69z" />
    <glyph glyph-name="nine.taboldstyle" unicode="&#xe02d;" 
d="M290 190q-16 -23 -42 -34.5t-57 -11.5q-41 0 -68.5 14.5t-44 38t-24 53.5t-7.5 62v126q0 61 19 98.5t49 57.5t68 27t76 7q62 0 103 -14t66 -40.5t35 -65.5t10 -90v-310q0 -49 -11 -87.5t-36.5 -65t-66.5 -40.5t-100 -14q-102 0 -156.5 42.5t-54.5 140.5v27h178v-53
q0 -21 9.5 -33.5t26.5 -12.5q10 0 16.5 5.5t10.5 14t5 19t1 20.5v117zM227 298q0 -18 8 -30.5t25 -12.5t25.5 12t8.5 31v171q0 19 -7 32.5t-26 13.5t-26.5 -14.5t-7.5 -31.5v-171z" />
    <glyph glyph-name="numbersign.taboldstyle" unicode="&#xe02e;" 
d="M284 184h-93l-24 -166h-100l24 166h-48l13 95h47l14 90h-49l13 94h49l20 150h102l-22 -150h93l21 150h100l-20 -150h52l-13 -94h-52l-13 -90h52l-11 -95h-56l-22 -166h-100zM204 279h93l13 90h-92z" />
    <glyph glyph-name="dollar.taboldstyle" unicode="&#xe02f;" 
d="M218 0q-46 7 -74 26t-43.5 45t-20.5 57t-5 62v35h155v-70q0 -17 5 -34.5t24 -17.5q20 0 25.5 15.5t5.5 32.5q0 20 -4.5 36t-15.5 29.5t-28.5 27t-43.5 29.5q-33 19 -57 36t-39.5 37.5t-23.5 48t-8 66.5q0 78 38.5 117.5t105.5 47.5v70h79v-70q45 -6 73 -23t43.5 -40.5
t20.5 -51.5t5 -55v-27h-155v47q0 7 -0.5 15.5t-3 16t-7.5 12t-15 4.5q-17 0 -22 -13.5t-5 -27.5q0 -20 4.5 -34t13.5 -24.5t23 -19.5t33 -20q7 -4 15 -8.5t16 -9.5q33 -21 55 -40t36 -41.5t20 -52t6 -69.5q0 -77 -41.5 -116.5t-107.5 -48.5v-76h-82v77z" />
    <glyph glyph-name="euro.taboldstyle" unicode="&#xe030;" 
d="M38 305h39v41h-39v69h39v48q0 24 5 56.5t25 61t59.5 48.5t108.5 20q96 0 151.5 -43t55.5 -143v-16h-172v46q0 15 -5.5 30.5t-24.5 15.5t-25 -15t-6 -30v-79h108v-69h-108v-41h108v-69h-108v-85q0 -16 5.5 -32t25.5 -16q17 0 23.5 16t6.5 32v57h172v-35q0 -56 -18 -91.5
t-47.5 -55.5t-66.5 -27.5t-75 -7.5q-57 0 -95.5 14t-61 40t-32 63t-9.5 82v46h-39v69z" />
    <glyph glyph-name="florin.taboldstyle" unicode="&#xe031;" 
d="M183 321h-51v105h65l20 136q4 24 13.5 48.5t28.5 43.5t48 31t72 12q15 0 42.5 -2t56.5 -7l-19 -123q-16 2 -26.5 2.5t-15.5 0.5q-12 0 -19.5 -4.5t-12 -11t-6 -13.5t-2.5 -13l-13 -100h63v-105h-78l-42 -298q-3 -24 -13.5 -48t-29.5 -42.5t-48 -30.5t-70 -12
q-15 0 -41 1.5t-57 7.5l22 122q12 -2 23.5 -2.5t13.5 -0.5q12 0 19.5 4.5t12 10.5t6 13t2.5 13z" />
    <glyph glyph-name="sterling.taboldstyle" unicode="&#xe032;" 
d="M58 338h41q-13 35 -25 71t-12 66q0 81 50.5 127t144.5 46q105 0 156.5 -46t51.5 -137v-38h-171v62q0 32 -30 32q-11 0 -20 -8.5t-9 -32.5q0 -16 5.5 -32t13.5 -33q7 -15 14.5 -35.5t12.5 -41.5h111v-89h-95q1 -3 1 -7.5v-7.5q0 -16 -5.5 -43.5t-28.5 -52.5h199v-138h-409
v118q34 22 52 54.5t18 64.5v5.5t-1 6.5h-65v89z" />
    <glyph glyph-name="cent.taboldstyle" unicode="&#xe033;" 
d="M445 257v-39q0 -78 -33 -124.5t-102 -58.5v-80h-96v80q-42 6 -69 23t-42.5 41t-21.5 53.5t-6 61.5v173q0 159 139 182v77h96v-76q65 -9 100 -50.5t35 -130.5v-24h-157v69q0 15 -3.5 29.5t-20.5 14.5t-21 -15t-4 -29v-267q0 -16 4 -28.5t21 -12.5t20.5 12.5t3.5 28.5v90
h157z" />
    <glyph glyph-name="yen.taboldstyle" unicode="&#xe034;" 
d="M372 341h73v-69h-94l-13 -41h107v-68h-107v-163h-161v163h-102v68h102l-11 41h-91v69h71l-89 298h159l22 -133l20 -129h4l18 128l23 134h160z" />
    <glyph glyph-name="afii61248" unicode="&#x2105;" horiz-adv-x="797" 
d="M767 149q0 -76 -38 -116t-112 -40q-46 0 -75 12.5t-45.5 33.5t-22.5 48.5t-6 58.5v141q0 156 149 156q33 0 60.5 -8t47.5 -26.5t31 -48t11 -72.5v-139zM324 492v-36q0 -76 -33.5 -116t-111.5 -40q-46 0 -75 12.5t-45.5 33.5t-22.5 48.5t-6 58.5v141q0 156 149 156
q70 0 107.5 -34.5t37.5 -120.5v-23h-129v60q0 11 -2 21t-13 10t-13 -10.5t-2 -20.5v-218q0 -11 2 -20t13 -9t13 9t2 20v78h129zM633 325q0 11 -2 21t-13 10t-13 -10.5t-2 -20.5v-218q0 -11 2 -20t13 -9t13 9t2 20v218zM273 -29h-108l361 811h106z" />
    <glyph glyph-name="afii61289" unicode="&#x2113;" horiz-adv-x="505" 
d="M495 194q-33 -103 -90 -152.5t-120 -49.5q-31 0 -62 10t-56 32.5t-41.5 57.5t-17.5 85q-12 -9 -25.5 -19.5t-24.5 -20.5l-58 99l107 82v217q0 69 13.5 117.5t36.5 79t55 44.5t69 14q25 0 50.5 -9t46 -28.5t33 -50t12.5 -74.5q0 -41 -13 -84.5t-37 -88.5t-57.5 -90
t-73.5 -89v-44q0 -53 15.5 -80.5t35.5 -27.5q22 0 41 25t37 89zM238 451q28 43 46.5 90.5t18.5 91.5q0 12 -8 22t-19 10q-14 0 -26 -26.5t-12 -87.5v-100z" />
    <glyph glyph-name="afii61352" unicode="&#x2116;" horiz-adv-x="761" 
d="M476 318h267v-79h-267v79zM271 399v350h154v-749h-162l-34 167l-31 158h-6v-325h-155v749h155l39 -188l36 -162h4zM752 489q0 -69 -36 -106t-108 -37q-45 0 -73 11.5t-43.5 30.5t-21.5 44t-6 53v133q0 143 144 143q31 0 57.5 -7.5t45.5 -24t30 -43.5t11 -66v-131z
M628 646q0 11 -3.5 21t-15.5 10q-14 0 -17 -10t-3 -21v-189q0 -11 3 -20t17 -9q12 0 15.5 9t3.5 20v189z" />
    <glyph glyph-name="estimated" unicode="&#x212e;" horiz-adv-x="817" 
d="M201 297v-153q30 -45 83.5 -72t110.5 -27q61 0 114 28t91 76h98q-60 -74 -139.5 -117t-164.5 -43q-72 0 -136 26t-112 71t-75.5 106t-27.5 130q0 70 27.5 131t75.5 106.5t112 71.5t136 26q74 0 137.5 -27t110 -75t73.5 -114t30 -144h-544zM586 504q-13 22 -34 39.5
t-46.5 30t-54 19t-56.5 6.5q-49 0 -101 -26.5t-93 -72.5v-150h385v154z" />
    <glyph glyph-name="partialdiff" unicode="&#x2202;" horiz-adv-x="430" 
d="M190 143q14 0 25.5 18t20.5 45.5t15 60.5t8 63q-13 26 -27.5 36t-32.5 10q-11 0 -20 -11.5t-15 -29t-9.5 -38.5t-3.5 -41q0 -60 11.5 -86.5t27.5 -26.5zM155 657q-8 2 -31 1t-50 -14v114q23 11 45 15t45 4q60 0 103.5 -28t72 -78.5t42 -119.5t13.5 -150
q0 -104 -16.5 -181t-45 -128t-66 -76.5t-79.5 -25.5q-36 0 -66.5 13t-53.5 44t-36 81.5t-13 124.5q0 60 13 107t36 80t53.5 50t66.5 17q16 0 37.5 -5.5t38.5 -15.5q0 21 -4.5 48t-16.5 52t-33 44.5t-55 26.5z" />
    <glyph glyph-name="gradient" unicode="&#x2207;" horiz-adv-x="511" 
d="M498 752l-104 -752h-277l-101 752h482zM262 148l10 132l27 333h-81l27 -332l10 -133h7z" />
    <glyph glyph-name="product" unicode="&#x220f;" 
d="M289 -136v749h-57v-749h-191v888h439v-888h-191z" />
    <glyph glyph-name="summation" unicode="&#x2211;" horiz-adv-x="373" 
d="M13 -136v125l73 332l-36 150q-7 28 -13.5 55t-11.5 48t-8 34l-3 13v131h336v-140h-131l68 -291l-72 -316h150v-141h-352z" />
    <glyph glyph-name="minus" unicode="&#x2212;" 
d="M47 371h437v-113h-437v113z" />
    <glyph glyph-name="radical" unicode="&#x221a;" horiz-adv-x="445" 
d="M213 159l118 588h114l-173 -843h-111l-78 344l-67 -19l-28 101l169 54l53 -225h3z" />
    <glyph glyph-name="infinity" unicode="&#x221e;" horiz-adv-x="737" 
d="M211 481q48 0 87 -25.5t73 -62.5q18 19 34.5 35t35.5 28t41 18.5t51 6.5q81 0 125 -47.5t44 -128.5q0 -38 -12 -71t-35 -57t-55.5 -37.5t-72.5 -13.5q-24 0 -46.5 8t-43 21t-38.5 28t-33 30q-32 -34 -70 -60.5t-91 -26.5q-41 0 -72 13.5t-52.5 37t-33 56.5t-11.5 72
q0 40 12 73t35 55.5t55.5 35t72.5 12.5zM211 364q-17 0 -34 -18t-17 -41q0 -25 15.5 -44.5t31.5 -19.5q25 0 49.5 18.5t41.5 46.5q-17 25 -40.5 41.5t-46.5 16.5zM535 364q-23 0 -45.5 -17.5t-40.5 -41.5q18 -26 40 -45t43 -19q17 0 30.5 19.5t13.5 44.5q0 23 -12 41t-29 18
z" />
    <glyph glyph-name="logicaland" unicode="&#x2227;" 
d="M47 0l181 623h86l171 -623h-127l-87 339l-100 -339h-124z" />
    <glyph glyph-name="logicalor" unicode="&#x2228;" 
d="M171 624l100 -339l87 339h127l-171 -623h-86l-181 623h124z" />
    <glyph glyph-name="intersection" unicode="&#x2229;" 
d="M183 -1h-124v446q0 49 17 86.5t45 62.5t64.5 38t75.5 13q38 0 75.5 -13.5t67.5 -38.5t49 -60.5t19 -79.5v-453h-123v417q0 30 -9 49.5t-22.5 30.5t-28.5 15.5t-28 4.5q-12 0 -26 -4t-25.5 -15t-19 -30.5t-7.5 -50.5v-418z" />
    <glyph glyph-name="union" unicode="&#x222a;" 
d="M183 227q0 -31 7.5 -50.5t19 -31t25.5 -15.5t26 -4q13 0 28 4.5t28.5 16t22.5 31t9 49.5v417h123v-453q0 -44 -19 -79.5t-49 -61t-67.5 -39t-75.5 -13.5q-39 0 -75.5 13t-64.5 38.5t-45 63t-17 86.5v446h124v-418z" />
    <glyph glyph-name="integral" unicode="&#x222b;" horiz-adv-x="375" 
d="M229 39q-8 -50 -22 -84t-33.5 -55t-43.5 -30t-50 -9q-17 0 -39 4.5t-45 17.5l30 100q20 -8 36 -7.5t26 8.5q11 6 19.5 27.5t14 53t9 71.5t5.5 82t2.5 84.5t0.5 79.5q0 34 0.5 76.5t2 84t3 76.5t3.5 54q11 97 48 142t87 45q16 0 40.5 -3.5t48.5 -16.5l-21 -100
q-12 6 -22.5 7.5t-19.5 0t-15 -4.5t-9 -5q-12 -11 -19.5 -31.5t-11 -60.5t-4.5 -105t-1 -165q0 -71 -3 -155t-17 -182z" />
    <glyph glyph-name="approxequal" unicode="&#x2248;" 
d="M494 482q-2 -32 -11 -62.5t-25.5 -53.5t-40.5 -37t-54 -14q-33 0 -61 10t-53 22.5t-47.5 22.5t-44.5 10q-23 0 -37.5 -10.5t-31.5 -36.5l-55 19q5 31 16 57.5t27.5 46.5t39 31.5t51.5 11.5q33 0 62.5 -9.5t55.5 -20.5t48.5 -20.5t43.5 -9.5q23 0 38 14t25 39zM494 249
q-2 -32 -11 -62.5t-25.5 -53.5t-40.5 -37t-54 -14q-33 0 -61 10t-53 22.5t-47.5 22.5t-44.5 10q-23 0 -37.5 -10.5t-31.5 -36.5l-55 19q5 31 16 57.5t27.5 46.5t39 31.5t51.5 11.5q33 0 62.5 -9.5t55.5 -20.5t48.5 -20.5t43.5 -9.5q23 0 38 14t25 39z" />
    <glyph glyph-name="lessequal" unicode="&#x2264;" 
d="M51 113h437v-113h-437v113zM48 310v94l440 187v-128l-293 -106l293 -93v-129z" />
    <glyph glyph-name="greaterequal" unicode="&#x2265;" 
d="M485 0h-437v113h437v-113zM48 135v129l293 93l-293 106v128l440 -187v-94z" />
    <glyph glyph-name="notequal" unicode="&#x2260;" 
d="M221 160l-70 -116h-110l70 116h-70v113h138l50 84h-188v114h257l68 113h110l-68 -113h70v-114h-139l-50 -84h189v-113h-257z" />
    <glyph glyph-name="fraction" unicode="&#x2044;" horiz-adv-x="189" 
d="M-29 -29h-108l361 811h106z" />
    <glyph glyph-name="ordfeminine" unicode="&#xaa;" horiz-adv-x="338" 
d="M180 334q-13 -16 -30 -26.5t-40 -10.5q-41 0 -65 20t-24 58v60q0 22 4.5 37t15 26.5t27 20.5t40.5 19l53 24q11 4 15 12.5t4 16.5v21q0 14 -4.5 21t-16.5 7q-13 0 -16.5 -8t-3.5 -19v-46h-118v18q0 65 36.5 96t105.5 31q46 0 74 -10.5t43.5 -29.5t20.5 -45t5 -56v-267
h-115l-6 30h-5zM179 482q-40 -15 -40 -41v-35q0 -12 2.5 -23t18.5 -11q14 0 16.5 12.5t2.5 22.5v75z" />
    <glyph glyph-name="ordmasculine" unicode="&#xba;" horiz-adv-x="331" 
d="M309 439q0 -69 -36 -106t-108 -37q-45 0 -73 11.5t-43.5 30.5t-21.5 44t-6 53v133q0 143 144 143q31 0 57.5 -7.5t45.5 -24t30 -43.5t11 -66v-131zM185 596q0 11 -3.5 21t-15.5 10q-14 0 -17 -10t-3 -21v-189q0 -11 3 -20t17 -9q12 0 15.5 9t3.5 20v189z" />
    <glyph glyph-name="slashedzero" unicode="&#xe23f;" 
d="M480 207q0 -65 -19 -107.5t-50 -67t-69.5 -34t-77.5 -9.5q-63 0 -105.5 17.5t-68 49t-36 75.5t-10.5 98v305q0 19 2 43.5t9.5 50t22 50t39 43.5t60.5 30.5t87 11.5q99 0 157 -56t58 -173zM230 368l66 141v81q0 9 -1 19t-4 18t-9.5 13.5t-17.5 5.5t-17.5 -5t-10.5 -13.5
t-5 -18t-1 -18.5v-223zM296 376l-66 -142v-67q0 -9 1 -19.5t5 -19t11 -14t18 -5.5q20 0 25.5 19.5t5.5 38.5v209z" />
    <glyph glyph-name="Parenleft" unicode="&#xe0d8;" horiz-adv-x="296" 
d="M36 366q0 63 11 122t30 113.5t44.5 104t54.5 93.5l106 -41q-24 -44 -41.5 -93t-29 -99t-17.5 -100t-6 -96q0 -51 6.5 -104t18.5 -104.5t29.5 -100t40.5 -89.5l-97 -46q-67 97 -108.5 205.5t-41.5 234.5z" />
    <glyph glyph-name="Parenright" unicode="&#xe0d9;" horiz-adv-x="296" 
d="M267 366q0 -126 -41.5 -234.5t-108.5 -205.5l-97 46q22 41 40 89.5t30 100t18.5 104.5t6.5 104q0 46 -6 96t-17.5 100t-29 99t-41.5 93l106 41q29 -44 54.5 -93.5t44.5 -104t30 -113.5t11 -122z" />
    <glyph glyph-name="Hyphen" unicode="&#xe0da;" horiz-adv-x="278" 
d="M19 273v130h241v-130h-241z" />
    <glyph glyph-name="Bracketleft" unicode="&#xe0db;" horiz-adv-x="267" 
d="M41 -53v835h207v-116h-51v-603h51v-116h-207z" />
    <glyph glyph-name="Bracketright" unicode="&#xe0dc;" horiz-adv-x="267" 
d="M22 -53v116h51v603h-51v116h207v-835h-207z" />
    <glyph glyph-name="Braceleft" unicode="&#xe0dd;" horiz-adv-x="348" 
d="M189 355q32 -13 42.5 -37.5t10.5 -68.5v-114q0 -39 10.5 -62.5t47.5 -23.5h21v-113h-70q-53 0 -84.5 14t-48 38t-22 55t-5.5 66v110q0 51 -12.5 70.5t-46.5 19.5h-8v102h8q37 0 48 20t11 70v122q0 78 35.5 120t106.5 42h22t25.5 -0.5t23.5 -0.5h17v-113h-20
q-37 0 -48 -23.5t-11 -62.5v-114q0 -44 -11 -68.5t-42 -37.5v-10z" />
    <glyph glyph-name="Braceright" unicode="&#xe0de;" horiz-adv-x="348" 
d="M152 365q-31 13 -42 37.5t-11 68.5v114q0 39 -11 62.5t-48 23.5h-20v113h16.5t23.5 0.5t26 0.5h22q71 0 106.5 -42t35.5 -120v-122q0 -25 2 -42.5t8.5 -28t18 -15t30.5 -4.5h8v-102h-8q-34 0 -46.5 -19.5t-12.5 -70.5v-110q0 -35 -5.5 -66t-22 -55t-48.5 -38t-84 -14h-70
v113h21q37 0 47.5 23.5t10.5 62.5v114q0 44 10.5 68.5t42.5 37.5v10z" />
    <glyph glyph-name="Endash" unicode="&#xe0df;" horiz-adv-x="500" 
d="M20 280v116h460v-116h-460z" />
    <glyph glyph-name="Emdash" unicode="&#xe0e0;" horiz-adv-x="1000" 
d="M20 280v116h960v-116h-960z" />
    <glyph glyph-name="Exclamdown" unicode="&#xe0e1;" horiz-adv-x="269" 
d="M237 -105h-201l29 557h142zM222 647v-151h-171v151h171z" />
    <glyph glyph-name="Questiondown" unicode="&#xe0e2;" horiz-adv-x="485" 
d="M41 81q0 30 6.5 54.5t17 46t25 41t30.5 39.5l57 70q26 32 31 58t5 45v18h171v-44q0 -33 -8.5 -71.5t-44.5 -81.5l-48 -57q-32 -38 -48 -68t-16 -66q0 -9 0.5 -18.5t4 -17t10.5 -12.5t20 -5q12 0 18.5 6t10 15.5t4 20t0.5 19.5v61h171v-46q0 -47 -10.5 -84.5t-34.5 -64
t-62 -40.5t-93 -14q-59 0 -100 14.5t-67 40t-38 61.5t-12 80zM383 648v-151h-171v151h171z" />
    <glyph glyph-name="Guillemotleft" unicode="&#xe0e3;" horiz-adv-x="530" 
d="M131 40l-105 194l105 195h158l-103 -191l107 -198h-162zM348 40l-105 194l105 195h158l-103 -191l107 -198h-162z" />
    <glyph glyph-name="Guillemotright" unicode="&#xe0e4;" horiz-adv-x="530" 
d="M238 40l107 198l-103 191h158l105 -195l-105 -194h-162zM21 40l107 198l-103 191h158l105 -195l-105 -194h-162z" />
    <glyph glyph-name="Scommaaccent" unicode="&#x218;" horiz-adv-x="485" 
d="M461 192q0 -55 -15 -93.5t-43 -63t-68 -35.5t-91 -11q-72 0 -114.5 20.5t-64.5 54t-28 75.5t-6 86v52h177v-96q0 -11 1 -22t4.5 -21t10.5 -16t18 -6q12 0 19.5 5.5t11.5 14t5.5 19t1.5 20.5q0 31 -4.5 51t-16.5 36t-32.5 30.5t-53.5 35.5q-39 25 -67 46.5t-46 46
t-26.5 57t-8.5 79.5q0 54 15.5 93t44 64t67.5 37t87 12q69 0 110 -19t62.5 -49t28 -67.5t6.5 -75.5v-43h-178v67q0 23 -6 41.5t-26 18.5t-26 -17t-6 -35q0 -29 7 -47.5t21.5 -33t37 -28.5t54.5 -34q46 -29 73 -54.5t41.5 -53t18.5 -61.5t4 -80zM246 -302h-77l37 121h-34v151
h147v-150z" />
    <glyph glyph-name="scommaaccent" unicode="&#x219;" horiz-adv-x="442" 
d="M424 182q0 -102 -53 -147.5t-149 -45.5q-107 0 -153.5 45.5t-46.5 143.5v38l167 1v-42q0 -14 0.5 -27.5t4 -24.5t10.5 -18t19 -7q23 0 28 16.5t5 37.5q0 18 -5 32t-18 27.5t-35 28t-56 34.5q-28 16 -50 31t-37.5 34t-24 44.5t-8.5 62.5q0 94 51.5 138t147.5 44
q99 0 148.5 -38.5t49.5 -131.5v-38h-172v52q0 15 -5 30t-25 15q-19 0 -24 -14t-5 -30q0 -20 5 -34t16 -25.5t28 -21.5t41 -22q37 -20 64.5 -36.5t45.5 -37t27 -47.5t9 -67zM223 -302h-77l37 121h-34v151h147v-150z" />
    <glyph glyph-name="Wgrave" unicode="&#x1e80;" horiz-adv-x="776" 
d="M684 0h-238l-26 190l-30 229h-5l-27 -233l-23 -186h-237l-85 752h185l20 -281l17 -247h4l24 248l29 280h195l21 -277l21 -256h4l24 252l27 281h185zM403 776l-198 97l84 116l171 -135z" />
    <glyph glyph-name="wgrave" unicode="&#x1e81;" horiz-adv-x="662" 
d="M579 0h-209l-17 142l-19 179h-4l-19 -176l-19 -145h-209l-78 617h158l20 -189l17 -213h4l18 212l21 190h172l18 -188l15 -216h5l20 216l22 188h157zM312 639l-171 151l120 97l135 -186z" />
    <glyph glyph-name="Wacute" unicode="&#x1e82;" horiz-adv-x="776" 
d="M684 0h-238l-26 190l-30 229h-5l-27 -233l-23 -186h-237l-85 752h185l20 -281l17 -247h4l24 248l29 280h195l21 -277l21 -256h4l24 252l27 281h185zM308 854l171 135l84 -116l-198 -97z" />
    <glyph glyph-name="wacute" unicode="&#x1e83;" horiz-adv-x="662" 
d="M579 0h-209l-17 142l-19 179h-4l-19 -176l-19 -145h-209l-78 617h158l20 -189l17 -213h4l18 212l21 190h172l18 -188l15 -216h5l20 216l22 188h157zM258 709l132 184l126 -94l-174 -152z" />
    <glyph glyph-name="Wdieresis" unicode="&#x1e84;" horiz-adv-x="776" 
d="M684 0h-238l-26 190l-30 229h-5l-27 -233l-23 -186h-237l-85 752h185l20 -281l17 -247h4l24 248l29 280h195l21 -277l21 -256h4l24 252l27 281h185zM415 783v139h136v-139h-136zM225 783v139h136v-139h-136z" />
    <glyph glyph-name="wdieresis" unicode="&#x1e85;" horiz-adv-x="662" 
d="M579 0h-209l-17 142l-19 179h-4l-19 -176l-19 -145h-209l-78 617h158l20 -189l17 -213h4l18 212l21 190h172l18 -188l15 -216h5l20 216l22 188h157zM360 676v139h136v-139h-136zM170 676v139h136v-139h-136z" />
    <glyph glyph-name="Ygrave" unicode="&#x1ef2;" horiz-adv-x="469" 
d="M319 272v-272h-177v272l-135 480h179l23 -152l22 -168h4l25 170l25 150h173zM272 776l-198 97l84 116l171 -135z" />
    <glyph glyph-name="ygrave" unicode="&#x1ef3;" horiz-adv-x="458" 
d="M359 75q-6 -35 -14.5 -72.5t-28.5 -68.5t-55 -50.5t-93 -19.5h-108v127h26q38 0 38 34q0 10 -3 24l-116 568h178l26 -203l25 -217h5l19 217l19 203h172zM233 650l-171 151l120 97l135 -186z" />
    <glyph glyph-name="ampersandsmall" unicode="&#xe0fb;" horiz-adv-x="556" 
d="M359 0l-17 31q-53 -41 -123 -41q-39 0 -72 14.5t-56.5 40t-36.5 60t-13 75.5q0 61 26.5 109.5t78.5 90.5q-21 38 -33 69t-12 66q0 33 12 60t33.5 46.5t52 30t67.5 10.5q72 0 113.5 -37t41.5 -102q0 -94 -90 -166l38 -65q6 16 9 36.5t7 52.5h140q-6 -77 -24.5 -133.5
t-50.5 -100.5l84 -147h-175zM219 253q-22 -25 -22 -59q0 -29 13 -44.5t33 -15.5q16 0 34 14zM285 517q0 22 -19 22q-9 0 -13.5 -8t-4.5 -16t3 -17t13 -27q13 13 17 24t4 22z" />
    <glyph glyph-name="exclamsmall" unicode="&#xe0fc;" horiz-adv-x="253" 
d="M199 167h-142l-26 488h195zM44 0v141h169v-141h-169z" />
    <glyph glyph-name="questionsmall" unicode="&#xe0fd;" horiz-adv-x="456" 
d="M432 491q0 -25 -6.5 -46.5t-17 -41t-24 -37.5t-27.5 -34l-52 -60q-24 -26 -28.5 -47.5t-4.5 -36.5v-21h-168v43q0 29 8 63t42 72l45 49q29 32 43.5 56.5t14.5 53.5q0 14 -3.5 27t-24.5 13q-9 0 -14 -4.5t-7.5 -11.5t-3 -15.5t-0.5 -15.5v-58h-168v37q0 41 11.5 75.5
t35.5 60t61.5 39.5t90.5 14q56 0 93.5 -12.5t60.5 -35.5t33 -55t10 -71zM105 0v141h168v-141h-168z" />
    <glyph glyph-name="Asmall" unicode="&#xe0fe;" horiz-adv-x="480" 
d="M284 0l-10 115h-62l-10 -115h-189l94 655h265l98 -655h-186zM240 489l-6 -86l-12 -161h42l-12 162l-6 85h-6z" />
    <glyph glyph-name="Bsmall" unicode="&#xe0ff;" horiz-adv-x="487" 
d="M457 178q-2 -85 -56 -131.5t-157 -46.5h-206v655h205q52 0 90.5 -8t63.5 -27.5t37 -52t12 -80.5q0 -52 -21 -82.5t-54 -46.5q29 -9 46 -24.5t26 -34t12 -38.5t3 -38zM272 235q0 28 -12 40t-37 14v-163q26 2 37.5 14.5t11.5 43.5v51zM223 406q29 2 39 16.5t10 47.5
q0 14 -1 25t-5.5 18.5t-14.5 12t-28 4.5v-124z" />
    <glyph glyph-name="Csmall" unicode="&#xe100;" horiz-adv-x="488" 
d="M459 279v-100q0 -58 -19 -94.5t-50 -57.5t-69.5 -29t-78.5 -8q-60 0 -100 14.5t-64.5 41.5t-34.5 65.5t-10 86.5v274q0 25 5.5 58.5t26.5 63.5t62.5 50.5t114.5 20.5q100 0 158.5 -45t58.5 -148v-73h-186v103q0 14 -4.5 28t-22.5 14q-17 0 -22.5 -14t-5.5 -28v-345
q0 -14 5 -28.5t23 -14.5q17 0 22 14.5t5 28.5v122h186z" />
    <glyph glyph-name="Dsmall" unicode="&#xe101;" horiz-adv-x="487" 
d="M455 198q0 -48 -7.5 -85t-29.5 -62t-60.5 -38t-101.5 -13h-218v655h194q73 0 117 -14t67.5 -41t31 -67t7.5 -93v-242zM269 462q0 16 -0.5 29t-4.5 21.5t-13.5 13t-27.5 4.5v-404q17 1 26 9t13.5 20t5.5 26t1 26v255z" />
    <glyph glyph-name="Esmall" unicode="&#xe102;" horiz-adv-x="368" 
d="M37 0v655h303v-125h-118v-125h111v-124h-111v-155h130v-126h-315z" />
    <glyph glyph-name="Fsmall" unicode="&#xe103;" horiz-adv-x="352" 
d="M222 530v-125h110v-125h-110v-280h-185v655h307v-125h-122z" />
    <glyph glyph-name="Gsmall" unicode="&#xe104;" horiz-adv-x="486" 
d="M343 0l-19 41q-19 -27 -47.5 -38.5t-60.5 -11.5q-54 0 -89.5 12.5t-56 37.5t-29 61t-8.5 84v286q0 25 6 58.5t27.5 63.5t64 50.5t114.5 20.5q50 0 90 -11t67.5 -34t42 -59.5t14.5 -88.5v-73h-186v103q0 14 -4.5 28t-22.5 14q-17 0 -22.5 -14t-5.5 -28v-345q0 -14 5 -28.5
t23 -14.5t22.5 12t4.5 28v93h-31v110h217v-357h-116z" />
    <glyph glyph-name="Hsmall" unicode="&#xe105;" horiz-adv-x="489" 
d="M267 0v281h-44v-281h-185v655h185v-249h44v249h185v-655h-185z" />
    <glyph glyph-name="Ismall" unicode="&#xe106;" horiz-adv-x="256" 
d="M36 0v655h184v-655h-184z" />
    <glyph glyph-name="Jsmall" unicode="&#xe107;" horiz-adv-x="456" 
d="M197 150q0 -14 4.5 -25t19.5 -11q14 0 17.5 12.5t3.5 26.5v502h186v-455q0 -36 -6 -73t-27.5 -67.5t-63.5 -50t-115 -19.5q-56 0 -95 14t-63 41.5t-34.5 68t-10.5 92.5v64h184v-120z" />
    <glyph glyph-name="Ksmall" unicode="&#xe108;" horiz-adv-x="482" 
d="M224 226v-226h-186v655h186v-212l3 -1l61 213h185l-107 -296l114 -359h-194l-59 227z" />
    <glyph glyph-name="Lsmall" unicode="&#xe109;" horiz-adv-x="337" 
d="M37 0v655h185v-528h107v-127h-292z" />
    <glyph glyph-name="Msmall" unicode="&#xe10a;" horiz-adv-x="638" 
d="M323 344l27 157q5 34 13 76t14 77h224v-654h-170v290l-7 1q-6 -26 -14 -62t-15 -62l-19 -74h-111q-5 18 -9.5 34.5t-9.5 33.5l-35 130h-4v-291h-170v654h213l30 -133l39 -177h4z" />
    <glyph glyph-name="Nsmall" unicode="&#xe10b;" horiz-adv-x="478" 
d="M195 281v-281h-158v655h157l53 -165l33 -114l4 2v277h157v-655h-164l-51 173l-28 108h-3z" />
    <glyph glyph-name="Osmall" unicode="&#xe10c;" horiz-adv-x="481" 
d="M449 179q0 -58 -18.5 -94.5t-48.5 -57.5t-67 -29t-73 -8q-60 0 -100 14.5t-64.5 41.5t-34.5 65.5t-10 86.5v274q0 25 5.5 58.5t26.5 63.5t62.5 50.5t114.5 20.5q47 0 85 -11t65 -34t42 -59.5t15 -88.5v-293zM264 502q0 7 -0.5 14.5t-2.5 13.5t-6.5 10t-12.5 4
q-17 0 -20.5 -14t-3.5 -28v-345q0 -14 3.5 -28.5t21.5 -14.5q15 0 18 14.5t3 28.5v345z" />
    <glyph glyph-name="Psmall" unicode="&#xe10d;" horiz-adv-x="457" 
d="M445 470q0 -55 -13 -93t-38.5 -61.5t-63.5 -34t-87 -10.5h-21v-271h-185v655h202q111 0 158.5 -45.5t47.5 -139.5zM222 393h5q26 0 36 18t10 55q0 39 -12 53t-35 14h-4v-140z" />
    <glyph glyph-name="Qsmall" unicode="&#xe10e;" horiz-adv-x="481" 
d="M449 179q0 -47 -12.5 -79.5t-33 -54t-47.5 -33.5t-57 -16q0 -9 7.5 -11.5t21.5 -2.5h33v-98h-89q-50 0 -71 21t-21 61v29q-42 7 -70 24t-45.5 43t-24.5 60.5t-7 75.5v274q0 25 5.5 58.5t26.5 63.5t62.5 50.5t114.5 20.5q47 0 85 -11t65 -34t42 -59.5t15 -88.5v-293z
M264 502q0 7 -0.5 14.5t-2.5 13.5t-6.5 10t-12.5 4q-17 0 -20.5 -14t-3.5 -28v-345q0 -14 3.5 -28.5t21.5 -14.5q15 0 18 14.5t3 28.5v345z" />
    <glyph glyph-name="Rsmall" unicode="&#xe10f;" horiz-adv-x="475" 
d="M445 483q0 -57 -12.5 -88t-45.5 -48q35 -14 46.5 -36.5t11.5 -63.5v-187q0 -15 2 -28t14 -32h-174q-8 16 -11.5 33t-3.5 40v147q0 35 -10 52t-40 19v-291h-184v656h243q80 0 122 -41t42 -132zM220 402q17 0 27.5 3t16 10.5t7 20.5t1.5 35q0 18 -1.5 30.5t-7 19.5
t-15.5 10t-28 3v-132z" />
    <glyph glyph-name="Ssmall" unicode="&#xe110;" horiz-adv-x="456" 
d="M434 170q0 -97 -51 -138.5t-148 -41.5q-68 0 -109 18t-63 47.5t-29 67t-7 76.5v30h174v-69q0 -15 4.5 -32t21.5 -17q21 0 25.5 15t4.5 29q0 26 -4 42.5t-14.5 29t-29.5 25t-48 29.5q-36 22 -62.5 40.5t-43 40.5t-24.5 50.5t-8 70.5q0 95 52.5 138.5t142.5 43.5
q66 0 106 -14t61.5 -38t28.5 -55t7 -64v-42h-174v46q0 7 -0.5 15t-2.5 15t-7.5 11.5t-14.5 4.5q-16 0 -20 -12.5t-4 -26.5q0 -21 4.5 -34.5t14 -24.5t25 -20.5t36.5 -21.5q52 -29 82.5 -52.5t47 -49.5t21.5 -57.5t5 -74.5z" />
    <glyph glyph-name="Tsmall" unicode="&#xe111;" horiz-adv-x="416" 
d="M300 531v-531h-185v531h-106v124h396v-124h-105z" />
    <glyph glyph-name="Usmall" unicode="&#xe112;" horiz-adv-x="486" 
d="M451 656v-477q0 -58 -18.5 -94.5t-48.5 -57.5t-67 -29t-74 -8q-60 0 -100 14.5t-64 41.5t-34 65.5t-10 86.5v458h185v-499q0 -14 3.5 -28.5t20.5 -14.5q16 0 19 14.5t3 28.5v499h185z" />
    <glyph glyph-name="Vsmall" unicode="&#xe113;" horiz-adv-x="479" 
d="M245 203l15 194l19 258h197l-91 -655h-277l-103 655h197l22 -259l17 -193h4z" />
    <glyph glyph-name="Wsmall" unicode="&#xe114;" horiz-adv-x="729" 
d="M363 328l-21 -164l-22 -164h-227l-81 655h182l19 -246l10 -153h4l17 155l28 244h189l20 -243l14 -159h5l16 157l25 245h182l-81 -655h-228l-24 167l-21 161h-6z" />
    <glyph glyph-name="Xsmall" unicode="&#xe115;" horiz-adv-x="453" 
d="M221 191l-25 -191h-193l91 342l-81 313h195l18 -155h4l20 155h189l-83 -313l92 -342h-194l-27 192z" />
    <glyph glyph-name="Ysmall" unicode="&#xe116;" horiz-adv-x="441" 
d="M222 414l17 108l24 133h172l-131 -418v-237h-174v237l-126 418h176l21 -135l15 -106h6z" />
    <glyph glyph-name="Zsmall" unicode="&#xe117;" horiz-adv-x="352" 
d="M6 0v105l137 425h-121v125h318v-112l-138 -416h138v-127h-334z" />
    <glyph glyph-name="Scaronsmall" unicode="&#xe118;" horiz-adv-x="456" 
d="M434 170q0 -97 -51 -138.5t-148 -41.5q-68 0 -109 18t-63 47.5t-29 67t-7 76.5v30h174v-69q0 -15 4.5 -32t21.5 -17q21 0 25.5 15t4.5 29q0 26 -4 42.5t-14.5 29t-29.5 25t-48 29.5q-36 22 -62.5 40.5t-43 40.5t-24.5 50.5t-8 70.5q0 95 52.5 138.5t142.5 43.5
q66 0 106 -14t61.5 -38t28.5 -55t7 -64v-42h-174v46q0 7 -0.5 15t-2.5 15t-7.5 11.5t-14.5 4.5q-16 0 -20 -12.5t-4 -26.5q0 -21 4.5 -34.5t14 -24.5t25 -20.5t36.5 -21.5q52 -29 82.5 -52.5t47 -49.5t21.5 -57.5t5 -74.5zM378 915l67 -58l-136 -160h-138l-141 160l67 58
l141 -107z" />
    <glyph glyph-name="OEsmall" unicode="&#xe119;" horiz-adv-x="601" 
d="M323 0q-37 -10 -80 -10q-60 0 -100 14.5t-64.5 41.5t-34.5 65.5t-10 86.5v274q0 25 5.5 58.5t26.5 63.5t62.5 50.5t114.5 20.5q20 0 41.5 -3t38.5 -7h248v-125h-118v-124h111v-126h-111v-153h130v-127h-260zM265 502q0 7 -0.5 14.5t-2.5 13.5t-6.5 10t-12.5 4
q-17 0 -20 -14t-3 -28v-345q0 -14 3 -28.5t21 -14.5q15 0 18 14.5t3 28.5v345z" />
    <glyph glyph-name="Zcaronsmall" unicode="&#xe11a;" horiz-adv-x="352" 
d="M6 0v105l137 425h-121v125h318v-112l-138 -416h138v-127h-334zM323 915l67 -58l-136 -160h-138l-141 160l67 58l141 -107z" />
    <glyph glyph-name="Ydieresissmall" unicode="&#xe11b;" horiz-adv-x="441" 
d="M222 414l17 108l24 133h172l-131 -418v-237h-174v237l-126 418h176l21 -135l15 -106h6zM247 726v139h136v-139h-136zM57 726v139h136v-139h-136z" />
    <glyph glyph-name="Agravesmall" unicode="&#xe11c;" horiz-adv-x="480" 
d="M284 0l-10 115h-62l-10 -115h-189l94 655h265l98 -655h-186zM240 489l-6 -86l-12 -161h42l-12 162l-6 85h-6zM249 690l-171 151l120 97l135 -186z" />
    <glyph glyph-name="Aacutesmall" unicode="&#xe11d;" horiz-adv-x="480" 
d="M284 0l-10 115h-62l-10 -115h-189l94 655h265l98 -655h-186zM240 489l-6 -86l-12 -161h42l-12 162l-6 85h-6zM157 749l132 184l126 -94l-174 -152z" />
    <glyph glyph-name="Acircumflexsmall" unicode="&#xe11e;" horiz-adv-x="480" 
d="M284 0l-10 115h-62l-10 -115h-189l94 655h265l98 -655h-186zM240 489l-6 -86l-12 -161h42l-12 162l-6 85h-6zM243 784l-141 -107l-67 58l141 160h138l136 -160l-67 -58z" />
    <glyph glyph-name="Atildesmall" unicode="&#xe11f;" horiz-adv-x="480" 
d="M284 0l-10 115h-62l-10 -115h-189l94 655h265l98 -655h-186zM240 489l-6 -86l-12 -161h42l-12 162l-6 85h-6zM431 844q-3 -25 -12 -50.5t-23 -46t-33 -33.5t-42 -13q-25 0 -45 5.5t-38.5 12t-36.5 12t-39 5.5q-16 0 -29.5 -6t-27.5 -27l-49 15q2 20 8.5 44t19 44.5
t32 34.5t48.5 14q24 0 44 -5t38 -11.5t36 -11.5t39 -5q16 0 30.5 7t28.5 27z" />
    <glyph glyph-name="Adieresissmall" unicode="&#xe120;" horiz-adv-x="480" 
d="M284 0l-10 115h-62l-10 -115h-189l94 655h265l98 -655h-186zM240 489l-6 -86l-12 -161h42l-12 162l-6 85h-6zM269 716v139h136v-139h-136zM79 716v139h136v-139h-136z" />
    <glyph glyph-name="Aringsmall" unicode="&#xe121;" horiz-adv-x="480" 
d="M284 0l-10 115h-62l-10 -115h-189l94 655h265l98 -655h-186zM240 489l-6 -86l-12 -161h42l-12 162l-6 85h-6zM240 683q-26 0 -49.5 10.5t-41 28.5t-28 42t-10.5 52q0 26 10.5 49.5t28.5 41t42.5 28t51.5 10.5q26 0 49.5 -10.5t41 -28t28 -41t10.5 -49.5
q0 -27 -10.5 -51.5t-28.5 -42.5t-42 -28.5t-52 -10.5zM244 849q-16 0 -26 -9.5t-10 -23.5q0 -16 9.5 -26t26.5 -10q14 0 23.5 10t9.5 26q0 14 -9.5 23.5t-23.5 9.5z" />
    <glyph glyph-name="AEsmall" unicode="&#xe122;" horiz-adv-x="622" 
d="M288 0v159h-70l-32 -159h-190l167 655h429v-125h-118v-126h111v-123h-111v-154h130v-127h-316zM284 515l-39 -233h43v233h-4z" />
    <glyph glyph-name="Ccedillasmall" unicode="&#xe123;" horiz-adv-x="488" 
d="M459 279v-100q0 -54 -17 -90t-44.5 -57t-63.5 -30.5t-73 -10.5l-15 -34h8q36 0 61 -19.5t25 -54.5q0 -23 -9.5 -39t-25.5 -27t-36 -16t-42 -5q-28 0 -53.5 7t-50.5 18l20 55q23 -8 40.5 -11t34.5 -3q12 0 18.5 6t6.5 15q0 12 -9 17.5t-21 5.5q-5 0 -10.5 -1t-15.5 -6
l-23 23l32 71q-47 5 -78 22t-50 43t-27 61.5t-8 78.5v274q0 25 5.5 58.5t26.5 63.5t62.5 50.5t114.5 20.5q100 0 158.5 -45t58.5 -148v-73h-186v103q0 14 -4.5 28t-22.5 14q-17 0 -22.5 -14t-5.5 -28v-345q0 -14 5 -28.5t23 -14.5q17 0 22 14.5t5 28.5v122h186z" />
    </font>
</defs>
</svg>
