<svg width="720" height="712" viewBox="0 0 720 712" xmlns="http://www.w3.org/2000/svg"><g fill="none" fill-rule="evenodd"><path fill="#000" d="M-431-211h1603V904H-431z"/><path fill="#DA121A" d="M-431-211h1603L-431 904z"/><path d="m516.427-258.728 235.74 336.671-776.556 543.75-235.74-336.67z" fill="#DA121A"/><g fill="#000" fill-rule="nonzero" stroke="#FFF" stroke-width="16"><path d="m309.11 442.61-40.5 40.5m0-40.5 40.5 40.5M389.933 442.61l-40.5 40.5m0-40.5 40.5 40.5M470.755 442.61l-40.5 40.5m0-40.5 40.5 40.5"/></g><path d="M369 18C187.501 18 39 166.501 39 348s148.501 330 330 330 330-148.501 330-330S550.499 18 369 18Zm43.248 75.214c123.266 20.713 216.24 126.925 216.24 256.135 0 47.978-12.832 92.778-35.26 131.215l-180.98-387.35Zm-86.496 0L144.74 480.564c-22.409-38.431-35.226-83.216-35.226-131.168 0-129.205 92.967-235.427 216.24-256.182Zm44.19 71.453 83.673 178.632h-167.35l83.677-178.632ZM251.84 413.812h232.414l58.678 126.135c-45.977 42.02-107.256 67.54-174.845 67.54-67.615 0-128.918-25.545-174.899-67.594l58.652-126.081Z" fill="#FFF" fill-rule="nonzero"/></g></svg>